G04 MADE WITH FRITZING*
G04 WWW.FRITZING.ORG*
G04 DOUBLE SIDED*
G04 HOLES PLATED*
G04 CONTOUR ON CENTER OF CONTOUR VECTOR*
%ASAXBY*%
%FSLAX23Y23*%
%MOIN*%
%OFA0B0*%
%SFA1.0B1.0*%
%ADD10C,0.010000*%
%ADD11C,0.020000*%
%ADD12R,0.001000X0.001000*%
%LNSILK0*%
G90*
G70*
G54D10*
X353Y104D02*
X353Y299D01*
D02*
X263Y299D02*
X263Y104D01*
D02*
X263Y104D02*
X353Y104D01*
G54D11*
D02*
X263Y124D02*
X353Y124D01*
G54D10*
D02*
X183Y124D02*
X183Y174D01*
D02*
X183Y174D02*
X133Y174D01*
D02*
X133Y174D02*
X133Y124D01*
D02*
X133Y124D02*
X183Y124D01*
G54D12*
X0Y394D02*
X300Y394D01*
X315Y394D02*
X471Y394D01*
X0Y393D02*
X295Y393D01*
X320Y393D02*
X471Y393D01*
X0Y392D02*
X292Y392D01*
X323Y392D02*
X471Y392D01*
X0Y391D02*
X289Y391D01*
X326Y391D02*
X471Y391D01*
X0Y390D02*
X287Y390D01*
X328Y390D02*
X471Y390D01*
X0Y389D02*
X285Y389D01*
X330Y389D02*
X471Y389D01*
X0Y388D02*
X283Y388D01*
X332Y388D02*
X471Y388D01*
X0Y387D02*
X282Y387D01*
X333Y387D02*
X471Y387D01*
X0Y386D02*
X7Y386D01*
X464Y386D02*
X471Y386D01*
X0Y385D02*
X7Y385D01*
X464Y385D02*
X471Y385D01*
X0Y384D02*
X7Y384D01*
X464Y384D02*
X471Y384D01*
X0Y383D02*
X7Y383D01*
X464Y383D02*
X471Y383D01*
X0Y382D02*
X7Y382D01*
X464Y382D02*
X471Y382D01*
X0Y381D02*
X7Y381D01*
X464Y381D02*
X471Y381D01*
X0Y380D02*
X7Y380D01*
X223Y380D02*
X244Y380D01*
X464Y380D02*
X471Y380D01*
X0Y379D02*
X7Y379D01*
X222Y379D02*
X245Y379D01*
X464Y379D02*
X471Y379D01*
X0Y378D02*
X7Y378D01*
X221Y378D02*
X245Y378D01*
X464Y378D02*
X471Y378D01*
X0Y377D02*
X7Y377D01*
X221Y377D02*
X245Y377D01*
X464Y377D02*
X471Y377D01*
X0Y376D02*
X7Y376D01*
X221Y376D02*
X245Y376D01*
X464Y376D02*
X471Y376D01*
X0Y375D02*
X7Y375D01*
X221Y375D02*
X244Y375D01*
X464Y375D02*
X471Y375D01*
X0Y374D02*
X7Y374D01*
X221Y374D02*
X242Y374D01*
X464Y374D02*
X471Y374D01*
X0Y373D02*
X7Y373D01*
X221Y373D02*
X227Y373D01*
X464Y373D02*
X471Y373D01*
X0Y372D02*
X7Y372D01*
X221Y372D02*
X227Y372D01*
X464Y372D02*
X471Y372D01*
X0Y371D02*
X7Y371D01*
X221Y371D02*
X227Y371D01*
X464Y371D02*
X471Y371D01*
X0Y370D02*
X7Y370D01*
X221Y370D02*
X227Y370D01*
X464Y370D02*
X471Y370D01*
X0Y369D02*
X7Y369D01*
X221Y369D02*
X227Y369D01*
X464Y369D02*
X471Y369D01*
X0Y368D02*
X7Y368D01*
X221Y368D02*
X227Y368D01*
X464Y368D02*
X471Y368D01*
X0Y367D02*
X7Y367D01*
X221Y367D02*
X265Y367D01*
X464Y367D02*
X471Y367D01*
X0Y366D02*
X7Y366D01*
X221Y366D02*
X264Y366D01*
X464Y366D02*
X471Y366D01*
X0Y365D02*
X7Y365D01*
X221Y365D02*
X264Y365D01*
X464Y365D02*
X471Y365D01*
X0Y364D02*
X7Y364D01*
X221Y364D02*
X264Y364D01*
X464Y364D02*
X471Y364D01*
X0Y363D02*
X7Y363D01*
X221Y363D02*
X263Y363D01*
X464Y363D02*
X471Y363D01*
X0Y362D02*
X7Y362D01*
X221Y362D02*
X263Y362D01*
X464Y362D02*
X471Y362D01*
X0Y361D02*
X7Y361D01*
X221Y361D02*
X263Y361D01*
X464Y361D02*
X471Y361D01*
X0Y360D02*
X7Y360D01*
X221Y360D02*
X228Y360D01*
X464Y360D02*
X471Y360D01*
X0Y359D02*
X7Y359D01*
X221Y359D02*
X227Y359D01*
X464Y359D02*
X471Y359D01*
X0Y358D02*
X7Y358D01*
X221Y358D02*
X227Y358D01*
X464Y358D02*
X471Y358D01*
X0Y357D02*
X7Y357D01*
X221Y357D02*
X227Y357D01*
X464Y357D02*
X471Y357D01*
X0Y356D02*
X7Y356D01*
X221Y356D02*
X227Y356D01*
X464Y356D02*
X471Y356D01*
X0Y355D02*
X7Y355D01*
X221Y355D02*
X227Y355D01*
X464Y355D02*
X471Y355D01*
X0Y354D02*
X7Y354D01*
X221Y354D02*
X227Y354D01*
X464Y354D02*
X471Y354D01*
X0Y353D02*
X7Y353D01*
X221Y353D02*
X227Y353D01*
X464Y353D02*
X471Y353D01*
X0Y352D02*
X7Y352D01*
X221Y352D02*
X227Y352D01*
X464Y352D02*
X471Y352D01*
X0Y351D02*
X7Y351D01*
X221Y351D02*
X227Y351D01*
X464Y351D02*
X471Y351D01*
X0Y350D02*
X7Y350D01*
X221Y350D02*
X227Y350D01*
X464Y350D02*
X471Y350D01*
X0Y349D02*
X7Y349D01*
X221Y349D02*
X227Y349D01*
X464Y349D02*
X471Y349D01*
X0Y348D02*
X7Y348D01*
X222Y348D02*
X227Y348D01*
X464Y348D02*
X471Y348D01*
X0Y347D02*
X7Y347D01*
X223Y347D02*
X226Y347D01*
X464Y347D02*
X471Y347D01*
X0Y346D02*
X7Y346D01*
X464Y346D02*
X471Y346D01*
X0Y345D02*
X7Y345D01*
X464Y345D02*
X471Y345D01*
X0Y344D02*
X7Y344D01*
X464Y344D02*
X471Y344D01*
X0Y343D02*
X7Y343D01*
X464Y343D02*
X471Y343D01*
X0Y342D02*
X7Y342D01*
X464Y342D02*
X471Y342D01*
X0Y341D02*
X7Y341D01*
X464Y341D02*
X471Y341D01*
X0Y340D02*
X7Y340D01*
X464Y340D02*
X471Y340D01*
X0Y339D02*
X7Y339D01*
X464Y339D02*
X471Y339D01*
X0Y338D02*
X7Y338D01*
X464Y338D02*
X471Y338D01*
X0Y337D02*
X7Y337D01*
X464Y337D02*
X471Y337D01*
X0Y336D02*
X7Y336D01*
X464Y336D02*
X471Y336D01*
X0Y335D02*
X7Y335D01*
X464Y335D02*
X471Y335D01*
X0Y334D02*
X7Y334D01*
X464Y334D02*
X471Y334D01*
X0Y333D02*
X7Y333D01*
X464Y333D02*
X471Y333D01*
X0Y332D02*
X7Y332D01*
X464Y332D02*
X471Y332D01*
X0Y331D02*
X7Y331D01*
X464Y331D02*
X471Y331D01*
X0Y330D02*
X7Y330D01*
X223Y330D02*
X226Y330D01*
X257Y330D02*
X265Y330D01*
X464Y330D02*
X471Y330D01*
X0Y329D02*
X7Y329D01*
X222Y329D02*
X228Y329D01*
X256Y329D02*
X266Y329D01*
X464Y329D02*
X471Y329D01*
X0Y328D02*
X7Y328D01*
X221Y328D02*
X229Y328D01*
X254Y328D02*
X266Y328D01*
X464Y328D02*
X471Y328D01*
X0Y327D02*
X7Y327D01*
X221Y327D02*
X231Y327D01*
X253Y327D02*
X267Y327D01*
X464Y327D02*
X471Y327D01*
X0Y326D02*
X7Y326D01*
X222Y326D02*
X233Y326D01*
X253Y326D02*
X267Y326D01*
X464Y326D02*
X471Y326D01*
X0Y325D02*
X7Y325D01*
X222Y325D02*
X235Y325D01*
X252Y325D02*
X268Y325D01*
X464Y325D02*
X471Y325D01*
X0Y324D02*
X7Y324D01*
X223Y324D02*
X236Y324D01*
X251Y324D02*
X268Y324D01*
X464Y324D02*
X471Y324D01*
X0Y323D02*
X7Y323D01*
X225Y323D02*
X238Y323D01*
X251Y323D02*
X258Y323D01*
X267Y323D02*
X269Y323D01*
X464Y323D02*
X471Y323D01*
X0Y322D02*
X7Y322D01*
X227Y322D02*
X240Y322D01*
X251Y322D02*
X257Y322D01*
X268Y322D02*
X270Y322D01*
X464Y322D02*
X471Y322D01*
X0Y321D02*
X7Y321D01*
X228Y321D02*
X242Y321D01*
X251Y321D02*
X257Y321D01*
X268Y321D02*
X271Y321D01*
X464Y321D02*
X471Y321D01*
X0Y320D02*
X7Y320D01*
X230Y320D02*
X243Y320D01*
X251Y320D02*
X257Y320D01*
X268Y320D02*
X271Y320D01*
X464Y320D02*
X471Y320D01*
X0Y319D02*
X7Y319D01*
X232Y319D02*
X245Y319D01*
X251Y319D02*
X257Y319D01*
X268Y319D02*
X272Y319D01*
X464Y319D02*
X471Y319D01*
X0Y318D02*
X7Y318D01*
X234Y318D02*
X247Y318D01*
X251Y318D02*
X257Y318D01*
X268Y318D02*
X273Y318D01*
X464Y318D02*
X471Y318D01*
X0Y317D02*
X7Y317D01*
X235Y317D02*
X248Y317D01*
X251Y317D02*
X257Y317D01*
X268Y317D02*
X274Y317D01*
X464Y317D02*
X471Y317D01*
X0Y316D02*
X7Y316D01*
X237Y316D02*
X257Y316D01*
X268Y316D02*
X274Y316D01*
X464Y316D02*
X471Y316D01*
X0Y315D02*
X7Y315D01*
X239Y315D02*
X257Y315D01*
X268Y315D02*
X274Y315D01*
X464Y315D02*
X471Y315D01*
X0Y314D02*
X7Y314D01*
X240Y314D02*
X257Y314D01*
X268Y314D02*
X274Y314D01*
X464Y314D02*
X471Y314D01*
X0Y313D02*
X7Y313D01*
X242Y313D02*
X257Y313D01*
X268Y313D02*
X274Y313D01*
X464Y313D02*
X471Y313D01*
X0Y312D02*
X7Y312D01*
X244Y312D02*
X257Y312D01*
X268Y312D02*
X274Y312D01*
X464Y312D02*
X471Y312D01*
X0Y311D02*
X7Y311D01*
X246Y311D02*
X257Y311D01*
X268Y311D02*
X274Y311D01*
X464Y311D02*
X471Y311D01*
X0Y310D02*
X7Y310D01*
X247Y310D02*
X257Y310D01*
X268Y310D02*
X274Y310D01*
X464Y310D02*
X471Y310D01*
X0Y309D02*
X7Y309D01*
X249Y309D02*
X257Y309D01*
X268Y309D02*
X274Y309D01*
X464Y309D02*
X471Y309D01*
X0Y308D02*
X7Y308D01*
X251Y308D02*
X257Y308D01*
X268Y308D02*
X274Y308D01*
X464Y308D02*
X471Y308D01*
X0Y307D02*
X7Y307D01*
X251Y307D02*
X257Y307D01*
X268Y307D02*
X274Y307D01*
X464Y307D02*
X471Y307D01*
X0Y306D02*
X7Y306D01*
X251Y306D02*
X257Y306D01*
X268Y306D02*
X274Y306D01*
X464Y306D02*
X471Y306D01*
X0Y305D02*
X7Y305D01*
X251Y305D02*
X257Y305D01*
X268Y305D02*
X274Y305D01*
X464Y305D02*
X471Y305D01*
X0Y304D02*
X7Y304D01*
X251Y304D02*
X257Y304D01*
X263Y304D02*
X297Y304D01*
X318Y304D02*
X352Y304D01*
X464Y304D02*
X471Y304D01*
X0Y303D02*
X7Y303D01*
X224Y303D02*
X305Y303D01*
X310Y303D02*
X352Y303D01*
X464Y303D02*
X471Y303D01*
X0Y302D02*
X7Y302D01*
X222Y302D02*
X352Y302D01*
X464Y302D02*
X471Y302D01*
X0Y301D02*
X7Y301D01*
X222Y301D02*
X352Y301D01*
X464Y301D02*
X471Y301D01*
X0Y300D02*
X7Y300D01*
X221Y300D02*
X352Y300D01*
X464Y300D02*
X471Y300D01*
X0Y299D02*
X7Y299D01*
X221Y299D02*
X352Y299D01*
X464Y299D02*
X471Y299D01*
X0Y298D02*
X7Y298D01*
X222Y298D02*
X352Y298D01*
X464Y298D02*
X471Y298D01*
X0Y297D02*
X7Y297D01*
X223Y297D02*
X352Y297D01*
X464Y297D02*
X471Y297D01*
X0Y296D02*
X7Y296D01*
X263Y296D02*
X352Y296D01*
X464Y296D02*
X471Y296D01*
X0Y295D02*
X7Y295D01*
X263Y295D02*
X352Y295D01*
X464Y295D02*
X471Y295D01*
X0Y294D02*
X7Y294D01*
X464Y294D02*
X471Y294D01*
X0Y293D02*
X7Y293D01*
X464Y293D02*
X471Y293D01*
X0Y292D02*
X7Y292D01*
X464Y292D02*
X471Y292D01*
X0Y291D02*
X7Y291D01*
X464Y291D02*
X471Y291D01*
X0Y290D02*
X7Y290D01*
X464Y290D02*
X471Y290D01*
X0Y289D02*
X7Y289D01*
X464Y289D02*
X471Y289D01*
X0Y288D02*
X7Y288D01*
X464Y288D02*
X471Y288D01*
X0Y287D02*
X7Y287D01*
X464Y287D02*
X471Y287D01*
X0Y286D02*
X7Y286D01*
X464Y286D02*
X471Y286D01*
X0Y285D02*
X7Y285D01*
X464Y285D02*
X471Y285D01*
X0Y284D02*
X7Y284D01*
X464Y284D02*
X471Y284D01*
X0Y283D02*
X7Y283D01*
X464Y283D02*
X471Y283D01*
X0Y282D02*
X7Y282D01*
X464Y282D02*
X471Y282D01*
X0Y281D02*
X7Y281D01*
X464Y281D02*
X471Y281D01*
X0Y280D02*
X7Y280D01*
X464Y280D02*
X471Y280D01*
X0Y279D02*
X7Y279D01*
X464Y279D02*
X471Y279D01*
X0Y278D02*
X7Y278D01*
X464Y278D02*
X471Y278D01*
X0Y277D02*
X7Y277D01*
X464Y277D02*
X471Y277D01*
X0Y276D02*
X7Y276D01*
X464Y276D02*
X471Y276D01*
X0Y275D02*
X7Y275D01*
X464Y275D02*
X471Y275D01*
X0Y274D02*
X7Y274D01*
X464Y274D02*
X471Y274D01*
X0Y273D02*
X7Y273D01*
X464Y273D02*
X471Y273D01*
X0Y272D02*
X7Y272D01*
X464Y272D02*
X471Y272D01*
X0Y271D02*
X7Y271D01*
X464Y271D02*
X471Y271D01*
X0Y270D02*
X7Y270D01*
X464Y270D02*
X471Y270D01*
X0Y269D02*
X7Y269D01*
X464Y269D02*
X471Y269D01*
X0Y268D02*
X7Y268D01*
X464Y268D02*
X471Y268D01*
X0Y267D02*
X7Y267D01*
X464Y267D02*
X471Y267D01*
X0Y266D02*
X7Y266D01*
X464Y266D02*
X471Y266D01*
X0Y265D02*
X7Y265D01*
X464Y265D02*
X471Y265D01*
X0Y264D02*
X7Y264D01*
X464Y264D02*
X471Y264D01*
X0Y263D02*
X7Y263D01*
X464Y263D02*
X471Y263D01*
X0Y262D02*
X7Y262D01*
X464Y262D02*
X471Y262D01*
X0Y261D02*
X7Y261D01*
X464Y261D02*
X471Y261D01*
X0Y260D02*
X7Y260D01*
X464Y260D02*
X471Y260D01*
X0Y259D02*
X7Y259D01*
X464Y259D02*
X471Y259D01*
X0Y258D02*
X7Y258D01*
X464Y258D02*
X471Y258D01*
X0Y257D02*
X7Y257D01*
X464Y257D02*
X471Y257D01*
X0Y256D02*
X7Y256D01*
X464Y256D02*
X471Y256D01*
X0Y255D02*
X7Y255D01*
X464Y255D02*
X471Y255D01*
X0Y254D02*
X7Y254D01*
X464Y254D02*
X471Y254D01*
X0Y253D02*
X7Y253D01*
X464Y253D02*
X471Y253D01*
X0Y252D02*
X7Y252D01*
X464Y252D02*
X471Y252D01*
X0Y251D02*
X7Y251D01*
X464Y251D02*
X471Y251D01*
X0Y250D02*
X7Y250D01*
X464Y250D02*
X471Y250D01*
X0Y249D02*
X7Y249D01*
X464Y249D02*
X471Y249D01*
X0Y248D02*
X7Y248D01*
X464Y248D02*
X471Y248D01*
X0Y247D02*
X7Y247D01*
X464Y247D02*
X471Y247D01*
X0Y246D02*
X7Y246D01*
X464Y246D02*
X471Y246D01*
X0Y245D02*
X7Y245D01*
X464Y245D02*
X471Y245D01*
X0Y244D02*
X7Y244D01*
X464Y244D02*
X471Y244D01*
X0Y243D02*
X7Y243D01*
X464Y243D02*
X471Y243D01*
X0Y242D02*
X7Y242D01*
X464Y242D02*
X471Y242D01*
X0Y241D02*
X7Y241D01*
X464Y241D02*
X471Y241D01*
X0Y240D02*
X7Y240D01*
X464Y240D02*
X471Y240D01*
X0Y239D02*
X7Y239D01*
X464Y239D02*
X471Y239D01*
X0Y238D02*
X7Y238D01*
X464Y238D02*
X471Y238D01*
X0Y237D02*
X7Y237D01*
X464Y237D02*
X471Y237D01*
X0Y236D02*
X7Y236D01*
X464Y236D02*
X471Y236D01*
X0Y235D02*
X7Y235D01*
X464Y235D02*
X471Y235D01*
X0Y234D02*
X7Y234D01*
X464Y234D02*
X471Y234D01*
X0Y233D02*
X7Y233D01*
X464Y233D02*
X471Y233D01*
X0Y232D02*
X7Y232D01*
X464Y232D02*
X471Y232D01*
X0Y231D02*
X7Y231D01*
X464Y231D02*
X471Y231D01*
X0Y230D02*
X7Y230D01*
X464Y230D02*
X471Y230D01*
X0Y229D02*
X7Y229D01*
X464Y229D02*
X471Y229D01*
X0Y228D02*
X7Y228D01*
X464Y228D02*
X471Y228D01*
X0Y227D02*
X7Y227D01*
X464Y227D02*
X471Y227D01*
X0Y226D02*
X7Y226D01*
X464Y226D02*
X471Y226D01*
X0Y225D02*
X7Y225D01*
X464Y225D02*
X471Y225D01*
X0Y224D02*
X7Y224D01*
X464Y224D02*
X471Y224D01*
X0Y223D02*
X7Y223D01*
X464Y223D02*
X471Y223D01*
X0Y222D02*
X7Y222D01*
X464Y222D02*
X471Y222D01*
X0Y221D02*
X7Y221D01*
X464Y221D02*
X471Y221D01*
X0Y220D02*
X7Y220D01*
X464Y220D02*
X471Y220D01*
X0Y219D02*
X7Y219D01*
X464Y219D02*
X471Y219D01*
X0Y218D02*
X7Y218D01*
X464Y218D02*
X471Y218D01*
X0Y217D02*
X7Y217D01*
X464Y217D02*
X471Y217D01*
X0Y216D02*
X7Y216D01*
X464Y216D02*
X471Y216D01*
X0Y215D02*
X7Y215D01*
X464Y215D02*
X471Y215D01*
X0Y214D02*
X7Y214D01*
X464Y214D02*
X471Y214D01*
X0Y213D02*
X7Y213D01*
X464Y213D02*
X471Y213D01*
X0Y212D02*
X7Y212D01*
X464Y212D02*
X471Y212D01*
X0Y211D02*
X7Y211D01*
X464Y211D02*
X471Y211D01*
X0Y210D02*
X7Y210D01*
X464Y210D02*
X471Y210D01*
X0Y209D02*
X7Y209D01*
X464Y209D02*
X471Y209D01*
X0Y208D02*
X7Y208D01*
X153Y208D02*
X162Y208D01*
X464Y208D02*
X471Y208D01*
X0Y207D02*
X7Y207D01*
X153Y207D02*
X162Y207D01*
X464Y207D02*
X471Y207D01*
X0Y206D02*
X7Y206D01*
X153Y206D02*
X162Y206D01*
X464Y206D02*
X471Y206D01*
X0Y205D02*
X7Y205D01*
X153Y205D02*
X162Y205D01*
X464Y205D02*
X471Y205D01*
X0Y204D02*
X7Y204D01*
X153Y204D02*
X162Y204D01*
X464Y204D02*
X471Y204D01*
X0Y203D02*
X7Y203D01*
X153Y203D02*
X162Y203D01*
X464Y203D02*
X471Y203D01*
X0Y202D02*
X7Y202D01*
X153Y202D02*
X162Y202D01*
X464Y202D02*
X471Y202D01*
X0Y201D02*
X7Y201D01*
X153Y201D02*
X162Y201D01*
X464Y201D02*
X471Y201D01*
X0Y200D02*
X7Y200D01*
X153Y200D02*
X162Y200D01*
X464Y200D02*
X471Y200D01*
X0Y199D02*
X7Y199D01*
X153Y199D02*
X162Y199D01*
X464Y199D02*
X471Y199D01*
X0Y198D02*
X7Y198D01*
X153Y198D02*
X162Y198D01*
X464Y198D02*
X471Y198D01*
X0Y197D02*
X7Y197D01*
X153Y197D02*
X162Y197D01*
X464Y197D02*
X471Y197D01*
X0Y196D02*
X7Y196D01*
X153Y196D02*
X162Y196D01*
X464Y196D02*
X471Y196D01*
X0Y195D02*
X7Y195D01*
X153Y195D02*
X162Y195D01*
X464Y195D02*
X471Y195D01*
X0Y194D02*
X7Y194D01*
X153Y194D02*
X162Y194D01*
X464Y194D02*
X471Y194D01*
X0Y193D02*
X7Y193D01*
X153Y193D02*
X162Y193D01*
X464Y193D02*
X471Y193D01*
X0Y192D02*
X7Y192D01*
X153Y192D02*
X162Y192D01*
X464Y192D02*
X471Y192D01*
X0Y191D02*
X7Y191D01*
X153Y191D02*
X162Y191D01*
X464Y191D02*
X471Y191D01*
X0Y190D02*
X7Y190D01*
X153Y190D02*
X162Y190D01*
X464Y190D02*
X471Y190D01*
X0Y189D02*
X7Y189D01*
X153Y189D02*
X162Y189D01*
X464Y189D02*
X471Y189D01*
X0Y188D02*
X7Y188D01*
X153Y188D02*
X162Y188D01*
X464Y188D02*
X471Y188D01*
X0Y187D02*
X7Y187D01*
X153Y187D02*
X162Y187D01*
X464Y187D02*
X471Y187D01*
X0Y186D02*
X7Y186D01*
X153Y186D02*
X162Y186D01*
X464Y186D02*
X471Y186D01*
X0Y185D02*
X7Y185D01*
X153Y185D02*
X162Y185D01*
X464Y185D02*
X471Y185D01*
X0Y184D02*
X7Y184D01*
X153Y184D02*
X162Y184D01*
X464Y184D02*
X471Y184D01*
X0Y183D02*
X7Y183D01*
X153Y183D02*
X162Y183D01*
X464Y183D02*
X471Y183D01*
X0Y182D02*
X7Y182D01*
X153Y182D02*
X162Y182D01*
X464Y182D02*
X471Y182D01*
X0Y181D02*
X7Y181D01*
X153Y181D02*
X162Y181D01*
X464Y181D02*
X471Y181D01*
X0Y180D02*
X7Y180D01*
X153Y180D02*
X162Y180D01*
X464Y180D02*
X471Y180D01*
X0Y179D02*
X7Y179D01*
X153Y179D02*
X162Y179D01*
X464Y179D02*
X471Y179D01*
X0Y178D02*
X7Y178D01*
X153Y178D02*
X162Y178D01*
X464Y178D02*
X471Y178D01*
X0Y177D02*
X7Y177D01*
X153Y177D02*
X162Y177D01*
X464Y177D02*
X471Y177D01*
X0Y176D02*
X7Y176D01*
X153Y176D02*
X162Y176D01*
X464Y176D02*
X471Y176D01*
X0Y175D02*
X7Y175D01*
X464Y175D02*
X471Y175D01*
X0Y174D02*
X7Y174D01*
X464Y174D02*
X471Y174D01*
X0Y173D02*
X7Y173D01*
X464Y173D02*
X471Y173D01*
X0Y172D02*
X7Y172D01*
X464Y172D02*
X471Y172D01*
X0Y171D02*
X7Y171D01*
X464Y171D02*
X471Y171D01*
X0Y170D02*
X7Y170D01*
X464Y170D02*
X471Y170D01*
X0Y169D02*
X7Y169D01*
X464Y169D02*
X471Y169D01*
X0Y168D02*
X7Y168D01*
X464Y168D02*
X471Y168D01*
X0Y167D02*
X7Y167D01*
X464Y167D02*
X471Y167D01*
X0Y166D02*
X7Y166D01*
X464Y166D02*
X471Y166D01*
X0Y165D02*
X7Y165D01*
X464Y165D02*
X471Y165D01*
X0Y164D02*
X7Y164D01*
X464Y164D02*
X471Y164D01*
X0Y163D02*
X7Y163D01*
X464Y163D02*
X471Y163D01*
X0Y162D02*
X7Y162D01*
X464Y162D02*
X471Y162D01*
X0Y161D02*
X7Y161D01*
X464Y161D02*
X471Y161D01*
X0Y160D02*
X7Y160D01*
X464Y160D02*
X471Y160D01*
X0Y159D02*
X7Y159D01*
X464Y159D02*
X471Y159D01*
X0Y158D02*
X7Y158D01*
X464Y158D02*
X471Y158D01*
X0Y157D02*
X7Y157D01*
X464Y157D02*
X471Y157D01*
X0Y156D02*
X7Y156D01*
X464Y156D02*
X471Y156D01*
X0Y155D02*
X7Y155D01*
X464Y155D02*
X471Y155D01*
X0Y154D02*
X7Y154D01*
X464Y154D02*
X471Y154D01*
X0Y153D02*
X7Y153D01*
X464Y153D02*
X471Y153D01*
X0Y152D02*
X7Y152D01*
X464Y152D02*
X471Y152D01*
X0Y151D02*
X7Y151D01*
X464Y151D02*
X471Y151D01*
X0Y150D02*
X7Y150D01*
X464Y150D02*
X471Y150D01*
X0Y149D02*
X7Y149D01*
X464Y149D02*
X471Y149D01*
X0Y148D02*
X7Y148D01*
X464Y148D02*
X471Y148D01*
X0Y147D02*
X7Y147D01*
X464Y147D02*
X471Y147D01*
X0Y146D02*
X7Y146D01*
X464Y146D02*
X471Y146D01*
X0Y145D02*
X7Y145D01*
X464Y145D02*
X471Y145D01*
X0Y144D02*
X7Y144D01*
X464Y144D02*
X471Y144D01*
X0Y143D02*
X7Y143D01*
X464Y143D02*
X471Y143D01*
X0Y142D02*
X7Y142D01*
X464Y142D02*
X471Y142D01*
X0Y141D02*
X7Y141D01*
X464Y141D02*
X471Y141D01*
X0Y140D02*
X7Y140D01*
X464Y140D02*
X471Y140D01*
X0Y139D02*
X7Y139D01*
X464Y139D02*
X471Y139D01*
X0Y138D02*
X7Y138D01*
X464Y138D02*
X471Y138D01*
X0Y137D02*
X7Y137D01*
X464Y137D02*
X471Y137D01*
X0Y136D02*
X7Y136D01*
X464Y136D02*
X471Y136D01*
X0Y135D02*
X7Y135D01*
X464Y135D02*
X471Y135D01*
X0Y134D02*
X7Y134D01*
X464Y134D02*
X471Y134D01*
X0Y133D02*
X7Y133D01*
X464Y133D02*
X471Y133D01*
X0Y132D02*
X7Y132D01*
X464Y132D02*
X471Y132D01*
X0Y131D02*
X7Y131D01*
X464Y131D02*
X471Y131D01*
X0Y130D02*
X7Y130D01*
X464Y130D02*
X471Y130D01*
X0Y129D02*
X7Y129D01*
X464Y129D02*
X471Y129D01*
X0Y128D02*
X7Y128D01*
X464Y128D02*
X471Y128D01*
X0Y127D02*
X7Y127D01*
X464Y127D02*
X471Y127D01*
X0Y126D02*
X7Y126D01*
X464Y126D02*
X471Y126D01*
X0Y125D02*
X7Y125D01*
X153Y125D02*
X162Y125D01*
X464Y125D02*
X471Y125D01*
X0Y124D02*
X7Y124D01*
X153Y124D02*
X162Y124D01*
X464Y124D02*
X471Y124D01*
X0Y123D02*
X7Y123D01*
X153Y123D02*
X162Y123D01*
X464Y123D02*
X471Y123D01*
X0Y122D02*
X7Y122D01*
X153Y122D02*
X162Y122D01*
X464Y122D02*
X471Y122D01*
X0Y121D02*
X7Y121D01*
X153Y121D02*
X162Y121D01*
X464Y121D02*
X471Y121D01*
X0Y120D02*
X7Y120D01*
X153Y120D02*
X162Y120D01*
X464Y120D02*
X471Y120D01*
X0Y119D02*
X7Y119D01*
X153Y119D02*
X162Y119D01*
X464Y119D02*
X471Y119D01*
X0Y118D02*
X7Y118D01*
X153Y118D02*
X162Y118D01*
X464Y118D02*
X471Y118D01*
X0Y117D02*
X7Y117D01*
X153Y117D02*
X162Y117D01*
X464Y117D02*
X471Y117D01*
X0Y116D02*
X7Y116D01*
X153Y116D02*
X162Y116D01*
X464Y116D02*
X471Y116D01*
X0Y115D02*
X7Y115D01*
X153Y115D02*
X162Y115D01*
X464Y115D02*
X471Y115D01*
X0Y114D02*
X7Y114D01*
X153Y114D02*
X162Y114D01*
X464Y114D02*
X471Y114D01*
X0Y113D02*
X7Y113D01*
X153Y113D02*
X162Y113D01*
X464Y113D02*
X471Y113D01*
X0Y112D02*
X7Y112D01*
X153Y112D02*
X162Y112D01*
X464Y112D02*
X471Y112D01*
X0Y111D02*
X7Y111D01*
X153Y111D02*
X162Y111D01*
X464Y111D02*
X471Y111D01*
X0Y110D02*
X7Y110D01*
X153Y110D02*
X162Y110D01*
X464Y110D02*
X471Y110D01*
X0Y109D02*
X7Y109D01*
X153Y109D02*
X162Y109D01*
X464Y109D02*
X471Y109D01*
X0Y108D02*
X7Y108D01*
X153Y108D02*
X162Y108D01*
X464Y108D02*
X471Y108D01*
X0Y107D02*
X7Y107D01*
X153Y107D02*
X162Y107D01*
X464Y107D02*
X471Y107D01*
X0Y106D02*
X7Y106D01*
X153Y106D02*
X162Y106D01*
X464Y106D02*
X471Y106D01*
X0Y105D02*
X7Y105D01*
X153Y105D02*
X162Y105D01*
X303Y105D02*
X312Y105D01*
X464Y105D02*
X471Y105D01*
X0Y104D02*
X7Y104D01*
X153Y104D02*
X162Y104D01*
X303Y104D02*
X312Y104D01*
X464Y104D02*
X471Y104D01*
X0Y103D02*
X7Y103D01*
X153Y103D02*
X162Y103D01*
X303Y103D02*
X312Y103D01*
X464Y103D02*
X471Y103D01*
X0Y102D02*
X7Y102D01*
X153Y102D02*
X162Y102D01*
X303Y102D02*
X312Y102D01*
X464Y102D02*
X471Y102D01*
X0Y101D02*
X7Y101D01*
X153Y101D02*
X162Y101D01*
X303Y101D02*
X312Y101D01*
X464Y101D02*
X471Y101D01*
X0Y100D02*
X7Y100D01*
X153Y100D02*
X162Y100D01*
X303Y100D02*
X312Y100D01*
X464Y100D02*
X471Y100D01*
X0Y99D02*
X7Y99D01*
X153Y99D02*
X162Y99D01*
X303Y99D02*
X312Y99D01*
X464Y99D02*
X471Y99D01*
X0Y98D02*
X7Y98D01*
X153Y98D02*
X162Y98D01*
X303Y98D02*
X312Y98D01*
X464Y98D02*
X471Y98D01*
X0Y97D02*
X7Y97D01*
X153Y97D02*
X162Y97D01*
X303Y97D02*
X303Y97D01*
X312Y97D02*
X312Y97D01*
X464Y97D02*
X471Y97D01*
X0Y96D02*
X7Y96D01*
X153Y96D02*
X162Y96D01*
X464Y96D02*
X471Y96D01*
X0Y95D02*
X7Y95D01*
X153Y95D02*
X162Y95D01*
X464Y95D02*
X471Y95D01*
X0Y94D02*
X7Y94D01*
X153Y94D02*
X162Y94D01*
X464Y94D02*
X471Y94D01*
X0Y93D02*
X7Y93D01*
X464Y93D02*
X471Y93D01*
X0Y92D02*
X7Y92D01*
X464Y92D02*
X471Y92D01*
X0Y91D02*
X7Y91D01*
X464Y91D02*
X471Y91D01*
X0Y90D02*
X7Y90D01*
X464Y90D02*
X471Y90D01*
X0Y89D02*
X7Y89D01*
X464Y89D02*
X471Y89D01*
X0Y88D02*
X7Y88D01*
X464Y88D02*
X471Y88D01*
X0Y87D02*
X7Y87D01*
X464Y87D02*
X471Y87D01*
X0Y86D02*
X7Y86D01*
X464Y86D02*
X471Y86D01*
X0Y85D02*
X7Y85D01*
X464Y85D02*
X471Y85D01*
X0Y84D02*
X7Y84D01*
X464Y84D02*
X471Y84D01*
X0Y83D02*
X7Y83D01*
X464Y83D02*
X471Y83D01*
X0Y82D02*
X7Y82D01*
X464Y82D02*
X471Y82D01*
X0Y81D02*
X7Y81D01*
X464Y81D02*
X471Y81D01*
X0Y80D02*
X7Y80D01*
X464Y80D02*
X471Y80D01*
X0Y79D02*
X7Y79D01*
X464Y79D02*
X471Y79D01*
X0Y78D02*
X7Y78D01*
X464Y78D02*
X471Y78D01*
X0Y77D02*
X7Y77D01*
X464Y77D02*
X471Y77D01*
X0Y76D02*
X7Y76D01*
X464Y76D02*
X471Y76D01*
X0Y75D02*
X7Y75D01*
X464Y75D02*
X471Y75D01*
X0Y74D02*
X7Y74D01*
X464Y74D02*
X471Y74D01*
X0Y73D02*
X7Y73D01*
X464Y73D02*
X471Y73D01*
X0Y72D02*
X7Y72D01*
X464Y72D02*
X471Y72D01*
X0Y71D02*
X7Y71D01*
X464Y71D02*
X471Y71D01*
X0Y70D02*
X7Y70D01*
X464Y70D02*
X471Y70D01*
X0Y69D02*
X7Y69D01*
X464Y69D02*
X471Y69D01*
X0Y68D02*
X7Y68D01*
X464Y68D02*
X471Y68D01*
X0Y67D02*
X7Y67D01*
X464Y67D02*
X471Y67D01*
X0Y66D02*
X7Y66D01*
X464Y66D02*
X471Y66D01*
X0Y65D02*
X7Y65D01*
X464Y65D02*
X471Y65D01*
X0Y64D02*
X7Y64D01*
X464Y64D02*
X471Y64D01*
X0Y63D02*
X7Y63D01*
X464Y63D02*
X471Y63D01*
X0Y62D02*
X7Y62D01*
X464Y62D02*
X471Y62D01*
X0Y61D02*
X7Y61D01*
X464Y61D02*
X471Y61D01*
X0Y60D02*
X7Y60D01*
X464Y60D02*
X471Y60D01*
X0Y59D02*
X7Y59D01*
X464Y59D02*
X471Y59D01*
X0Y58D02*
X7Y58D01*
X464Y58D02*
X471Y58D01*
X0Y57D02*
X7Y57D01*
X464Y57D02*
X471Y57D01*
X0Y56D02*
X7Y56D01*
X464Y56D02*
X471Y56D01*
X0Y55D02*
X7Y55D01*
X464Y55D02*
X471Y55D01*
X0Y54D02*
X7Y54D01*
X464Y54D02*
X471Y54D01*
X0Y53D02*
X7Y53D01*
X464Y53D02*
X471Y53D01*
X0Y52D02*
X7Y52D01*
X464Y52D02*
X471Y52D01*
X0Y51D02*
X7Y51D01*
X464Y51D02*
X471Y51D01*
X0Y50D02*
X7Y50D01*
X464Y50D02*
X471Y50D01*
X0Y49D02*
X7Y49D01*
X464Y49D02*
X471Y49D01*
X0Y48D02*
X7Y48D01*
X464Y48D02*
X471Y48D01*
X0Y47D02*
X7Y47D01*
X464Y47D02*
X471Y47D01*
X0Y46D02*
X7Y46D01*
X464Y46D02*
X471Y46D01*
X0Y45D02*
X7Y45D01*
X464Y45D02*
X471Y45D01*
X0Y44D02*
X7Y44D01*
X464Y44D02*
X471Y44D01*
X0Y43D02*
X7Y43D01*
X464Y43D02*
X471Y43D01*
X0Y42D02*
X7Y42D01*
X464Y42D02*
X471Y42D01*
X0Y41D02*
X7Y41D01*
X464Y41D02*
X471Y41D01*
X0Y40D02*
X7Y40D01*
X464Y40D02*
X471Y40D01*
X0Y39D02*
X7Y39D01*
X464Y39D02*
X471Y39D01*
X0Y38D02*
X7Y38D01*
X464Y38D02*
X471Y38D01*
X0Y37D02*
X7Y37D01*
X464Y37D02*
X471Y37D01*
X0Y36D02*
X7Y36D01*
X464Y36D02*
X471Y36D01*
X0Y35D02*
X7Y35D01*
X464Y35D02*
X471Y35D01*
X0Y34D02*
X7Y34D01*
X464Y34D02*
X471Y34D01*
X0Y33D02*
X7Y33D01*
X464Y33D02*
X471Y33D01*
X0Y32D02*
X7Y32D01*
X464Y32D02*
X471Y32D01*
X0Y31D02*
X7Y31D01*
X464Y31D02*
X471Y31D01*
X0Y30D02*
X7Y30D01*
X464Y30D02*
X471Y30D01*
X0Y29D02*
X7Y29D01*
X464Y29D02*
X471Y29D01*
X0Y28D02*
X7Y28D01*
X464Y28D02*
X471Y28D01*
X0Y27D02*
X7Y27D01*
X464Y27D02*
X471Y27D01*
X0Y26D02*
X7Y26D01*
X464Y26D02*
X471Y26D01*
X0Y25D02*
X7Y25D01*
X464Y25D02*
X471Y25D01*
X0Y24D02*
X7Y24D01*
X464Y24D02*
X471Y24D01*
X0Y23D02*
X7Y23D01*
X464Y23D02*
X471Y23D01*
X0Y22D02*
X7Y22D01*
X464Y22D02*
X471Y22D01*
X0Y21D02*
X7Y21D01*
X464Y21D02*
X471Y21D01*
X0Y20D02*
X7Y20D01*
X464Y20D02*
X471Y20D01*
X0Y19D02*
X7Y19D01*
X464Y19D02*
X471Y19D01*
X0Y18D02*
X7Y18D01*
X464Y18D02*
X471Y18D01*
X0Y17D02*
X7Y17D01*
X464Y17D02*
X471Y17D01*
X0Y16D02*
X7Y16D01*
X464Y16D02*
X471Y16D01*
X0Y15D02*
X7Y15D01*
X464Y15D02*
X471Y15D01*
X0Y14D02*
X7Y14D01*
X464Y14D02*
X471Y14D01*
X0Y13D02*
X7Y13D01*
X464Y13D02*
X471Y13D01*
X0Y12D02*
X7Y12D01*
X464Y12D02*
X471Y12D01*
X0Y11D02*
X7Y11D01*
X464Y11D02*
X471Y11D01*
X0Y10D02*
X7Y10D01*
X464Y10D02*
X471Y10D01*
X0Y9D02*
X155Y9D01*
X160Y9D02*
X261Y9D01*
X354Y9D02*
X471Y9D01*
X0Y8D02*
X261Y8D01*
X354Y8D02*
X471Y8D01*
X0Y7D02*
X261Y7D01*
X354Y7D02*
X471Y7D01*
X0Y6D02*
X261Y6D01*
X354Y6D02*
X471Y6D01*
X0Y5D02*
X261Y5D01*
X354Y5D02*
X471Y5D01*
X0Y4D02*
X471Y4D01*
X0Y3D02*
X471Y3D01*
X0Y2D02*
X471Y2D01*
D02*
G04 End of Silk0*
M02*