G04 MADE WITH FRITZING*
G04 WWW.FRITZING.ORG*
G04 DOUBLE SIDED*
G04 HOLES PLATED*
G04 CONTOUR ON CENTER OF CONTOUR VECTOR*
%ASAXBY*%
%FSLAX23Y23*%
%MOIN*%
%OFA0B0*%
%SFA1.0B1.0*%
%ADD10C,0.086614*%
%ADD11C,0.082000*%
%ADD12C,0.075000*%
%ADD13R,0.082000X0.082000*%
%ADD14R,0.035433X0.031496*%
%ADD15C,0.024000*%
%ADD16R,0.001000X0.001000*%
%LNCOPPER1*%
G90*
G70*
G54D10*
X58Y100D03*
X58Y200D03*
X58Y300D03*
X408Y148D03*
X408Y248D03*
G54D11*
X308Y50D03*
X308Y348D03*
X308Y50D03*
X308Y348D03*
G54D12*
X158Y50D03*
X158Y250D03*
X158Y50D03*
X158Y250D03*
G54D13*
X308Y49D03*
X308Y49D03*
G54D14*
X208Y225D03*
X208Y150D03*
X287Y187D03*
G54D15*
X58Y50D02*
X130Y50D01*
D02*
X58Y69D02*
X58Y50D01*
D02*
X107Y199D02*
X89Y200D01*
D02*
X138Y230D02*
X107Y199D01*
D02*
X406Y48D02*
X408Y117D01*
D02*
X340Y49D02*
X406Y48D01*
D02*
X406Y346D02*
X408Y279D01*
D02*
X340Y347D02*
X406Y346D01*
D02*
X58Y349D02*
X58Y331D01*
D02*
X276Y348D02*
X58Y349D01*
D02*
X292Y177D02*
X306Y148D01*
D02*
X306Y148D02*
X308Y82D01*
D02*
X158Y100D02*
X158Y79D01*
D02*
X198Y140D02*
X158Y100D01*
D02*
X184Y237D02*
X196Y231D01*
G54D16*
X220Y325D02*
X223Y325D01*
X219Y324D02*
X225Y324D01*
X218Y323D02*
X226Y323D01*
X217Y322D02*
X226Y322D01*
X217Y321D02*
X226Y321D01*
X217Y320D02*
X226Y320D01*
X217Y319D02*
X226Y319D01*
X217Y318D02*
X226Y318D01*
X217Y317D02*
X226Y317D01*
X217Y316D02*
X226Y316D01*
X217Y315D02*
X226Y315D01*
X217Y314D02*
X226Y314D01*
X217Y313D02*
X226Y313D01*
X217Y312D02*
X226Y312D01*
X217Y311D02*
X226Y311D01*
X217Y310D02*
X226Y310D01*
X217Y309D02*
X226Y309D01*
X217Y308D02*
X226Y308D01*
X217Y307D02*
X226Y307D01*
X217Y306D02*
X226Y306D01*
X200Y305D02*
X244Y305D01*
X199Y304D02*
X245Y304D01*
X198Y303D02*
X246Y303D01*
X198Y302D02*
X246Y302D01*
X197Y301D02*
X246Y301D01*
X198Y300D02*
X246Y300D01*
X198Y299D02*
X246Y299D01*
X198Y298D02*
X245Y298D01*
X199Y297D02*
X244Y297D01*
X201Y296D02*
X243Y296D01*
X217Y295D02*
X226Y295D01*
X217Y294D02*
X226Y294D01*
X217Y293D02*
X226Y293D01*
X217Y292D02*
X226Y292D01*
X217Y291D02*
X226Y291D01*
X217Y290D02*
X226Y290D01*
X217Y289D02*
X226Y289D01*
X217Y288D02*
X226Y288D01*
X217Y287D02*
X226Y287D01*
X217Y286D02*
X226Y286D01*
X217Y285D02*
X226Y285D01*
X217Y284D02*
X226Y284D01*
X217Y283D02*
X226Y283D01*
X217Y282D02*
X226Y282D01*
X217Y281D02*
X226Y281D01*
X217Y280D02*
X226Y280D01*
X218Y279D02*
X226Y279D01*
X218Y278D02*
X225Y278D01*
X219Y277D02*
X224Y277D01*
X221Y276D02*
X222Y276D01*
X202Y93D02*
X246Y93D01*
X201Y92D02*
X247Y92D01*
X200Y91D02*
X248Y91D01*
X200Y90D02*
X248Y90D01*
X200Y89D02*
X248Y89D01*
X200Y88D02*
X248Y88D01*
X200Y87D02*
X248Y87D01*
X200Y86D02*
X248Y86D01*
X200Y85D02*
X248Y85D01*
X200Y84D02*
X248Y84D01*
X200Y83D02*
X248Y83D01*
X200Y82D02*
X248Y82D01*
X201Y81D02*
X247Y81D01*
X202Y80D02*
X245Y80D01*
D02*
G04 End of Copper1*
M02*