G04 MADE WITH FRITZING*
G04 WWW.FRITZING.ORG*
G04 DOUBLE SIDED*
G04 HOLES PLATED*
G04 CONTOUR ON CENTER OF CONTOUR VECTOR*
%ASAXBY*%
%FSLAX23Y23*%
%MOIN*%
%OFA0B0*%
%SFA1.0B1.0*%
%ADD10C,0.096614*%
%ADD11C,0.092000*%
%ADD12C,0.042000*%
%ADD13C,0.085000*%
%ADD14R,0.092000X0.092000*%
%ADD15R,0.001000X0.001000*%
%LNMASK0*%
G90*
G70*
G54D10*
X58Y100D03*
X58Y200D03*
X58Y300D03*
X408Y148D03*
X408Y248D03*
G54D11*
X308Y50D03*
G54D12*
X308Y348D03*
G54D11*
X308Y50D03*
G54D12*
X308Y348D03*
G54D13*
X158Y50D03*
X158Y250D03*
X158Y50D03*
X158Y250D03*
G54D14*
X308Y49D03*
X308Y49D03*
G54D15*
X301Y394D02*
X314Y394D01*
X296Y393D02*
X319Y393D01*
X293Y392D02*
X322Y392D01*
X290Y391D02*
X325Y391D01*
X288Y390D02*
X327Y390D01*
X286Y389D02*
X329Y389D01*
X284Y388D02*
X331Y388D01*
X283Y387D02*
X332Y387D01*
X281Y386D02*
X334Y386D01*
X280Y385D02*
X335Y385D01*
X279Y384D02*
X336Y384D01*
X278Y383D02*
X338Y383D01*
X276Y382D02*
X339Y382D01*
X275Y381D02*
X340Y381D01*
X274Y380D02*
X341Y380D01*
X274Y379D02*
X342Y379D01*
X273Y378D02*
X342Y378D01*
X272Y377D02*
X343Y377D01*
X271Y376D02*
X344Y376D01*
X270Y375D02*
X345Y375D01*
X270Y374D02*
X345Y374D01*
X269Y373D02*
X346Y373D01*
X269Y372D02*
X347Y372D01*
X268Y371D02*
X347Y371D01*
X267Y370D02*
X348Y370D01*
X267Y369D02*
X348Y369D01*
X266Y368D02*
X349Y368D01*
X266Y367D02*
X349Y367D01*
X265Y366D02*
X350Y366D01*
X265Y365D02*
X350Y365D01*
X265Y364D02*
X350Y364D01*
X264Y363D02*
X351Y363D01*
X264Y362D02*
X351Y362D01*
X264Y361D02*
X351Y361D01*
X264Y360D02*
X352Y360D01*
X263Y359D02*
X352Y359D01*
X263Y358D02*
X352Y358D01*
X263Y357D02*
X352Y357D01*
X263Y356D02*
X352Y356D01*
X263Y355D02*
X352Y355D01*
X262Y354D02*
X353Y354D01*
X262Y353D02*
X353Y353D01*
X262Y352D02*
X353Y352D01*
X262Y351D02*
X353Y351D01*
X262Y350D02*
X353Y350D01*
X262Y349D02*
X353Y349D01*
X262Y348D02*
X353Y348D01*
X262Y347D02*
X353Y347D01*
X262Y346D02*
X353Y346D01*
X262Y345D02*
X353Y345D01*
X262Y344D02*
X353Y344D01*
X263Y343D02*
X353Y343D01*
X263Y342D02*
X352Y342D01*
X263Y341D02*
X352Y341D01*
X263Y340D02*
X352Y340D01*
X263Y339D02*
X352Y339D01*
X263Y338D02*
X352Y338D01*
X264Y337D02*
X351Y337D01*
X264Y336D02*
X351Y336D01*
X264Y335D02*
X351Y335D01*
X265Y334D02*
X351Y334D01*
X265Y333D02*
X350Y333D01*
X265Y332D02*
X350Y332D01*
X266Y331D02*
X349Y331D01*
X266Y330D02*
X349Y330D01*
X267Y329D02*
X348Y329D01*
X267Y328D02*
X348Y328D01*
X268Y327D02*
X347Y327D01*
X268Y326D02*
X347Y326D01*
X269Y325D02*
X346Y325D01*
X269Y324D02*
X346Y324D01*
X270Y323D02*
X345Y323D01*
X271Y322D02*
X344Y322D01*
X272Y321D02*
X344Y321D01*
X272Y320D02*
X343Y320D01*
X273Y319D02*
X342Y319D01*
X274Y318D02*
X341Y318D01*
X275Y317D02*
X340Y317D01*
X276Y316D02*
X339Y316D01*
X277Y315D02*
X338Y315D01*
X278Y314D02*
X337Y314D01*
X279Y313D02*
X336Y313D01*
X281Y312D02*
X334Y312D01*
X282Y311D02*
X333Y311D01*
X284Y310D02*
X331Y310D01*
X285Y309D02*
X330Y309D01*
X287Y308D02*
X328Y308D01*
X289Y307D02*
X326Y307D01*
X292Y306D02*
X324Y306D01*
X294Y305D02*
X321Y305D01*
X298Y304D02*
X317Y304D01*
X306Y303D02*
X309Y303D01*
D02*
G04 End of Mask0*
M02*