G04 MADE WITH FRITZING*
G04 WWW.FRITZING.ORG*
G04 DOUBLE SIDED*
G04 HOLES PLATED*
G04 CONTOUR ON CENTER OF CONTOUR VECTOR*
%ASAXBY*%
%FSLAX23Y23*%
%MOIN*%
%OFA0B0*%
%SFA1.0B1.0*%
%ADD10C,0.070000*%
%ADD11C,0.066111*%
%ADD12C,0.078000*%
%ADD13R,0.070000X0.069972*%
%ADD14R,0.078000X0.078000*%
%ADD15C,0.024000*%
%LNCOPPER0*%
G90*
G70*
G54D10*
X1784Y795D03*
X1684Y795D03*
X1584Y795D03*
X1484Y795D03*
X1384Y795D03*
X1284Y795D03*
X1184Y795D03*
X1084Y795D03*
X984Y795D03*
X884Y795D03*
X784Y795D03*
X684Y795D03*
X584Y795D03*
X484Y795D03*
X384Y795D03*
X1784Y195D03*
X1684Y195D03*
X1584Y195D03*
X1484Y195D03*
X1384Y195D03*
X1284Y195D03*
X1184Y195D03*
X1084Y195D03*
X984Y195D03*
X884Y195D03*
X784Y195D03*
X684Y195D03*
X584Y195D03*
X484Y195D03*
X384Y195D03*
G54D11*
X2234Y445D03*
X2334Y445D03*
X2534Y445D03*
X2434Y445D03*
G54D12*
X2084Y1095D03*
X2084Y995D03*
X2084Y895D03*
X2084Y795D03*
X2084Y695D03*
X2084Y595D03*
X2084Y495D03*
X2084Y395D03*
X2534Y95D03*
X2434Y95D03*
X2334Y95D03*
X2234Y95D03*
X2534Y295D03*
X2434Y295D03*
X2334Y295D03*
X2234Y295D03*
X2234Y595D03*
X2334Y595D03*
X2434Y595D03*
X2534Y595D03*
X2234Y1095D03*
X2234Y995D03*
X2234Y895D03*
X2234Y795D03*
X1784Y95D03*
X1684Y95D03*
X1584Y95D03*
X1484Y95D03*
X1384Y95D03*
X1284Y95D03*
X1184Y95D03*
X1084Y95D03*
X1484Y1095D03*
X1384Y1095D03*
X1284Y1095D03*
X1184Y1095D03*
X1084Y1095D03*
X984Y1095D03*
X884Y1095D03*
X784Y1095D03*
X684Y1095D03*
X584Y1095D03*
X484Y1095D03*
X384Y1095D03*
X684Y295D03*
X1684Y295D03*
X1784Y295D03*
X684Y645D03*
X1584Y1095D03*
X1884Y1095D03*
X884Y495D03*
X884Y395D03*
X184Y295D03*
X284Y295D03*
X1984Y995D03*
X1484Y995D03*
X1984Y895D03*
X1984Y795D03*
X1784Y695D03*
X1084Y595D03*
X984Y95D03*
X884Y95D03*
X784Y95D03*
X684Y95D03*
X584Y95D03*
X484Y95D03*
X384Y95D03*
X1784Y895D03*
X1684Y895D03*
X1584Y895D03*
X1484Y895D03*
X1384Y895D03*
X1284Y895D03*
X1184Y895D03*
X1084Y895D03*
X984Y895D03*
X884Y895D03*
X784Y895D03*
X684Y895D03*
X584Y895D03*
X484Y895D03*
X384Y895D03*
X1684Y1095D03*
X1784Y1095D03*
X84Y645D03*
X84Y545D03*
G54D13*
X1784Y795D03*
G54D14*
X2084Y1095D03*
G54D15*
X1684Y1065D02*
X1684Y925D01*
D02*
X1784Y1065D02*
X1784Y925D01*
D02*
X1385Y794D02*
X1385Y865D01*
D02*
X1404Y773D02*
X1385Y794D01*
D02*
X2234Y125D02*
X2234Y265D01*
D02*
X2334Y125D02*
X2334Y265D01*
D02*
X2534Y125D02*
X2534Y265D01*
D02*
X386Y795D02*
X385Y865D01*
D02*
X409Y780D02*
X386Y795D01*
D02*
X486Y795D02*
X485Y865D01*
D02*
X510Y781D02*
X486Y795D01*
D02*
X584Y895D02*
X557Y909D01*
D02*
X584Y824D02*
X584Y895D01*
D02*
X685Y895D02*
X714Y897D01*
D02*
X685Y824D02*
X685Y895D01*
D02*
X784Y895D02*
X754Y899D01*
D02*
X784Y824D02*
X784Y895D01*
D02*
X885Y895D02*
X914Y899D01*
D02*
X884Y824D02*
X885Y895D01*
D02*
X984Y895D02*
X954Y897D01*
D02*
X984Y824D02*
X984Y895D01*
D02*
X1084Y895D02*
X1113Y905D01*
D02*
X1084Y824D02*
X1084Y895D01*
D02*
X1183Y895D02*
X1154Y897D01*
D02*
X1184Y824D02*
X1183Y895D01*
D02*
X1283Y895D02*
X1259Y879D01*
D02*
X1284Y824D02*
X1283Y895D01*
D02*
X1484Y865D02*
X1484Y824D01*
D02*
X1584Y795D02*
X1584Y865D01*
D02*
X1564Y774D02*
X1584Y795D01*
D02*
X1684Y795D02*
X1684Y865D01*
D02*
X1666Y773D02*
X1684Y795D01*
D02*
X1414Y1095D02*
X1454Y1095D01*
D02*
X1354Y1095D02*
X1314Y1095D01*
D02*
X1214Y1095D02*
X1254Y1095D01*
D02*
X1114Y1095D02*
X1154Y1095D01*
D02*
X1014Y1095D02*
X1054Y1095D01*
D02*
X914Y1095D02*
X954Y1095D01*
D02*
X814Y1095D02*
X854Y1095D01*
D02*
X714Y1095D02*
X754Y1095D01*
D02*
X614Y1095D02*
X654Y1095D01*
D02*
X514Y1095D02*
X554Y1095D01*
D02*
X414Y1095D02*
X454Y1095D01*
D02*
X654Y645D02*
X384Y645D01*
D02*
X285Y1094D02*
X354Y1095D01*
D02*
X285Y746D02*
X285Y1094D01*
D02*
X384Y645D02*
X285Y746D01*
D02*
X386Y145D02*
X385Y125D01*
D02*
X385Y166D02*
X386Y145D01*
D02*
X486Y94D02*
X505Y73D01*
D02*
X485Y166D02*
X486Y94D01*
D02*
X586Y94D02*
X606Y74D01*
D02*
X585Y166D02*
X586Y94D01*
D02*
X686Y94D02*
X706Y75D01*
D02*
X685Y166D02*
X686Y94D01*
D02*
X783Y145D02*
X783Y125D01*
D02*
X783Y166D02*
X783Y145D01*
D02*
X883Y145D02*
X883Y125D01*
D02*
X883Y166D02*
X883Y145D01*
D02*
X983Y145D02*
X983Y125D01*
D02*
X984Y166D02*
X983Y145D01*
D02*
X2204Y1095D02*
X2114Y1095D01*
D02*
X2533Y946D02*
X2385Y1094D01*
D02*
X2385Y1094D02*
X2264Y1095D01*
D02*
X2534Y625D02*
X2533Y946D01*
D02*
X2204Y995D02*
X2114Y995D01*
D02*
X2435Y895D02*
X2333Y996D01*
D02*
X2333Y996D02*
X2264Y995D01*
D02*
X2434Y625D02*
X2435Y895D01*
D02*
X2204Y895D02*
X2114Y895D01*
D02*
X2334Y895D02*
X2264Y895D01*
D02*
X2334Y625D02*
X2334Y895D01*
D02*
X2114Y795D02*
X2204Y795D01*
D02*
X2235Y696D02*
X2235Y765D01*
D02*
X2235Y625D02*
X2235Y696D01*
D02*
X2534Y473D02*
X2534Y565D01*
D02*
X2535Y446D02*
X2546Y470D01*
D02*
X2534Y325D02*
X2535Y446D01*
D02*
X2434Y473D02*
X2434Y565D01*
D02*
X2434Y95D02*
X2434Y418D01*
D02*
X2434Y265D02*
X2434Y95D01*
D02*
X2334Y473D02*
X2334Y565D01*
D02*
X2334Y418D02*
X2334Y325D01*
D02*
X2235Y346D02*
X2235Y325D01*
D02*
X2234Y418D02*
X2235Y346D01*
D02*
X2234Y473D02*
X2234Y565D01*
D02*
X1484Y996D02*
X1484Y1094D01*
D02*
X1484Y1094D02*
X1414Y1095D01*
D02*
X1484Y925D02*
X1484Y996D01*
D02*
X1084Y125D02*
X1084Y166D01*
D02*
X1184Y125D02*
X1184Y166D01*
D02*
X1284Y125D02*
X1284Y166D01*
D02*
X1384Y125D02*
X1384Y166D01*
D02*
X1484Y125D02*
X1484Y166D01*
D02*
X1584Y125D02*
X1584Y166D01*
D02*
X1684Y125D02*
X1684Y166D01*
D02*
X1784Y125D02*
X1784Y166D01*
D02*
X685Y296D02*
X685Y224D01*
D02*
X703Y319D02*
X685Y296D01*
D02*
X1785Y796D02*
X1785Y865D01*
D02*
X1812Y805D02*
X1785Y796D01*
D02*
X1484Y596D02*
X1484Y224D01*
D02*
X1884Y596D02*
X1484Y596D01*
D02*
X1884Y1094D02*
X1884Y596D01*
D02*
X2054Y1095D02*
X1884Y1094D01*
D02*
X2054Y995D02*
X2014Y995D01*
D02*
X2054Y895D02*
X2014Y895D01*
D02*
X1183Y695D02*
X1754Y695D01*
D02*
X1184Y224D02*
X1183Y695D01*
D02*
X1084Y565D02*
X1084Y224D01*
D02*
X2054Y795D02*
X2014Y795D01*
D02*
X1784Y265D02*
X1784Y224D01*
D02*
X1684Y265D02*
X1684Y224D01*
D02*
X334Y396D02*
X854Y395D01*
D02*
X184Y546D02*
X334Y396D01*
D02*
X114Y546D02*
X184Y546D01*
D02*
X254Y295D02*
X214Y295D01*
D02*
X1514Y1095D02*
X1554Y1095D01*
D02*
X114Y645D02*
X184Y645D01*
D02*
X334Y495D02*
X854Y495D01*
D02*
X184Y645D02*
X334Y495D01*
G04 End of Copper0*
M02*