; NON-PLATED HOLES START AT T1
; THROUGH (PLATED) HOLES START AT T100
M48
INCH
T1C0.086614
T100C0.032778
T101C0.038000
T102C0.036000
%
T1
X000842Y010953
X000842Y000953
X026842Y010953
X026842Y000953
T100
X024342Y004453
X025343Y004453
X022342Y004453
X023342Y004453
T101
X025342Y005953
X000842Y006453
X008842Y004953
X022343Y000953
X020842Y003953
X013842Y000953
X023343Y000953
X014842Y000953
X004842Y000953
X008842Y003953
X011842Y008953
X014842Y008953
X015842Y010953
X011842Y000953
X009842Y000953
X025343Y002953
X019842Y009953
X025343Y000953
X015842Y000953
X009842Y008953
X004842Y008953
X007842Y008953
X017842Y006953
X016842Y002953
X010842Y010953
X020842Y010953
X006842Y008953
X020842Y005953
X008842Y008953
X000842Y005453
X018842Y010953
X003842Y010953
X006842Y010953
X007842Y000953
X017842Y008953
X010842Y005953
X006842Y002953
X012842Y010953
X020842Y008953
X016842Y000953
X022342Y005953
X005842Y008953
X012842Y008953
X004842Y010953
X003842Y008953
X006842Y006453
X008842Y010953
X017842Y000953
X012842Y000953
X014842Y010953
X024343Y000953
X022342Y010953
X020842Y006953
X010842Y000953
X019842Y007953
X007842Y010953
X024343Y002953
X022343Y002953
X014842Y009953
X001842Y002953
X019842Y008953
X008842Y000953
X022342Y008953
X013842Y010953
X005842Y010953
X017842Y002953
X003842Y000953
X015842Y008953
X017842Y010953
X013842Y008953
X005842Y000953
X011842Y010953
X023343Y002953
X016842Y010953
X010842Y008953
X002842Y002953
X024342Y005953
X020842Y007953
X022342Y007953
X020842Y009953
X023342Y005953
X009842Y010953
X022342Y009953
X020842Y004953
X016842Y008953
X006842Y000953
T102
X004842Y001953
X014842Y001953
X004842Y007953
X013842Y007953
X009842Y001953
X006842Y007953
X005842Y001953
X016842Y001953
X012842Y001953
X007842Y007953
X015842Y007953
X015842Y001953
X009842Y007953
X008842Y007953
X012842Y007953
X011842Y007953
X006842Y001953
X003842Y007953
X008842Y001953
X017842Y007953
X007842Y001953
X017842Y001953
X016842Y007953
X005842Y007953
X014842Y007953
X003842Y001953
X010842Y007953
X010842Y001953
X011842Y001953
X013842Y001953
T00
M30
