G04 MADE WITH FRITZING*
G04 WWW.FRITZING.ORG*
G04 DOUBLE SIDED*
G04 HOLES PLATED*
G04 CONTOUR ON CENTER OF CONTOUR VECTOR*
%ASAXBY*%
%FSLAX23Y23*%
%MOIN*%
%OFA0B0*%
%SFA1.0B1.0*%
%ADD10C,0.070000*%
%ADD11C,0.066111*%
%ADD12C,0.078000*%
%ADD13R,0.070000X0.069972*%
%ADD14R,0.078000X0.078000*%
%ADD15C,0.024000*%
%ADD16R,0.001000X0.001000*%
%LNCOPPER1*%
G90*
G70*
G54D10*
X1784Y795D03*
X1684Y795D03*
X1584Y795D03*
X1484Y795D03*
X1384Y795D03*
X1284Y795D03*
X1184Y795D03*
X1084Y795D03*
X984Y795D03*
X884Y795D03*
X784Y795D03*
X684Y795D03*
X584Y795D03*
X484Y795D03*
X384Y795D03*
X1784Y195D03*
X1684Y195D03*
X1584Y195D03*
X1484Y195D03*
X1384Y195D03*
X1284Y195D03*
X1184Y195D03*
X1084Y195D03*
X984Y195D03*
X884Y195D03*
X784Y195D03*
X684Y195D03*
X584Y195D03*
X484Y195D03*
X384Y195D03*
G54D11*
X2234Y445D03*
X2334Y445D03*
X2534Y445D03*
X2434Y445D03*
G54D12*
X2084Y1095D03*
X2084Y995D03*
X2084Y895D03*
X2084Y795D03*
X2084Y695D03*
X2084Y595D03*
X2084Y495D03*
X2084Y395D03*
X2534Y95D03*
X2434Y95D03*
X2334Y95D03*
X2234Y95D03*
X2534Y295D03*
X2434Y295D03*
X2334Y295D03*
X2234Y295D03*
X2234Y595D03*
X2334Y595D03*
X2434Y595D03*
X2534Y595D03*
X2234Y1095D03*
X2234Y995D03*
X2234Y895D03*
X2234Y795D03*
X1784Y95D03*
X1684Y95D03*
X1584Y95D03*
X1484Y95D03*
X1384Y95D03*
X1284Y95D03*
X1184Y95D03*
X1084Y95D03*
X684Y295D03*
X984Y95D03*
X884Y95D03*
X784Y95D03*
X684Y95D03*
X584Y95D03*
X484Y95D03*
X384Y95D03*
X1784Y895D03*
X1684Y895D03*
X1584Y895D03*
X1484Y895D03*
X1384Y895D03*
X1284Y895D03*
X1184Y895D03*
X1084Y895D03*
X984Y895D03*
X884Y895D03*
X784Y895D03*
X684Y895D03*
X584Y895D03*
X484Y895D03*
X384Y895D03*
X1684Y1095D03*
X1784Y1095D03*
X84Y645D03*
X84Y545D03*
X1984Y995D03*
X1484Y995D03*
X1484Y1095D03*
X1384Y1095D03*
X1284Y1095D03*
X1184Y1095D03*
X1084Y1095D03*
X984Y1095D03*
X884Y1095D03*
X784Y1095D03*
X684Y1095D03*
X584Y1095D03*
X484Y1095D03*
X384Y1095D03*
X1984Y895D03*
X1784Y695D03*
X1084Y595D03*
X1984Y795D03*
X884Y495D03*
X884Y395D03*
X1684Y295D03*
X1784Y295D03*
X184Y295D03*
X284Y295D03*
X684Y645D03*
X1584Y1095D03*
X1884Y1095D03*
G54D13*
X1784Y795D03*
G54D14*
X2084Y1095D03*
G54D15*
X1954Y995D02*
X1514Y995D01*
D02*
X1884Y695D02*
X1884Y895D01*
D02*
X1785Y695D02*
X1884Y695D01*
D02*
X1884Y895D02*
X1954Y895D01*
D02*
X1809Y678D02*
X1785Y695D01*
D02*
X1985Y796D02*
X2054Y795D01*
D02*
X1985Y596D02*
X1985Y796D01*
D02*
X1114Y595D02*
X1985Y596D01*
D02*
X1684Y396D02*
X1684Y325D01*
D02*
X914Y395D02*
X1684Y396D01*
D02*
X914Y495D02*
X1785Y495D01*
D02*
X1785Y495D02*
X1784Y325D01*
D02*
X1514Y1095D02*
X1554Y1095D01*
D02*
X1414Y1095D02*
X1454Y1095D01*
D02*
X1314Y1095D02*
X1354Y1095D01*
D02*
X414Y1095D02*
X1254Y1095D01*
D02*
X1484Y1065D02*
X1484Y925D01*
D02*
X1784Y265D02*
X1784Y224D01*
D02*
X1684Y265D02*
X1684Y224D01*
D02*
X1784Y166D02*
X1784Y125D01*
D02*
X1684Y166D02*
X1684Y125D01*
D02*
X1584Y166D02*
X1584Y125D01*
D02*
X1484Y166D02*
X1484Y125D01*
D02*
X1384Y166D02*
X1384Y125D01*
D02*
X1284Y166D02*
X1284Y125D01*
D02*
X1184Y166D02*
X1184Y125D01*
D02*
X1084Y166D02*
X1084Y125D01*
D02*
X984Y166D02*
X984Y125D01*
D02*
X884Y166D02*
X884Y125D01*
D02*
X784Y166D02*
X784Y125D01*
D02*
X584Y166D02*
X584Y125D01*
D02*
X684Y166D02*
X684Y125D01*
D02*
X684Y265D02*
X684Y224D01*
D02*
X484Y166D02*
X484Y125D01*
D02*
X384Y166D02*
X384Y125D01*
G54D16*
X225Y1113D02*
X280Y1113D01*
X223Y1112D02*
X281Y1112D01*
X222Y1111D02*
X282Y1111D01*
X222Y1110D02*
X283Y1110D01*
X221Y1109D02*
X283Y1109D01*
X221Y1108D02*
X283Y1108D01*
X221Y1107D02*
X283Y1107D01*
X221Y1106D02*
X283Y1106D01*
X221Y1105D02*
X283Y1105D01*
X221Y1104D02*
X283Y1104D01*
X221Y1103D02*
X283Y1103D01*
X221Y1102D02*
X283Y1102D01*
X221Y1101D02*
X283Y1101D01*
X221Y1100D02*
X283Y1100D01*
X222Y1099D02*
X283Y1099D01*
X222Y1098D02*
X282Y1098D01*
X223Y1097D02*
X281Y1097D01*
X225Y1096D02*
X280Y1096D01*
X2417Y1070D02*
X2448Y1070D01*
X2414Y1069D02*
X2451Y1069D01*
X2412Y1068D02*
X2453Y1068D01*
X2410Y1067D02*
X2455Y1067D01*
X2409Y1066D02*
X2456Y1066D01*
X2408Y1065D02*
X2457Y1065D01*
X2407Y1064D02*
X2458Y1064D01*
X2406Y1063D02*
X2459Y1063D01*
X2405Y1062D02*
X2459Y1062D01*
X2405Y1061D02*
X2460Y1061D01*
X2404Y1060D02*
X2461Y1060D01*
X2404Y1059D02*
X2461Y1059D01*
X2403Y1058D02*
X2461Y1058D01*
X2403Y1057D02*
X2418Y1057D01*
X2447Y1057D02*
X2462Y1057D01*
X2403Y1056D02*
X2416Y1056D01*
X2449Y1056D02*
X2462Y1056D01*
X2403Y1055D02*
X2415Y1055D01*
X2450Y1055D02*
X2462Y1055D01*
X2402Y1054D02*
X2415Y1054D01*
X2450Y1054D02*
X2462Y1054D01*
X2402Y1053D02*
X2414Y1053D01*
X2451Y1053D02*
X2463Y1053D01*
X2402Y1052D02*
X2414Y1052D01*
X2451Y1052D02*
X2463Y1052D01*
X2402Y1051D02*
X2414Y1051D01*
X2451Y1051D02*
X2463Y1051D01*
X2402Y1050D02*
X2414Y1050D01*
X2451Y1050D02*
X2463Y1050D01*
X2402Y1049D02*
X2414Y1049D01*
X2451Y1049D02*
X2463Y1049D01*
X2402Y1048D02*
X2414Y1048D01*
X2451Y1048D02*
X2463Y1048D01*
X2402Y1047D02*
X2414Y1047D01*
X2451Y1047D02*
X2463Y1047D01*
X2402Y1046D02*
X2414Y1046D01*
X2451Y1046D02*
X2463Y1046D01*
X2402Y1045D02*
X2414Y1045D01*
X2451Y1045D02*
X2463Y1045D01*
X2402Y1044D02*
X2414Y1044D01*
X2451Y1044D02*
X2463Y1044D01*
X2402Y1043D02*
X2414Y1043D01*
X2451Y1043D02*
X2463Y1043D01*
X2402Y1042D02*
X2414Y1042D01*
X2451Y1042D02*
X2463Y1042D01*
X2402Y1041D02*
X2414Y1041D01*
X2451Y1041D02*
X2463Y1041D01*
X2402Y1040D02*
X2414Y1040D01*
X2451Y1040D02*
X2463Y1040D01*
X2402Y1039D02*
X2414Y1039D01*
X2451Y1039D02*
X2463Y1039D01*
X2402Y1038D02*
X2414Y1038D01*
X2451Y1038D02*
X2463Y1038D01*
X2402Y1037D02*
X2414Y1037D01*
X2451Y1037D02*
X2463Y1037D01*
X2402Y1036D02*
X2414Y1036D01*
X2451Y1036D02*
X2463Y1036D01*
X2402Y1035D02*
X2414Y1035D01*
X2451Y1035D02*
X2463Y1035D01*
X2402Y1034D02*
X2414Y1034D01*
X2451Y1034D02*
X2463Y1034D01*
X2402Y1033D02*
X2414Y1033D01*
X2451Y1033D02*
X2463Y1033D01*
X2402Y1032D02*
X2414Y1032D01*
X2451Y1032D02*
X2463Y1032D01*
X2402Y1031D02*
X2414Y1031D01*
X2451Y1031D02*
X2463Y1031D01*
X2402Y1030D02*
X2414Y1030D01*
X2451Y1030D02*
X2463Y1030D01*
X2402Y1029D02*
X2414Y1029D01*
X2451Y1029D02*
X2463Y1029D01*
X2402Y1028D02*
X2414Y1028D01*
X2451Y1028D02*
X2463Y1028D01*
X2402Y1027D02*
X2414Y1027D01*
X2451Y1027D02*
X2463Y1027D01*
X2402Y1026D02*
X2414Y1026D01*
X2451Y1026D02*
X2463Y1026D01*
X2402Y1025D02*
X2414Y1025D01*
X2451Y1025D02*
X2463Y1025D01*
X2402Y1024D02*
X2414Y1024D01*
X2451Y1024D02*
X2463Y1024D01*
X2402Y1023D02*
X2414Y1023D01*
X2451Y1023D02*
X2463Y1023D01*
X2402Y1022D02*
X2414Y1022D01*
X2451Y1022D02*
X2463Y1022D01*
X2402Y1021D02*
X2414Y1021D01*
X2451Y1021D02*
X2463Y1021D01*
X2402Y1020D02*
X2495Y1020D01*
X2402Y1019D02*
X2498Y1019D01*
X2402Y1018D02*
X2499Y1018D01*
X2402Y1017D02*
X2499Y1017D01*
X2402Y1016D02*
X2500Y1016D01*
X2402Y1015D02*
X2500Y1015D01*
X2402Y1014D02*
X2500Y1014D01*
X2402Y1013D02*
X2500Y1013D01*
X2402Y1012D02*
X2500Y1012D01*
X2402Y1011D02*
X2500Y1011D01*
X2402Y1010D02*
X2499Y1010D01*
X2402Y1009D02*
X2498Y1009D01*
X2402Y1008D02*
X2497Y1008D01*
X2402Y978D02*
X2497Y978D01*
X2402Y977D02*
X2498Y977D01*
X2402Y976D02*
X2499Y976D01*
X2402Y975D02*
X2500Y975D01*
X2402Y974D02*
X2500Y974D01*
X2402Y973D02*
X2500Y973D01*
X2402Y972D02*
X2500Y972D01*
X2402Y971D02*
X2500Y971D01*
X2402Y970D02*
X2500Y970D01*
X2402Y969D02*
X2500Y969D01*
X2402Y968D02*
X2499Y968D01*
X2402Y967D02*
X2498Y967D01*
X2402Y966D02*
X2496Y966D01*
X2402Y965D02*
X2420Y965D01*
X2402Y964D02*
X2421Y964D01*
X2402Y963D02*
X2423Y963D01*
X2403Y962D02*
X2424Y962D01*
X2404Y961D02*
X2426Y961D01*
X2406Y960D02*
X2427Y960D01*
X2407Y959D02*
X2429Y959D01*
X2409Y958D02*
X2430Y958D01*
X2410Y957D02*
X2431Y957D01*
X2412Y956D02*
X2433Y956D01*
X2413Y955D02*
X2434Y955D01*
X2414Y954D02*
X2436Y954D01*
X2416Y953D02*
X2442Y953D01*
X2417Y952D02*
X2444Y952D01*
X2419Y951D02*
X2445Y951D01*
X2420Y950D02*
X2446Y950D01*
X2422Y949D02*
X2446Y949D01*
X2423Y948D02*
X2446Y948D01*
X2424Y947D02*
X2447Y947D01*
X2423Y946D02*
X2446Y946D01*
X2422Y945D02*
X2446Y945D01*
X2420Y944D02*
X2446Y944D01*
X2419Y943D02*
X2445Y943D01*
X2417Y942D02*
X2444Y942D01*
X2416Y941D02*
X2443Y941D01*
X2415Y940D02*
X2436Y940D01*
X2413Y939D02*
X2435Y939D01*
X2412Y938D02*
X2433Y938D01*
X2410Y937D02*
X2432Y937D01*
X2409Y936D02*
X2430Y936D01*
X2407Y935D02*
X2429Y935D01*
X2406Y934D02*
X2428Y934D01*
X2405Y933D02*
X2426Y933D01*
X2403Y932D02*
X2425Y932D01*
X2402Y931D02*
X2423Y931D01*
X2402Y930D02*
X2422Y930D01*
X2402Y929D02*
X2420Y929D01*
X2402Y928D02*
X2495Y928D01*
X2402Y927D02*
X2497Y927D01*
X2402Y926D02*
X2499Y926D01*
X2402Y925D02*
X2499Y925D01*
X2402Y924D02*
X2500Y924D01*
X2402Y923D02*
X2500Y923D01*
X2402Y922D02*
X2500Y922D01*
X2402Y921D02*
X2500Y921D01*
X2402Y920D02*
X2500Y920D01*
X2402Y919D02*
X2500Y919D01*
X2402Y918D02*
X2499Y918D01*
X2402Y917D02*
X2498Y917D01*
X2402Y916D02*
X2497Y916D01*
X2446Y886D02*
X2456Y886D01*
X2443Y885D02*
X2460Y885D01*
X2440Y884D02*
X2463Y884D01*
X2438Y883D02*
X2465Y883D01*
X2436Y882D02*
X2467Y882D01*
X2434Y881D02*
X2469Y881D01*
X2432Y880D02*
X2471Y880D01*
X2430Y879D02*
X2473Y879D01*
X2428Y878D02*
X2475Y878D01*
X2426Y877D02*
X2477Y877D01*
X2424Y876D02*
X2479Y876D01*
X2422Y875D02*
X2481Y875D01*
X2420Y874D02*
X2483Y874D01*
X2418Y873D02*
X2446Y873D01*
X2456Y873D02*
X2485Y873D01*
X2416Y872D02*
X2444Y872D01*
X2459Y872D02*
X2487Y872D01*
X2414Y871D02*
X2442Y871D01*
X2461Y871D02*
X2489Y871D01*
X2412Y870D02*
X2440Y870D01*
X2463Y870D02*
X2491Y870D01*
X2410Y869D02*
X2438Y869D01*
X2465Y869D02*
X2493Y869D01*
X2409Y868D02*
X2436Y868D01*
X2467Y868D02*
X2494Y868D01*
X2408Y867D02*
X2434Y867D01*
X2469Y867D02*
X2495Y867D01*
X2407Y866D02*
X2432Y866D01*
X2471Y866D02*
X2496Y866D01*
X2406Y865D02*
X2430Y865D01*
X2473Y865D02*
X2497Y865D01*
X2405Y864D02*
X2428Y864D01*
X2475Y864D02*
X2498Y864D01*
X2404Y863D02*
X2426Y863D01*
X2477Y863D02*
X2498Y863D01*
X2404Y862D02*
X2424Y862D01*
X2479Y862D02*
X2499Y862D01*
X2403Y861D02*
X2422Y861D01*
X2481Y861D02*
X2499Y861D01*
X2403Y860D02*
X2420Y860D01*
X2483Y860D02*
X2500Y860D01*
X2403Y859D02*
X2418Y859D01*
X2485Y859D02*
X2500Y859D01*
X2403Y858D02*
X2416Y858D01*
X2487Y858D02*
X2500Y858D01*
X2402Y857D02*
X2415Y857D01*
X2488Y857D02*
X2500Y857D01*
X2402Y856D02*
X2414Y856D01*
X2488Y856D02*
X2500Y856D01*
X2402Y855D02*
X2414Y855D01*
X2489Y855D02*
X2500Y855D01*
X2402Y854D02*
X2414Y854D01*
X2489Y854D02*
X2500Y854D01*
X2402Y853D02*
X2415Y853D01*
X2488Y853D02*
X2500Y853D01*
X2402Y852D02*
X2416Y852D01*
X2487Y852D02*
X2500Y852D01*
X2403Y851D02*
X2417Y851D01*
X2486Y851D02*
X2500Y851D01*
X2403Y850D02*
X2419Y850D01*
X2484Y850D02*
X2500Y850D01*
X2403Y849D02*
X2421Y849D01*
X2482Y849D02*
X2499Y849D01*
X2404Y848D02*
X2423Y848D01*
X2480Y848D02*
X2499Y848D01*
X2404Y847D02*
X2425Y847D01*
X2478Y847D02*
X2499Y847D01*
X2405Y846D02*
X2427Y846D01*
X2476Y846D02*
X2498Y846D01*
X2406Y845D02*
X2429Y845D01*
X2474Y845D02*
X2497Y845D01*
X2406Y844D02*
X2431Y844D01*
X2472Y844D02*
X2496Y844D01*
X2407Y843D02*
X2433Y843D01*
X2470Y843D02*
X2496Y843D01*
X2408Y842D02*
X2435Y842D01*
X2468Y842D02*
X2494Y842D01*
X2410Y841D02*
X2437Y841D01*
X2466Y841D02*
X2493Y841D01*
X2411Y840D02*
X2439Y840D01*
X2464Y840D02*
X2492Y840D01*
X2413Y839D02*
X2441Y839D01*
X2462Y839D02*
X2490Y839D01*
X2415Y838D02*
X2443Y838D01*
X2460Y838D02*
X2488Y838D01*
X2417Y837D02*
X2446Y837D01*
X2457Y837D02*
X2486Y837D01*
X2419Y836D02*
X2484Y836D01*
X2421Y835D02*
X2482Y835D01*
X2423Y834D02*
X2480Y834D01*
X2425Y833D02*
X2478Y833D01*
X2427Y832D02*
X2475Y832D01*
X2429Y831D02*
X2473Y831D01*
X2431Y830D02*
X2471Y830D01*
X2433Y829D02*
X2469Y829D01*
X2435Y828D02*
X2467Y828D01*
X2437Y827D02*
X2465Y827D01*
X2439Y826D02*
X2463Y826D01*
X2442Y825D02*
X2461Y825D01*
X2445Y824D02*
X2458Y824D01*
X2406Y794D02*
X2410Y794D01*
X2493Y794D02*
X2497Y794D01*
X2405Y793D02*
X2412Y793D01*
X2491Y793D02*
X2498Y793D01*
X2404Y792D02*
X2413Y792D01*
X2490Y792D02*
X2499Y792D01*
X2403Y791D02*
X2413Y791D01*
X2489Y791D02*
X2500Y791D01*
X2403Y790D02*
X2414Y790D01*
X2489Y790D02*
X2500Y790D01*
X2402Y789D02*
X2414Y789D01*
X2489Y789D02*
X2500Y789D01*
X82Y788D02*
X86Y788D01*
X2402Y788D02*
X2414Y788D01*
X2489Y788D02*
X2501Y788D01*
X80Y787D02*
X88Y787D01*
X2402Y787D02*
X2414Y787D01*
X2489Y787D02*
X2501Y787D01*
X80Y786D02*
X89Y786D01*
X2402Y786D02*
X2414Y786D01*
X2489Y786D02*
X2501Y786D01*
X79Y785D02*
X89Y785D01*
X2402Y785D02*
X2414Y785D01*
X2489Y785D02*
X2501Y785D01*
X78Y784D02*
X90Y784D01*
X2402Y784D02*
X2414Y784D01*
X2489Y784D02*
X2501Y784D01*
X78Y783D02*
X90Y783D01*
X2402Y783D02*
X2414Y783D01*
X2489Y783D02*
X2501Y783D01*
X78Y782D02*
X90Y782D01*
X2402Y782D02*
X2414Y782D01*
X2489Y782D02*
X2501Y782D01*
X78Y781D02*
X90Y781D01*
X2402Y781D02*
X2414Y781D01*
X2489Y781D02*
X2501Y781D01*
X78Y780D02*
X90Y780D01*
X2402Y780D02*
X2414Y780D01*
X2489Y780D02*
X2501Y780D01*
X78Y779D02*
X90Y779D01*
X2402Y779D02*
X2414Y779D01*
X2489Y779D02*
X2501Y779D01*
X78Y778D02*
X90Y778D01*
X2402Y778D02*
X2414Y778D01*
X2489Y778D02*
X2501Y778D01*
X78Y777D02*
X90Y777D01*
X2402Y777D02*
X2414Y777D01*
X2489Y777D02*
X2501Y777D01*
X78Y776D02*
X90Y776D01*
X2402Y776D02*
X2414Y776D01*
X2489Y776D02*
X2501Y776D01*
X78Y775D02*
X90Y775D01*
X2402Y775D02*
X2414Y775D01*
X2489Y775D02*
X2501Y775D01*
X78Y774D02*
X90Y774D01*
X2402Y774D02*
X2414Y774D01*
X2489Y774D02*
X2501Y774D01*
X78Y773D02*
X90Y773D01*
X2402Y773D02*
X2414Y773D01*
X2489Y773D02*
X2501Y773D01*
X78Y772D02*
X90Y772D01*
X2402Y772D02*
X2414Y772D01*
X2489Y772D02*
X2501Y772D01*
X78Y771D02*
X90Y771D01*
X2402Y771D02*
X2414Y771D01*
X2489Y771D02*
X2501Y771D01*
X78Y770D02*
X90Y770D01*
X2402Y770D02*
X2414Y770D01*
X2489Y770D02*
X2501Y770D01*
X78Y769D02*
X90Y769D01*
X2402Y769D02*
X2414Y769D01*
X2489Y769D02*
X2501Y769D01*
X78Y768D02*
X90Y768D01*
X2402Y768D02*
X2414Y768D01*
X2489Y768D02*
X2501Y768D01*
X78Y767D02*
X90Y767D01*
X2402Y767D02*
X2414Y767D01*
X2489Y767D02*
X2501Y767D01*
X78Y766D02*
X90Y766D01*
X2402Y766D02*
X2414Y766D01*
X2489Y766D02*
X2501Y766D01*
X78Y765D02*
X90Y765D01*
X2402Y765D02*
X2414Y765D01*
X2489Y765D02*
X2501Y765D01*
X78Y764D02*
X90Y764D01*
X2402Y764D02*
X2414Y764D01*
X2489Y764D02*
X2500Y764D01*
X57Y763D02*
X111Y763D01*
X2402Y763D02*
X2414Y763D01*
X2488Y763D02*
X2500Y763D01*
X55Y762D02*
X113Y762D01*
X2402Y762D02*
X2415Y762D01*
X2488Y762D02*
X2500Y762D01*
X54Y761D02*
X114Y761D01*
X2403Y761D02*
X2415Y761D01*
X2488Y761D02*
X2500Y761D01*
X54Y760D02*
X114Y760D01*
X2403Y760D02*
X2416Y760D01*
X2487Y760D02*
X2500Y760D01*
X53Y759D02*
X115Y759D01*
X2403Y759D02*
X2417Y759D01*
X2485Y759D02*
X2500Y759D01*
X53Y758D02*
X115Y758D01*
X2403Y758D02*
X2419Y758D01*
X2484Y758D02*
X2499Y758D01*
X53Y757D02*
X115Y757D01*
X2404Y757D02*
X2421Y757D01*
X2482Y757D02*
X2499Y757D01*
X53Y756D02*
X115Y756D01*
X2404Y756D02*
X2423Y756D01*
X2480Y756D02*
X2498Y756D01*
X53Y755D02*
X115Y755D01*
X2405Y755D02*
X2425Y755D01*
X2478Y755D02*
X2498Y755D01*
X54Y754D02*
X115Y754D01*
X2405Y754D02*
X2427Y754D01*
X2476Y754D02*
X2497Y754D01*
X54Y753D02*
X114Y753D01*
X2406Y753D02*
X2429Y753D01*
X2474Y753D02*
X2497Y753D01*
X55Y752D02*
X113Y752D01*
X2407Y752D02*
X2431Y752D01*
X2472Y752D02*
X2496Y752D01*
X57Y751D02*
X111Y751D01*
X2407Y751D02*
X2433Y751D01*
X2470Y751D02*
X2495Y751D01*
X78Y750D02*
X90Y750D01*
X2408Y750D02*
X2435Y750D01*
X2468Y750D02*
X2494Y750D01*
X78Y749D02*
X90Y749D01*
X2410Y749D02*
X2437Y749D01*
X2466Y749D02*
X2493Y749D01*
X78Y748D02*
X90Y748D01*
X2411Y748D02*
X2439Y748D01*
X2464Y748D02*
X2491Y748D01*
X78Y747D02*
X90Y747D01*
X2413Y747D02*
X2441Y747D01*
X2462Y747D02*
X2489Y747D01*
X78Y746D02*
X90Y746D01*
X2415Y746D02*
X2443Y746D01*
X2460Y746D02*
X2487Y746D01*
X78Y745D02*
X90Y745D01*
X2417Y745D02*
X2445Y745D01*
X2457Y745D02*
X2486Y745D01*
X78Y744D02*
X90Y744D01*
X2419Y744D02*
X2484Y744D01*
X78Y743D02*
X90Y743D01*
X2421Y743D02*
X2482Y743D01*
X78Y742D02*
X90Y742D01*
X2423Y742D02*
X2480Y742D01*
X78Y741D02*
X90Y741D01*
X2425Y741D02*
X2478Y741D01*
X78Y740D02*
X90Y740D01*
X2427Y740D02*
X2476Y740D01*
X78Y739D02*
X90Y739D01*
X2429Y739D02*
X2474Y739D01*
X78Y738D02*
X90Y738D01*
X2431Y738D02*
X2472Y738D01*
X78Y737D02*
X90Y737D01*
X2433Y737D02*
X2470Y737D01*
X78Y736D02*
X90Y736D01*
X2435Y736D02*
X2468Y736D01*
X78Y735D02*
X90Y735D01*
X2437Y735D02*
X2466Y735D01*
X78Y734D02*
X90Y734D01*
X2439Y734D02*
X2463Y734D01*
X78Y733D02*
X90Y733D01*
X2442Y733D02*
X2461Y733D01*
X78Y732D02*
X90Y732D01*
X2445Y732D02*
X2458Y732D01*
X78Y731D02*
X90Y731D01*
X78Y730D02*
X90Y730D01*
X79Y729D02*
X89Y729D01*
X79Y728D02*
X89Y728D01*
X80Y727D02*
X88Y727D01*
X82Y726D02*
X86Y726D01*
X638Y547D02*
X669Y547D01*
X710Y547D02*
X712Y547D01*
X635Y546D02*
X671Y546D01*
X708Y546D02*
X714Y546D01*
X633Y545D02*
X673Y545D01*
X707Y545D02*
X715Y545D01*
X632Y544D02*
X674Y544D01*
X706Y544D02*
X715Y544D01*
X631Y543D02*
X675Y543D01*
X706Y543D02*
X716Y543D01*
X631Y542D02*
X676Y542D01*
X706Y542D02*
X716Y542D01*
X630Y541D02*
X676Y541D01*
X706Y541D02*
X716Y541D01*
X630Y540D02*
X677Y540D01*
X706Y540D02*
X716Y540D01*
X629Y539D02*
X677Y539D01*
X706Y539D02*
X716Y539D01*
X629Y538D02*
X677Y538D01*
X706Y538D02*
X716Y538D01*
X629Y537D02*
X677Y537D01*
X706Y537D02*
X716Y537D01*
X629Y536D02*
X678Y536D01*
X706Y536D02*
X716Y536D01*
X629Y535D02*
X639Y535D01*
X667Y535D02*
X678Y535D01*
X706Y535D02*
X716Y535D01*
X629Y534D02*
X639Y534D01*
X667Y534D02*
X678Y534D01*
X706Y534D02*
X716Y534D01*
X629Y533D02*
X639Y533D01*
X667Y533D02*
X678Y533D01*
X706Y533D02*
X716Y533D01*
X629Y532D02*
X639Y532D01*
X667Y532D02*
X678Y532D01*
X706Y532D02*
X716Y532D01*
X629Y531D02*
X639Y531D01*
X667Y531D02*
X678Y531D01*
X706Y531D02*
X716Y531D01*
X629Y530D02*
X639Y530D01*
X667Y530D02*
X678Y530D01*
X706Y530D02*
X716Y530D01*
X629Y529D02*
X639Y529D01*
X667Y529D02*
X678Y529D01*
X706Y529D02*
X716Y529D01*
X629Y528D02*
X639Y528D01*
X667Y528D02*
X678Y528D01*
X706Y528D02*
X716Y528D01*
X629Y527D02*
X639Y527D01*
X667Y527D02*
X678Y527D01*
X706Y527D02*
X716Y527D01*
X629Y526D02*
X639Y526D01*
X667Y526D02*
X678Y526D01*
X706Y526D02*
X716Y526D01*
X629Y525D02*
X639Y525D01*
X667Y525D02*
X678Y525D01*
X706Y525D02*
X716Y525D01*
X629Y524D02*
X639Y524D01*
X667Y524D02*
X678Y524D01*
X706Y524D02*
X716Y524D01*
X629Y523D02*
X639Y523D01*
X667Y523D02*
X678Y523D01*
X706Y523D02*
X716Y523D01*
X629Y522D02*
X639Y522D01*
X667Y522D02*
X678Y522D01*
X706Y522D02*
X716Y522D01*
X629Y521D02*
X639Y521D01*
X667Y521D02*
X678Y521D01*
X706Y521D02*
X716Y521D01*
X629Y520D02*
X639Y520D01*
X667Y520D02*
X678Y520D01*
X706Y520D02*
X716Y520D01*
X629Y519D02*
X639Y519D01*
X667Y519D02*
X678Y519D01*
X706Y519D02*
X716Y519D01*
X629Y518D02*
X639Y518D01*
X667Y518D02*
X678Y518D01*
X706Y518D02*
X716Y518D01*
X629Y517D02*
X639Y517D01*
X667Y517D02*
X678Y517D01*
X706Y517D02*
X716Y517D01*
X629Y516D02*
X639Y516D01*
X667Y516D02*
X678Y516D01*
X706Y516D02*
X716Y516D01*
X629Y515D02*
X639Y515D01*
X667Y515D02*
X678Y515D01*
X706Y515D02*
X716Y515D01*
X629Y514D02*
X639Y514D01*
X667Y514D02*
X678Y514D01*
X706Y514D02*
X716Y514D01*
X629Y513D02*
X639Y513D01*
X667Y513D02*
X678Y513D01*
X706Y513D02*
X716Y513D01*
X629Y512D02*
X639Y512D01*
X667Y512D02*
X678Y512D01*
X706Y512D02*
X716Y512D01*
X629Y511D02*
X639Y511D01*
X667Y511D02*
X678Y511D01*
X706Y511D02*
X716Y511D01*
X629Y510D02*
X639Y510D01*
X667Y510D02*
X678Y510D01*
X706Y510D02*
X716Y510D01*
X629Y509D02*
X639Y509D01*
X667Y509D02*
X678Y509D01*
X706Y509D02*
X716Y509D01*
X629Y508D02*
X639Y508D01*
X667Y508D02*
X678Y508D01*
X706Y508D02*
X716Y508D01*
X629Y507D02*
X639Y507D01*
X667Y507D02*
X678Y507D01*
X706Y507D02*
X716Y507D01*
X629Y506D02*
X639Y506D01*
X667Y506D02*
X678Y506D01*
X706Y506D02*
X716Y506D01*
X629Y505D02*
X639Y505D01*
X667Y505D02*
X678Y505D01*
X706Y505D02*
X716Y505D01*
X629Y504D02*
X639Y504D01*
X667Y504D02*
X678Y504D01*
X706Y504D02*
X716Y504D01*
X629Y503D02*
X639Y503D01*
X667Y503D02*
X678Y503D01*
X706Y503D02*
X716Y503D01*
X629Y502D02*
X639Y502D01*
X667Y502D02*
X716Y502D01*
X629Y501D02*
X639Y501D01*
X667Y501D02*
X716Y501D01*
X629Y500D02*
X639Y500D01*
X667Y500D02*
X716Y500D01*
X629Y499D02*
X639Y499D01*
X668Y499D02*
X716Y499D01*
X629Y498D02*
X639Y498D01*
X668Y498D02*
X716Y498D01*
X629Y497D02*
X639Y497D01*
X669Y497D02*
X716Y497D01*
X629Y496D02*
X639Y496D01*
X669Y496D02*
X716Y496D01*
X629Y495D02*
X639Y495D01*
X670Y495D02*
X716Y495D01*
X629Y494D02*
X639Y494D01*
X671Y494D02*
X716Y494D01*
X630Y493D02*
X638Y493D01*
X672Y493D02*
X716Y493D01*
X631Y492D02*
X637Y492D01*
X674Y492D02*
X716Y492D01*
X633Y491D02*
X634Y491D01*
X677Y491D02*
X716Y491D01*
X643Y465D02*
X654Y465D01*
X710Y465D02*
X712Y465D01*
X639Y464D02*
X657Y464D01*
X708Y464D02*
X714Y464D01*
X637Y463D02*
X659Y463D01*
X706Y463D02*
X715Y463D01*
X636Y462D02*
X661Y462D01*
X704Y462D02*
X715Y462D01*
X635Y461D02*
X662Y461D01*
X702Y461D02*
X716Y461D01*
X634Y460D02*
X663Y460D01*
X701Y460D02*
X716Y460D01*
X633Y459D02*
X664Y459D01*
X699Y459D02*
X716Y459D01*
X632Y458D02*
X665Y458D01*
X697Y458D02*
X716Y458D01*
X631Y457D02*
X665Y457D01*
X696Y457D02*
X716Y457D01*
X631Y456D02*
X666Y456D01*
X694Y456D02*
X715Y456D01*
X630Y455D02*
X667Y455D01*
X692Y455D02*
X714Y455D01*
X630Y454D02*
X667Y454D01*
X690Y454D02*
X712Y454D01*
X629Y453D02*
X642Y453D01*
X655Y453D02*
X667Y453D01*
X689Y453D02*
X711Y453D01*
X629Y452D02*
X641Y452D01*
X656Y452D02*
X668Y452D01*
X687Y452D02*
X709Y452D01*
X629Y451D02*
X640Y451D01*
X657Y451D02*
X668Y451D01*
X685Y451D02*
X707Y451D01*
X629Y450D02*
X640Y450D01*
X657Y450D02*
X668Y450D01*
X684Y450D02*
X705Y450D01*
X629Y449D02*
X639Y449D01*
X657Y449D02*
X668Y449D01*
X682Y449D02*
X704Y449D01*
X629Y448D02*
X639Y448D01*
X658Y448D02*
X668Y448D01*
X680Y448D02*
X702Y448D01*
X629Y447D02*
X639Y447D01*
X658Y447D02*
X668Y447D01*
X678Y447D02*
X700Y447D01*
X629Y446D02*
X639Y446D01*
X658Y446D02*
X668Y446D01*
X677Y446D02*
X699Y446D01*
X629Y445D02*
X639Y445D01*
X658Y445D02*
X668Y445D01*
X675Y445D02*
X697Y445D01*
X629Y444D02*
X639Y444D01*
X658Y444D02*
X668Y444D01*
X673Y444D02*
X695Y444D01*
X629Y443D02*
X639Y443D01*
X658Y443D02*
X668Y443D01*
X672Y443D02*
X693Y443D01*
X629Y442D02*
X639Y442D01*
X658Y442D02*
X668Y442D01*
X670Y442D02*
X692Y442D01*
X629Y441D02*
X639Y441D01*
X658Y441D02*
X690Y441D01*
X45Y440D02*
X101Y440D01*
X629Y440D02*
X639Y440D01*
X658Y440D02*
X688Y440D01*
X44Y439D02*
X102Y439D01*
X629Y439D02*
X639Y439D01*
X658Y439D02*
X687Y439D01*
X43Y438D02*
X103Y438D01*
X629Y438D02*
X639Y438D01*
X658Y438D02*
X685Y438D01*
X42Y437D02*
X104Y437D01*
X629Y437D02*
X639Y437D01*
X658Y437D02*
X683Y437D01*
X42Y436D02*
X104Y436D01*
X629Y436D02*
X639Y436D01*
X658Y436D02*
X681Y436D01*
X42Y435D02*
X104Y435D01*
X629Y435D02*
X639Y435D01*
X658Y435D02*
X680Y435D01*
X42Y434D02*
X104Y434D01*
X629Y434D02*
X639Y434D01*
X658Y434D02*
X678Y434D01*
X42Y433D02*
X104Y433D01*
X629Y433D02*
X639Y433D01*
X658Y433D02*
X676Y433D01*
X42Y432D02*
X104Y432D01*
X629Y432D02*
X639Y432D01*
X658Y432D02*
X675Y432D01*
X42Y431D02*
X104Y431D01*
X629Y431D02*
X639Y431D01*
X658Y431D02*
X673Y431D01*
X42Y430D02*
X104Y430D01*
X629Y430D02*
X639Y430D01*
X658Y430D02*
X671Y430D01*
X42Y429D02*
X104Y429D01*
X629Y429D02*
X639Y429D01*
X658Y429D02*
X670Y429D01*
X42Y428D02*
X104Y428D01*
X629Y428D02*
X639Y428D01*
X658Y428D02*
X668Y428D01*
X42Y427D02*
X104Y427D01*
X629Y427D02*
X639Y427D01*
X658Y427D02*
X668Y427D01*
X43Y426D02*
X103Y426D01*
X629Y426D02*
X639Y426D01*
X658Y426D02*
X668Y426D01*
X43Y425D02*
X103Y425D01*
X629Y425D02*
X639Y425D01*
X658Y425D02*
X668Y425D01*
X44Y424D02*
X102Y424D01*
X629Y424D02*
X639Y424D01*
X658Y424D02*
X668Y424D01*
X46Y423D02*
X100Y423D01*
X629Y423D02*
X639Y423D01*
X658Y423D02*
X668Y423D01*
X629Y422D02*
X639Y422D01*
X658Y422D02*
X668Y422D01*
X629Y421D02*
X639Y421D01*
X658Y421D02*
X668Y421D01*
X629Y420D02*
X712Y420D01*
X629Y419D02*
X714Y419D01*
X629Y418D02*
X715Y418D01*
X629Y417D02*
X715Y417D01*
X629Y416D02*
X716Y416D01*
X629Y415D02*
X716Y415D01*
X629Y414D02*
X716Y414D01*
X629Y413D02*
X716Y413D01*
X629Y412D02*
X715Y412D01*
X629Y411D02*
X715Y411D01*
X629Y410D02*
X714Y410D01*
X629Y409D02*
X711Y409D01*
X418Y370D02*
X460Y370D01*
X503Y370D02*
X532Y370D01*
X418Y369D02*
X463Y369D01*
X502Y369D02*
X532Y369D01*
X418Y368D02*
X465Y368D01*
X501Y368D02*
X532Y368D01*
X418Y367D02*
X466Y367D01*
X500Y367D02*
X532Y367D01*
X418Y366D02*
X467Y366D01*
X500Y366D02*
X532Y366D01*
X418Y365D02*
X468Y365D01*
X500Y365D02*
X532Y365D01*
X418Y364D02*
X469Y364D01*
X500Y364D02*
X532Y364D01*
X418Y363D02*
X470Y363D01*
X500Y363D02*
X532Y363D01*
X418Y362D02*
X471Y362D01*
X500Y362D02*
X532Y362D01*
X418Y361D02*
X471Y361D01*
X501Y361D02*
X532Y361D01*
X418Y360D02*
X472Y360D01*
X502Y360D02*
X532Y360D01*
X418Y359D02*
X472Y359D01*
X505Y359D02*
X532Y359D01*
X418Y358D02*
X428Y358D01*
X460Y358D02*
X472Y358D01*
X522Y358D02*
X532Y358D01*
X418Y357D02*
X428Y357D01*
X461Y357D02*
X473Y357D01*
X522Y357D02*
X532Y357D01*
X418Y356D02*
X428Y356D01*
X462Y356D02*
X473Y356D01*
X522Y356D02*
X532Y356D01*
X418Y355D02*
X428Y355D01*
X462Y355D02*
X473Y355D01*
X522Y355D02*
X532Y355D01*
X418Y354D02*
X428Y354D01*
X463Y354D02*
X473Y354D01*
X522Y354D02*
X532Y354D01*
X418Y353D02*
X428Y353D01*
X463Y353D02*
X473Y353D01*
X522Y353D02*
X532Y353D01*
X418Y352D02*
X428Y352D01*
X463Y352D02*
X473Y352D01*
X522Y352D02*
X532Y352D01*
X418Y351D02*
X428Y351D01*
X463Y351D02*
X473Y351D01*
X522Y351D02*
X532Y351D01*
X418Y350D02*
X428Y350D01*
X463Y350D02*
X473Y350D01*
X522Y350D02*
X532Y350D01*
X418Y349D02*
X428Y349D01*
X463Y349D02*
X473Y349D01*
X522Y349D02*
X532Y349D01*
X418Y348D02*
X428Y348D01*
X463Y348D02*
X473Y348D01*
X522Y348D02*
X532Y348D01*
X418Y347D02*
X428Y347D01*
X463Y347D02*
X473Y347D01*
X522Y347D02*
X532Y347D01*
X418Y346D02*
X428Y346D01*
X462Y346D02*
X473Y346D01*
X522Y346D02*
X532Y346D01*
X418Y345D02*
X428Y345D01*
X462Y345D02*
X473Y345D01*
X522Y345D02*
X532Y345D01*
X418Y344D02*
X428Y344D01*
X461Y344D02*
X473Y344D01*
X522Y344D02*
X532Y344D01*
X418Y343D02*
X428Y343D01*
X460Y343D02*
X472Y343D01*
X522Y343D02*
X532Y343D01*
X418Y342D02*
X428Y342D01*
X459Y342D02*
X472Y342D01*
X522Y342D02*
X532Y342D01*
X418Y341D02*
X472Y341D01*
X522Y341D02*
X532Y341D01*
X418Y340D02*
X471Y340D01*
X522Y340D02*
X532Y340D01*
X418Y339D02*
X471Y339D01*
X522Y339D02*
X532Y339D01*
X418Y338D02*
X470Y338D01*
X522Y338D02*
X532Y338D01*
X418Y337D02*
X469Y337D01*
X522Y337D02*
X532Y337D01*
X418Y336D02*
X469Y336D01*
X522Y336D02*
X532Y336D01*
X418Y335D02*
X468Y335D01*
X522Y335D02*
X532Y335D01*
X418Y334D02*
X466Y334D01*
X522Y334D02*
X532Y334D01*
X418Y333D02*
X465Y333D01*
X522Y333D02*
X532Y333D01*
X418Y332D02*
X463Y332D01*
X522Y332D02*
X532Y332D01*
X418Y331D02*
X461Y331D01*
X522Y331D02*
X532Y331D01*
X418Y330D02*
X428Y330D01*
X437Y330D02*
X450Y330D01*
X522Y330D02*
X532Y330D01*
X418Y329D02*
X428Y329D01*
X438Y329D02*
X450Y329D01*
X522Y329D02*
X532Y329D01*
X418Y328D02*
X428Y328D01*
X438Y328D02*
X451Y328D01*
X522Y328D02*
X532Y328D01*
X418Y327D02*
X428Y327D01*
X439Y327D02*
X451Y327D01*
X522Y327D02*
X532Y327D01*
X418Y326D02*
X428Y326D01*
X439Y326D02*
X452Y326D01*
X522Y326D02*
X532Y326D01*
X418Y325D02*
X428Y325D01*
X440Y325D02*
X452Y325D01*
X522Y325D02*
X532Y325D01*
X418Y324D02*
X428Y324D01*
X440Y324D02*
X453Y324D01*
X522Y324D02*
X532Y324D01*
X418Y323D02*
X428Y323D01*
X441Y323D02*
X453Y323D01*
X522Y323D02*
X532Y323D01*
X418Y322D02*
X428Y322D01*
X442Y322D02*
X454Y322D01*
X522Y322D02*
X532Y322D01*
X548Y322D02*
X551Y322D01*
X418Y321D02*
X428Y321D01*
X442Y321D02*
X455Y321D01*
X522Y321D02*
X532Y321D01*
X547Y321D02*
X553Y321D01*
X418Y320D02*
X428Y320D01*
X443Y320D02*
X455Y320D01*
X522Y320D02*
X532Y320D01*
X546Y320D02*
X554Y320D01*
X418Y319D02*
X428Y319D01*
X443Y319D02*
X456Y319D01*
X522Y319D02*
X532Y319D01*
X545Y319D02*
X554Y319D01*
X418Y318D02*
X428Y318D01*
X444Y318D02*
X456Y318D01*
X522Y318D02*
X532Y318D01*
X545Y318D02*
X555Y318D01*
X418Y317D02*
X428Y317D01*
X445Y317D02*
X457Y317D01*
X522Y317D02*
X532Y317D01*
X545Y317D02*
X555Y317D01*
X418Y316D02*
X428Y316D01*
X445Y316D02*
X458Y316D01*
X522Y316D02*
X532Y316D01*
X545Y316D02*
X555Y316D01*
X418Y315D02*
X428Y315D01*
X446Y315D02*
X458Y315D01*
X522Y315D02*
X532Y315D01*
X545Y315D02*
X555Y315D01*
X418Y314D02*
X428Y314D01*
X446Y314D02*
X459Y314D01*
X522Y314D02*
X532Y314D01*
X545Y314D02*
X555Y314D01*
X418Y313D02*
X428Y313D01*
X447Y313D02*
X459Y313D01*
X522Y313D02*
X532Y313D01*
X545Y313D02*
X555Y313D01*
X418Y312D02*
X428Y312D01*
X447Y312D02*
X460Y312D01*
X522Y312D02*
X532Y312D01*
X545Y312D02*
X555Y312D01*
X418Y311D02*
X428Y311D01*
X448Y311D02*
X460Y311D01*
X522Y311D02*
X532Y311D01*
X545Y311D02*
X555Y311D01*
X418Y310D02*
X428Y310D01*
X449Y310D02*
X461Y310D01*
X522Y310D02*
X532Y310D01*
X545Y310D02*
X555Y310D01*
X418Y309D02*
X428Y309D01*
X449Y309D02*
X462Y309D01*
X522Y309D02*
X532Y309D01*
X545Y309D02*
X555Y309D01*
X418Y308D02*
X428Y308D01*
X450Y308D02*
X462Y308D01*
X522Y308D02*
X532Y308D01*
X545Y308D02*
X555Y308D01*
X418Y307D02*
X428Y307D01*
X450Y307D02*
X463Y307D01*
X522Y307D02*
X532Y307D01*
X545Y307D02*
X555Y307D01*
X418Y306D02*
X428Y306D01*
X451Y306D02*
X463Y306D01*
X522Y306D02*
X532Y306D01*
X545Y306D02*
X555Y306D01*
X418Y305D02*
X428Y305D01*
X452Y305D02*
X464Y305D01*
X522Y305D02*
X532Y305D01*
X545Y305D02*
X555Y305D01*
X418Y304D02*
X428Y304D01*
X452Y304D02*
X465Y304D01*
X522Y304D02*
X532Y304D01*
X545Y304D02*
X555Y304D01*
X418Y303D02*
X428Y303D01*
X453Y303D02*
X465Y303D01*
X522Y303D02*
X532Y303D01*
X545Y303D02*
X555Y303D01*
X418Y302D02*
X428Y302D01*
X453Y302D02*
X466Y302D01*
X522Y302D02*
X532Y302D01*
X545Y302D02*
X555Y302D01*
X418Y301D02*
X428Y301D01*
X454Y301D02*
X466Y301D01*
X522Y301D02*
X532Y301D01*
X545Y301D02*
X555Y301D01*
X418Y300D02*
X428Y300D01*
X454Y300D02*
X467Y300D01*
X522Y300D02*
X532Y300D01*
X545Y300D02*
X555Y300D01*
X418Y299D02*
X428Y299D01*
X455Y299D02*
X467Y299D01*
X522Y299D02*
X532Y299D01*
X545Y299D02*
X555Y299D01*
X418Y298D02*
X428Y298D01*
X456Y298D02*
X468Y298D01*
X522Y298D02*
X532Y298D01*
X545Y298D02*
X555Y298D01*
X418Y297D02*
X428Y297D01*
X456Y297D02*
X469Y297D01*
X522Y297D02*
X532Y297D01*
X545Y297D02*
X555Y297D01*
X1902Y297D02*
X1956Y297D01*
X1990Y297D02*
X2005Y297D01*
X2037Y297D02*
X2052Y297D01*
X2086Y297D02*
X2090Y297D01*
X2137Y297D02*
X2140Y297D01*
X418Y296D02*
X428Y296D01*
X457Y296D02*
X469Y296D01*
X522Y296D02*
X532Y296D01*
X545Y296D02*
X555Y296D01*
X1901Y296D02*
X1958Y296D01*
X1990Y296D02*
X2006Y296D01*
X2036Y296D02*
X2052Y296D01*
X2085Y296D02*
X2091Y296D01*
X2135Y296D02*
X2142Y296D01*
X418Y295D02*
X428Y295D01*
X457Y295D02*
X470Y295D01*
X522Y295D02*
X532Y295D01*
X545Y295D02*
X555Y295D01*
X1900Y295D02*
X1959Y295D01*
X1990Y295D02*
X2007Y295D01*
X2036Y295D02*
X2052Y295D01*
X2084Y295D02*
X2092Y295D01*
X2134Y295D02*
X2143Y295D01*
X418Y294D02*
X428Y294D01*
X458Y294D02*
X470Y294D01*
X522Y294D02*
X532Y294D01*
X545Y294D02*
X555Y294D01*
X1899Y294D02*
X1959Y294D01*
X1990Y294D02*
X2007Y294D01*
X2035Y294D02*
X2052Y294D01*
X2083Y294D02*
X2093Y294D01*
X2133Y294D02*
X2144Y294D01*
X418Y293D02*
X428Y293D01*
X459Y293D02*
X471Y293D01*
X503Y293D02*
X555Y293D01*
X1898Y293D02*
X1960Y293D01*
X1990Y293D02*
X2008Y293D01*
X2034Y293D02*
X2052Y293D01*
X2082Y293D02*
X2094Y293D01*
X2133Y293D02*
X2144Y293D01*
X418Y292D02*
X428Y292D01*
X459Y292D02*
X471Y292D01*
X502Y292D02*
X555Y292D01*
X1898Y292D02*
X1960Y292D01*
X1990Y292D02*
X2009Y292D01*
X2033Y292D02*
X2052Y292D01*
X2082Y292D02*
X2094Y292D01*
X2133Y292D02*
X2144Y292D01*
X418Y291D02*
X428Y291D01*
X460Y291D02*
X472Y291D01*
X501Y291D02*
X555Y291D01*
X1898Y291D02*
X1960Y291D01*
X1990Y291D02*
X2010Y291D01*
X2033Y291D02*
X2052Y291D01*
X2082Y291D02*
X2094Y291D01*
X2133Y291D02*
X2144Y291D01*
X418Y290D02*
X428Y290D01*
X460Y290D02*
X473Y290D01*
X500Y290D02*
X555Y290D01*
X1898Y290D02*
X1960Y290D01*
X1990Y290D02*
X2010Y290D01*
X2032Y290D02*
X2052Y290D01*
X2082Y290D02*
X2094Y290D01*
X2133Y290D02*
X2144Y290D01*
X418Y289D02*
X428Y289D01*
X461Y289D02*
X473Y289D01*
X500Y289D02*
X555Y289D01*
X1898Y289D02*
X1960Y289D01*
X1990Y289D02*
X2011Y289D01*
X2031Y289D02*
X2052Y289D01*
X2082Y289D02*
X2094Y289D01*
X2133Y289D02*
X2144Y289D01*
X418Y288D02*
X428Y288D01*
X461Y288D02*
X473Y288D01*
X500Y288D02*
X555Y288D01*
X1899Y288D02*
X1960Y288D01*
X1990Y288D02*
X2012Y288D01*
X2031Y288D02*
X2052Y288D01*
X2082Y288D02*
X2094Y288D01*
X2133Y288D02*
X2144Y288D01*
X418Y287D02*
X428Y287D01*
X462Y287D02*
X473Y287D01*
X500Y287D02*
X555Y287D01*
X1899Y287D02*
X1959Y287D01*
X1990Y287D02*
X2012Y287D01*
X2030Y287D02*
X2052Y287D01*
X2082Y287D02*
X2094Y287D01*
X2133Y287D02*
X2144Y287D01*
X418Y286D02*
X428Y286D01*
X463Y286D02*
X473Y286D01*
X500Y286D02*
X555Y286D01*
X1900Y286D02*
X1958Y286D01*
X1990Y286D02*
X2013Y286D01*
X2029Y286D02*
X2052Y286D01*
X2082Y286D02*
X2094Y286D01*
X2133Y286D02*
X2144Y286D01*
X418Y285D02*
X427Y285D01*
X463Y285D02*
X472Y285D01*
X500Y285D02*
X554Y285D01*
X1902Y285D02*
X1956Y285D01*
X1990Y285D02*
X2014Y285D01*
X2029Y285D02*
X2052Y285D01*
X2082Y285D02*
X2094Y285D01*
X2133Y285D02*
X2144Y285D01*
X419Y284D02*
X427Y284D01*
X464Y284D02*
X472Y284D01*
X501Y284D02*
X553Y284D01*
X1923Y284D02*
X1935Y284D01*
X1990Y284D02*
X2014Y284D01*
X2028Y284D02*
X2052Y284D01*
X2082Y284D02*
X2094Y284D01*
X2133Y284D02*
X2144Y284D01*
X420Y283D02*
X425Y283D01*
X465Y283D02*
X470Y283D01*
X502Y283D02*
X552Y283D01*
X1923Y283D02*
X1935Y283D01*
X1990Y283D02*
X2015Y283D01*
X2027Y283D02*
X2052Y283D01*
X2082Y283D02*
X2094Y283D01*
X2133Y283D02*
X2144Y283D01*
X1923Y282D02*
X1935Y282D01*
X1990Y282D02*
X2016Y282D01*
X2027Y282D02*
X2052Y282D01*
X2082Y282D02*
X2094Y282D01*
X2133Y282D02*
X2144Y282D01*
X1923Y281D02*
X1935Y281D01*
X1990Y281D02*
X2017Y281D01*
X2026Y281D02*
X2052Y281D01*
X2082Y281D02*
X2094Y281D01*
X2133Y281D02*
X2144Y281D01*
X1923Y280D02*
X1935Y280D01*
X1990Y280D02*
X2017Y280D01*
X2025Y280D02*
X2052Y280D01*
X2082Y280D02*
X2094Y280D01*
X2133Y280D02*
X2144Y280D01*
X1923Y279D02*
X1935Y279D01*
X1990Y279D02*
X2018Y279D01*
X2024Y279D02*
X2052Y279D01*
X2082Y279D02*
X2094Y279D01*
X2133Y279D02*
X2144Y279D01*
X1923Y278D02*
X1935Y278D01*
X1990Y278D02*
X2002Y278D01*
X2004Y278D02*
X2019Y278D01*
X2024Y278D02*
X2038Y278D01*
X2041Y278D02*
X2052Y278D01*
X2082Y278D02*
X2094Y278D01*
X2133Y278D02*
X2144Y278D01*
X1923Y277D02*
X1935Y277D01*
X1990Y277D02*
X2002Y277D01*
X2005Y277D02*
X2019Y277D01*
X2023Y277D02*
X2038Y277D01*
X2041Y277D02*
X2052Y277D01*
X2082Y277D02*
X2094Y277D01*
X2133Y277D02*
X2144Y277D01*
X1923Y276D02*
X1935Y276D01*
X1990Y276D02*
X2002Y276D01*
X2005Y276D02*
X2020Y276D01*
X2022Y276D02*
X2037Y276D01*
X2041Y276D02*
X2052Y276D01*
X2082Y276D02*
X2094Y276D01*
X2133Y276D02*
X2144Y276D01*
X1923Y275D02*
X1935Y275D01*
X1990Y275D02*
X2002Y275D01*
X2006Y275D02*
X2036Y275D01*
X2041Y275D02*
X2052Y275D01*
X2082Y275D02*
X2094Y275D01*
X2133Y275D02*
X2144Y275D01*
X1923Y274D02*
X1935Y274D01*
X1990Y274D02*
X2002Y274D01*
X2007Y274D02*
X2036Y274D01*
X2041Y274D02*
X2052Y274D01*
X2082Y274D02*
X2094Y274D01*
X2133Y274D02*
X2144Y274D01*
X1923Y273D02*
X1935Y273D01*
X1990Y273D02*
X2002Y273D01*
X2007Y273D02*
X2035Y273D01*
X2041Y273D02*
X2052Y273D01*
X2082Y273D02*
X2094Y273D01*
X2133Y273D02*
X2144Y273D01*
X1923Y272D02*
X1935Y272D01*
X1990Y272D02*
X2002Y272D01*
X2008Y272D02*
X2034Y272D01*
X2041Y272D02*
X2052Y272D01*
X2082Y272D02*
X2094Y272D01*
X2133Y272D02*
X2144Y272D01*
X1923Y271D02*
X1935Y271D01*
X1990Y271D02*
X2002Y271D01*
X2009Y271D02*
X2033Y271D01*
X2041Y271D02*
X2052Y271D01*
X2082Y271D02*
X2094Y271D01*
X2133Y271D02*
X2144Y271D01*
X1923Y270D02*
X1935Y270D01*
X1990Y270D02*
X2002Y270D01*
X2009Y270D02*
X2033Y270D01*
X2041Y270D02*
X2052Y270D01*
X2082Y270D02*
X2094Y270D01*
X2133Y270D02*
X2144Y270D01*
X1923Y269D02*
X1935Y269D01*
X1990Y269D02*
X2002Y269D01*
X2010Y269D02*
X2032Y269D01*
X2041Y269D02*
X2052Y269D01*
X2082Y269D02*
X2094Y269D01*
X2133Y269D02*
X2144Y269D01*
X1923Y268D02*
X1935Y268D01*
X1990Y268D02*
X2002Y268D01*
X2011Y268D02*
X2031Y268D01*
X2041Y268D02*
X2052Y268D01*
X2082Y268D02*
X2094Y268D01*
X2133Y268D02*
X2144Y268D01*
X1923Y267D02*
X1935Y267D01*
X1990Y267D02*
X2002Y267D01*
X2012Y267D02*
X2031Y267D01*
X2041Y267D02*
X2052Y267D01*
X2082Y267D02*
X2094Y267D01*
X2133Y267D02*
X2144Y267D01*
X1923Y266D02*
X1935Y266D01*
X1990Y266D02*
X2002Y266D01*
X2012Y266D02*
X2030Y266D01*
X2041Y266D02*
X2052Y266D01*
X2082Y266D02*
X2094Y266D01*
X2133Y266D02*
X2144Y266D01*
X1923Y265D02*
X1935Y265D01*
X1990Y265D02*
X2002Y265D01*
X2013Y265D02*
X2029Y265D01*
X2041Y265D02*
X2052Y265D01*
X2082Y265D02*
X2094Y265D01*
X2133Y265D02*
X2144Y265D01*
X1923Y264D02*
X1935Y264D01*
X1990Y264D02*
X2002Y264D01*
X2014Y264D02*
X2029Y264D01*
X2041Y264D02*
X2052Y264D01*
X2082Y264D02*
X2094Y264D01*
X2133Y264D02*
X2144Y264D01*
X1923Y263D02*
X1935Y263D01*
X1990Y263D02*
X2002Y263D01*
X2014Y263D02*
X2028Y263D01*
X2041Y263D02*
X2052Y263D01*
X2082Y263D02*
X2094Y263D01*
X2133Y263D02*
X2144Y263D01*
X1923Y262D02*
X1935Y262D01*
X1990Y262D02*
X2002Y262D01*
X2015Y262D02*
X2027Y262D01*
X2041Y262D02*
X2052Y262D01*
X2082Y262D02*
X2094Y262D01*
X2133Y262D02*
X2144Y262D01*
X1923Y261D02*
X1935Y261D01*
X1990Y261D02*
X2002Y261D01*
X2015Y261D02*
X2027Y261D01*
X2041Y261D02*
X2052Y261D01*
X2082Y261D02*
X2094Y261D01*
X2133Y261D02*
X2144Y261D01*
X1923Y260D02*
X1935Y260D01*
X1990Y260D02*
X2002Y260D01*
X2015Y260D02*
X2027Y260D01*
X2041Y260D02*
X2052Y260D01*
X2082Y260D02*
X2094Y260D01*
X2133Y260D02*
X2144Y260D01*
X1923Y259D02*
X1935Y259D01*
X1990Y259D02*
X2002Y259D01*
X2015Y259D02*
X2027Y259D01*
X2041Y259D02*
X2052Y259D01*
X2082Y259D02*
X2094Y259D01*
X2133Y259D02*
X2144Y259D01*
X1923Y258D02*
X1935Y258D01*
X1990Y258D02*
X2002Y258D01*
X2015Y258D02*
X2027Y258D01*
X2041Y258D02*
X2052Y258D01*
X2082Y258D02*
X2094Y258D01*
X2133Y258D02*
X2144Y258D01*
X1923Y257D02*
X1935Y257D01*
X1990Y257D02*
X2002Y257D01*
X2015Y257D02*
X2027Y257D01*
X2041Y257D02*
X2052Y257D01*
X2082Y257D02*
X2094Y257D01*
X2133Y257D02*
X2144Y257D01*
X1923Y256D02*
X1935Y256D01*
X1990Y256D02*
X2002Y256D01*
X2016Y256D02*
X2027Y256D01*
X2041Y256D02*
X2052Y256D01*
X2082Y256D02*
X2094Y256D01*
X2133Y256D02*
X2144Y256D01*
X1923Y255D02*
X1935Y255D01*
X1990Y255D02*
X2002Y255D01*
X2016Y255D02*
X2026Y255D01*
X2041Y255D02*
X2052Y255D01*
X2082Y255D02*
X2094Y255D01*
X2133Y255D02*
X2144Y255D01*
X1923Y254D02*
X1935Y254D01*
X1990Y254D02*
X2002Y254D01*
X2017Y254D02*
X2025Y254D01*
X2041Y254D02*
X2052Y254D01*
X2082Y254D02*
X2094Y254D01*
X2133Y254D02*
X2144Y254D01*
X1923Y253D02*
X1935Y253D01*
X1990Y253D02*
X2002Y253D01*
X2019Y253D02*
X2024Y253D01*
X2041Y253D02*
X2052Y253D01*
X2082Y253D02*
X2094Y253D01*
X2133Y253D02*
X2144Y253D01*
X1923Y252D02*
X1935Y252D01*
X1990Y252D02*
X2002Y252D01*
X2041Y252D02*
X2052Y252D01*
X2082Y252D02*
X2094Y252D01*
X2133Y252D02*
X2144Y252D01*
X1923Y251D02*
X1935Y251D01*
X1990Y251D02*
X2002Y251D01*
X2041Y251D02*
X2052Y251D01*
X2082Y251D02*
X2094Y251D01*
X2133Y251D02*
X2144Y251D01*
X1923Y250D02*
X1935Y250D01*
X1990Y250D02*
X2002Y250D01*
X2041Y250D02*
X2052Y250D01*
X2082Y250D02*
X2094Y250D01*
X2133Y250D02*
X2144Y250D01*
X1923Y249D02*
X1935Y249D01*
X1990Y249D02*
X2002Y249D01*
X2041Y249D02*
X2052Y249D01*
X2082Y249D02*
X2094Y249D01*
X2133Y249D02*
X2144Y249D01*
X1923Y248D02*
X1935Y248D01*
X1990Y248D02*
X2002Y248D01*
X2041Y248D02*
X2052Y248D01*
X2082Y248D02*
X2094Y248D01*
X2133Y248D02*
X2144Y248D01*
X1923Y247D02*
X1935Y247D01*
X1990Y247D02*
X2002Y247D01*
X2041Y247D02*
X2052Y247D01*
X2082Y247D02*
X2094Y247D01*
X2133Y247D02*
X2144Y247D01*
X1923Y246D02*
X1935Y246D01*
X1990Y246D02*
X2002Y246D01*
X2041Y246D02*
X2052Y246D01*
X2082Y246D02*
X2094Y246D01*
X2133Y246D02*
X2144Y246D01*
X1923Y245D02*
X1935Y245D01*
X1990Y245D02*
X2002Y245D01*
X2041Y245D02*
X2052Y245D01*
X2082Y245D02*
X2094Y245D01*
X2133Y245D02*
X2144Y245D01*
X1923Y244D02*
X1935Y244D01*
X1990Y244D02*
X2002Y244D01*
X2041Y244D02*
X2052Y244D01*
X2082Y244D02*
X2094Y244D01*
X2133Y244D02*
X2144Y244D01*
X1923Y243D02*
X1935Y243D01*
X1990Y243D02*
X2002Y243D01*
X2041Y243D02*
X2052Y243D01*
X2082Y243D02*
X2094Y243D01*
X2133Y243D02*
X2144Y243D01*
X1923Y242D02*
X1935Y242D01*
X1990Y242D02*
X2002Y242D01*
X2041Y242D02*
X2052Y242D01*
X2082Y242D02*
X2094Y242D01*
X2133Y242D02*
X2144Y242D01*
X1923Y241D02*
X1935Y241D01*
X1990Y241D02*
X2002Y241D01*
X2041Y241D02*
X2052Y241D01*
X2082Y241D02*
X2094Y241D01*
X2133Y241D02*
X2144Y241D01*
X1923Y240D02*
X1935Y240D01*
X1990Y240D02*
X2002Y240D01*
X2041Y240D02*
X2052Y240D01*
X2082Y240D02*
X2094Y240D01*
X2133Y240D02*
X2144Y240D01*
X1923Y239D02*
X1935Y239D01*
X1990Y239D02*
X2002Y239D01*
X2041Y239D02*
X2052Y239D01*
X2082Y239D02*
X2094Y239D01*
X2133Y239D02*
X2144Y239D01*
X1923Y238D02*
X1935Y238D01*
X1990Y238D02*
X2002Y238D01*
X2041Y238D02*
X2052Y238D01*
X2082Y238D02*
X2094Y238D01*
X2133Y238D02*
X2144Y238D01*
X1923Y237D02*
X1935Y237D01*
X1990Y237D02*
X2002Y237D01*
X2041Y237D02*
X2052Y237D01*
X2082Y237D02*
X2094Y237D01*
X2133Y237D02*
X2144Y237D01*
X1923Y236D02*
X1935Y236D01*
X1990Y236D02*
X2002Y236D01*
X2041Y236D02*
X2052Y236D01*
X2082Y236D02*
X2094Y236D01*
X2133Y236D02*
X2144Y236D01*
X1923Y235D02*
X1935Y235D01*
X1990Y235D02*
X2002Y235D01*
X2041Y235D02*
X2052Y235D01*
X2082Y235D02*
X2094Y235D01*
X2133Y235D02*
X2144Y235D01*
X1923Y234D02*
X1935Y234D01*
X1990Y234D02*
X2002Y234D01*
X2041Y234D02*
X2052Y234D01*
X2082Y234D02*
X2094Y234D01*
X2133Y234D02*
X2144Y234D01*
X1923Y233D02*
X1935Y233D01*
X1990Y233D02*
X2002Y233D01*
X2041Y233D02*
X2052Y233D01*
X2082Y233D02*
X2094Y233D01*
X2133Y233D02*
X2144Y233D01*
X1923Y232D02*
X1935Y232D01*
X1990Y232D02*
X2002Y232D01*
X2041Y232D02*
X2052Y232D01*
X2082Y232D02*
X2094Y232D01*
X2133Y232D02*
X2144Y232D01*
X1923Y231D02*
X1935Y231D01*
X1990Y231D02*
X2002Y231D01*
X2041Y231D02*
X2052Y231D01*
X2082Y231D02*
X2094Y231D01*
X2133Y231D02*
X2144Y231D01*
X1923Y230D02*
X1935Y230D01*
X1990Y230D02*
X2002Y230D01*
X2041Y230D02*
X2052Y230D01*
X2082Y230D02*
X2094Y230D01*
X2133Y230D02*
X2144Y230D01*
X1923Y229D02*
X1935Y229D01*
X1990Y229D02*
X2002Y229D01*
X2041Y229D02*
X2052Y229D01*
X2082Y229D02*
X2094Y229D01*
X2133Y229D02*
X2144Y229D01*
X1923Y228D02*
X1935Y228D01*
X1990Y228D02*
X2002Y228D01*
X2041Y228D02*
X2052Y228D01*
X2082Y228D02*
X2094Y228D01*
X2133Y228D02*
X2144Y228D01*
X1923Y227D02*
X1935Y227D01*
X1990Y227D02*
X2002Y227D01*
X2041Y227D02*
X2052Y227D01*
X2082Y227D02*
X2094Y227D01*
X2133Y227D02*
X2144Y227D01*
X1923Y226D02*
X1935Y226D01*
X1990Y226D02*
X2002Y226D01*
X2041Y226D02*
X2052Y226D01*
X2082Y226D02*
X2094Y226D01*
X2133Y226D02*
X2144Y226D01*
X1923Y225D02*
X1935Y225D01*
X1990Y225D02*
X2002Y225D01*
X2041Y225D02*
X2052Y225D01*
X2082Y225D02*
X2094Y225D01*
X2133Y225D02*
X2144Y225D01*
X1923Y224D02*
X1935Y224D01*
X1990Y224D02*
X2002Y224D01*
X2041Y224D02*
X2052Y224D01*
X2082Y224D02*
X2094Y224D01*
X2133Y224D02*
X2144Y224D01*
X1923Y223D02*
X1935Y223D01*
X1990Y223D02*
X2002Y223D01*
X2041Y223D02*
X2052Y223D01*
X2082Y223D02*
X2094Y223D01*
X2133Y223D02*
X2144Y223D01*
X1923Y222D02*
X1935Y222D01*
X1990Y222D02*
X2002Y222D01*
X2041Y222D02*
X2052Y222D01*
X2082Y222D02*
X2094Y222D01*
X2133Y222D02*
X2144Y222D01*
X1923Y221D02*
X1935Y221D01*
X1990Y221D02*
X2002Y221D01*
X2041Y221D02*
X2052Y221D01*
X2082Y221D02*
X2094Y221D01*
X2133Y221D02*
X2144Y221D01*
X1923Y220D02*
X1935Y220D01*
X1990Y220D02*
X2002Y220D01*
X2041Y220D02*
X2052Y220D01*
X2082Y220D02*
X2094Y220D01*
X2133Y220D02*
X2144Y220D01*
X1923Y219D02*
X1935Y219D01*
X1990Y219D02*
X2002Y219D01*
X2041Y219D02*
X2052Y219D01*
X2082Y219D02*
X2094Y219D01*
X2133Y219D02*
X2144Y219D01*
X1923Y218D02*
X1935Y218D01*
X1990Y218D02*
X2002Y218D01*
X2041Y218D02*
X2052Y218D01*
X2082Y218D02*
X2094Y218D01*
X2133Y218D02*
X2144Y218D01*
X1923Y217D02*
X1935Y217D01*
X1990Y217D02*
X2002Y217D01*
X2041Y217D02*
X2052Y217D01*
X2082Y217D02*
X2094Y217D01*
X2133Y217D02*
X2144Y217D01*
X1923Y216D02*
X1935Y216D01*
X1990Y216D02*
X2002Y216D01*
X2041Y216D02*
X2052Y216D01*
X2082Y216D02*
X2094Y216D01*
X2132Y216D02*
X2144Y216D01*
X168Y215D02*
X173Y215D01*
X232Y215D02*
X273Y215D01*
X1923Y215D02*
X1935Y215D01*
X1990Y215D02*
X2002Y215D01*
X2041Y215D02*
X2052Y215D01*
X2082Y215D02*
X2094Y215D01*
X2132Y215D02*
X2144Y215D01*
X167Y214D02*
X174Y214D01*
X230Y214D02*
X275Y214D01*
X1923Y214D02*
X1935Y214D01*
X1990Y214D02*
X2002Y214D01*
X2041Y214D02*
X2052Y214D01*
X2082Y214D02*
X2095Y214D01*
X2131Y214D02*
X2144Y214D01*
X166Y213D02*
X175Y213D01*
X229Y213D02*
X276Y213D01*
X1923Y213D02*
X1935Y213D01*
X1990Y213D02*
X2002Y213D01*
X2041Y213D02*
X2052Y213D01*
X2083Y213D02*
X2096Y213D01*
X2131Y213D02*
X2144Y213D01*
X165Y212D02*
X175Y212D01*
X228Y212D02*
X277Y212D01*
X1923Y212D02*
X1935Y212D01*
X1990Y212D02*
X2002Y212D01*
X2041Y212D02*
X2052Y212D01*
X2083Y212D02*
X2097Y212D01*
X2129Y212D02*
X2144Y212D01*
X165Y211D02*
X176Y211D01*
X227Y211D02*
X278Y211D01*
X1923Y211D02*
X1935Y211D01*
X1990Y211D02*
X2002Y211D01*
X2041Y211D02*
X2052Y211D01*
X2083Y211D02*
X2099Y211D01*
X2127Y211D02*
X2143Y211D01*
X165Y210D02*
X176Y210D01*
X226Y210D02*
X279Y210D01*
X1901Y210D02*
X1957Y210D01*
X1990Y210D02*
X2002Y210D01*
X2041Y210D02*
X2052Y210D01*
X2083Y210D02*
X2143Y210D01*
X165Y209D02*
X176Y209D01*
X226Y209D02*
X279Y209D01*
X1900Y209D02*
X1958Y209D01*
X1990Y209D02*
X2002Y209D01*
X2041Y209D02*
X2052Y209D01*
X2084Y209D02*
X2142Y209D01*
X164Y208D02*
X177Y208D01*
X225Y208D02*
X280Y208D01*
X1899Y208D02*
X1959Y208D01*
X1990Y208D02*
X2002Y208D01*
X2041Y208D02*
X2052Y208D01*
X2084Y208D02*
X2142Y208D01*
X164Y207D02*
X177Y207D01*
X225Y207D02*
X280Y207D01*
X1899Y207D02*
X1960Y207D01*
X1990Y207D02*
X2002Y207D01*
X2041Y207D02*
X2052Y207D01*
X2085Y207D02*
X2141Y207D01*
X164Y206D02*
X177Y206D01*
X225Y206D02*
X280Y206D01*
X1898Y206D02*
X1960Y206D01*
X1990Y206D02*
X2002Y206D01*
X2041Y206D02*
X2052Y206D01*
X2086Y206D02*
X2141Y206D01*
X163Y205D02*
X177Y205D01*
X225Y205D02*
X280Y205D01*
X1898Y205D02*
X1960Y205D01*
X1990Y205D02*
X2002Y205D01*
X2041Y205D02*
X2052Y205D01*
X2087Y205D02*
X2140Y205D01*
X163Y204D02*
X178Y204D01*
X225Y204D02*
X235Y204D01*
X270Y204D02*
X280Y204D01*
X1898Y204D02*
X1960Y204D01*
X1990Y204D02*
X2002Y204D01*
X2041Y204D02*
X2052Y204D01*
X2087Y204D02*
X2139Y204D01*
X163Y203D02*
X178Y203D01*
X225Y203D02*
X235Y203D01*
X270Y203D02*
X280Y203D01*
X1898Y203D02*
X1960Y203D01*
X1990Y203D02*
X2002Y203D01*
X2041Y203D02*
X2052Y203D01*
X2089Y203D02*
X2138Y203D01*
X163Y202D02*
X178Y202D01*
X225Y202D02*
X235Y202D01*
X270Y202D02*
X280Y202D01*
X1899Y202D02*
X1960Y202D01*
X1991Y202D02*
X2001Y202D01*
X2041Y202D02*
X2052Y202D01*
X2090Y202D02*
X2137Y202D01*
X162Y201D02*
X179Y201D01*
X225Y201D02*
X235Y201D01*
X270Y201D02*
X280Y201D01*
X1899Y201D02*
X1959Y201D01*
X1991Y201D02*
X2001Y201D01*
X2042Y201D02*
X2051Y201D01*
X2091Y201D02*
X2135Y201D01*
X162Y200D02*
X179Y200D01*
X225Y200D02*
X235Y200D01*
X270Y200D02*
X280Y200D01*
X1900Y200D02*
X1958Y200D01*
X1992Y200D02*
X2000Y200D01*
X2042Y200D02*
X2050Y200D01*
X2093Y200D02*
X2133Y200D01*
X162Y199D02*
X179Y199D01*
X225Y199D02*
X235Y199D01*
X270Y199D02*
X280Y199D01*
X1901Y199D02*
X1957Y199D01*
X1993Y199D02*
X1999Y199D01*
X2044Y199D02*
X2049Y199D01*
X2096Y199D02*
X2131Y199D01*
X161Y198D02*
X179Y198D01*
X225Y198D02*
X235Y198D01*
X270Y198D02*
X280Y198D01*
X161Y197D02*
X180Y197D01*
X225Y197D02*
X235Y197D01*
X270Y197D02*
X280Y197D01*
X161Y196D02*
X180Y196D01*
X225Y196D02*
X235Y196D01*
X270Y196D02*
X280Y196D01*
X160Y195D02*
X180Y195D01*
X225Y195D02*
X235Y195D01*
X270Y195D02*
X280Y195D01*
X160Y194D02*
X181Y194D01*
X225Y194D02*
X235Y194D01*
X270Y194D02*
X280Y194D01*
X160Y193D02*
X181Y193D01*
X225Y193D02*
X235Y193D01*
X270Y193D02*
X280Y193D01*
X160Y192D02*
X181Y192D01*
X225Y192D02*
X235Y192D01*
X270Y192D02*
X280Y192D01*
X159Y191D02*
X182Y191D01*
X225Y191D02*
X235Y191D01*
X270Y191D02*
X280Y191D01*
X159Y190D02*
X182Y190D01*
X225Y190D02*
X235Y190D01*
X270Y190D02*
X280Y190D01*
X159Y189D02*
X182Y189D01*
X225Y189D02*
X235Y189D01*
X270Y189D02*
X280Y189D01*
X158Y188D02*
X169Y188D01*
X171Y188D02*
X182Y188D01*
X225Y188D02*
X235Y188D01*
X270Y188D02*
X280Y188D01*
X158Y187D02*
X169Y187D01*
X172Y187D02*
X183Y187D01*
X225Y187D02*
X235Y187D01*
X270Y187D02*
X280Y187D01*
X158Y186D02*
X169Y186D01*
X172Y186D02*
X183Y186D01*
X225Y186D02*
X235Y186D01*
X270Y186D02*
X280Y186D01*
X158Y185D02*
X168Y185D01*
X172Y185D02*
X183Y185D01*
X225Y185D02*
X235Y185D01*
X270Y185D02*
X280Y185D01*
X157Y184D02*
X168Y184D01*
X173Y184D02*
X184Y184D01*
X225Y184D02*
X235Y184D01*
X270Y184D02*
X280Y184D01*
X157Y183D02*
X168Y183D01*
X173Y183D02*
X184Y183D01*
X225Y183D02*
X235Y183D01*
X270Y183D02*
X280Y183D01*
X157Y182D02*
X168Y182D01*
X173Y182D02*
X184Y182D01*
X225Y182D02*
X235Y182D01*
X270Y182D02*
X280Y182D01*
X156Y181D02*
X167Y181D01*
X173Y181D02*
X184Y181D01*
X225Y181D02*
X235Y181D01*
X270Y181D02*
X280Y181D01*
X156Y180D02*
X167Y180D01*
X174Y180D02*
X185Y180D01*
X225Y180D02*
X235Y180D01*
X270Y180D02*
X280Y180D01*
X156Y179D02*
X167Y179D01*
X174Y179D02*
X185Y179D01*
X225Y179D02*
X235Y179D01*
X270Y179D02*
X280Y179D01*
X156Y178D02*
X166Y178D01*
X174Y178D02*
X185Y178D01*
X225Y178D02*
X235Y178D01*
X270Y178D02*
X280Y178D01*
X155Y177D02*
X166Y177D01*
X175Y177D02*
X186Y177D01*
X225Y177D02*
X235Y177D01*
X270Y177D02*
X280Y177D01*
X155Y176D02*
X166Y176D01*
X175Y176D02*
X186Y176D01*
X225Y176D02*
X235Y176D01*
X270Y176D02*
X280Y176D01*
X155Y175D02*
X166Y175D01*
X175Y175D02*
X186Y175D01*
X225Y175D02*
X235Y175D01*
X270Y175D02*
X280Y175D01*
X154Y174D02*
X165Y174D01*
X176Y174D02*
X186Y174D01*
X225Y174D02*
X235Y174D01*
X270Y174D02*
X280Y174D01*
X154Y173D02*
X165Y173D01*
X176Y173D02*
X187Y173D01*
X225Y173D02*
X235Y173D01*
X270Y173D02*
X280Y173D01*
X154Y172D02*
X165Y172D01*
X176Y172D02*
X187Y172D01*
X225Y172D02*
X235Y172D01*
X270Y172D02*
X280Y172D01*
X153Y171D02*
X164Y171D01*
X176Y171D02*
X187Y171D01*
X225Y171D02*
X235Y171D01*
X270Y171D02*
X280Y171D01*
X153Y170D02*
X164Y170D01*
X177Y170D02*
X188Y170D01*
X225Y170D02*
X235Y170D01*
X270Y170D02*
X280Y170D01*
X153Y169D02*
X164Y169D01*
X177Y169D02*
X188Y169D01*
X225Y169D02*
X235Y169D01*
X270Y169D02*
X280Y169D01*
X153Y168D02*
X164Y168D01*
X177Y168D02*
X188Y168D01*
X225Y168D02*
X235Y168D01*
X270Y168D02*
X280Y168D01*
X152Y167D02*
X163Y167D01*
X178Y167D02*
X189Y167D01*
X225Y167D02*
X235Y167D01*
X270Y167D02*
X280Y167D01*
X152Y166D02*
X163Y166D01*
X178Y166D02*
X189Y166D01*
X225Y166D02*
X235Y166D01*
X270Y166D02*
X280Y166D01*
X152Y165D02*
X163Y165D01*
X178Y165D02*
X189Y165D01*
X225Y165D02*
X235Y165D01*
X270Y165D02*
X280Y165D01*
X151Y164D02*
X162Y164D01*
X178Y164D02*
X189Y164D01*
X225Y164D02*
X235Y164D01*
X270Y164D02*
X280Y164D01*
X151Y163D02*
X162Y163D01*
X179Y163D02*
X190Y163D01*
X225Y163D02*
X235Y163D01*
X270Y163D02*
X280Y163D01*
X151Y162D02*
X162Y162D01*
X179Y162D02*
X190Y162D01*
X225Y162D02*
X235Y162D01*
X270Y162D02*
X280Y162D01*
X151Y161D02*
X161Y161D01*
X179Y161D02*
X190Y161D01*
X225Y161D02*
X235Y161D01*
X270Y161D02*
X280Y161D01*
X150Y160D02*
X161Y160D01*
X180Y160D02*
X191Y160D01*
X225Y160D02*
X235Y160D01*
X270Y160D02*
X280Y160D01*
X150Y159D02*
X161Y159D01*
X180Y159D02*
X191Y159D01*
X225Y159D02*
X235Y159D01*
X270Y159D02*
X280Y159D01*
X150Y158D02*
X191Y158D01*
X225Y158D02*
X235Y158D01*
X270Y158D02*
X280Y158D01*
X149Y157D02*
X191Y157D01*
X225Y157D02*
X235Y157D01*
X270Y157D02*
X280Y157D01*
X149Y156D02*
X192Y156D01*
X225Y156D02*
X235Y156D01*
X270Y156D02*
X280Y156D01*
X149Y155D02*
X192Y155D01*
X225Y155D02*
X235Y155D01*
X270Y155D02*
X280Y155D01*
X148Y154D02*
X192Y154D01*
X225Y154D02*
X235Y154D01*
X270Y154D02*
X280Y154D01*
X148Y153D02*
X193Y153D01*
X225Y153D02*
X235Y153D01*
X270Y153D02*
X280Y153D01*
X148Y152D02*
X193Y152D01*
X225Y152D02*
X235Y152D01*
X270Y152D02*
X280Y152D01*
X148Y151D02*
X193Y151D01*
X225Y151D02*
X235Y151D01*
X270Y151D02*
X280Y151D01*
X147Y150D02*
X193Y150D01*
X225Y150D02*
X235Y150D01*
X270Y150D02*
X280Y150D01*
X147Y149D02*
X194Y149D01*
X225Y149D02*
X235Y149D01*
X270Y149D02*
X280Y149D01*
X147Y148D02*
X194Y148D01*
X225Y148D02*
X235Y148D01*
X270Y148D02*
X280Y148D01*
X146Y147D02*
X194Y147D01*
X225Y147D02*
X235Y147D01*
X270Y147D02*
X280Y147D01*
X146Y146D02*
X157Y146D01*
X184Y146D02*
X195Y146D01*
X225Y146D02*
X235Y146D01*
X270Y146D02*
X280Y146D01*
X146Y145D02*
X157Y145D01*
X184Y145D02*
X195Y145D01*
X225Y145D02*
X235Y145D01*
X270Y145D02*
X280Y145D01*
X146Y144D02*
X156Y144D01*
X184Y144D02*
X195Y144D01*
X225Y144D02*
X235Y144D01*
X270Y144D02*
X280Y144D01*
X145Y143D02*
X156Y143D01*
X185Y143D02*
X196Y143D01*
X225Y143D02*
X235Y143D01*
X270Y143D02*
X280Y143D01*
X145Y142D02*
X156Y142D01*
X185Y142D02*
X196Y142D01*
X225Y142D02*
X235Y142D01*
X270Y142D02*
X280Y142D01*
X145Y141D02*
X156Y141D01*
X185Y141D02*
X196Y141D01*
X225Y141D02*
X235Y141D01*
X270Y141D02*
X280Y141D01*
X144Y140D02*
X155Y140D01*
X186Y140D02*
X196Y140D01*
X225Y140D02*
X235Y140D01*
X270Y140D02*
X280Y140D01*
X144Y139D02*
X155Y139D01*
X186Y139D02*
X197Y139D01*
X225Y139D02*
X280Y139D01*
X144Y138D02*
X155Y138D01*
X186Y138D02*
X197Y138D01*
X225Y138D02*
X280Y138D01*
X144Y137D02*
X154Y137D01*
X186Y137D02*
X197Y137D01*
X225Y137D02*
X280Y137D01*
X143Y136D02*
X154Y136D01*
X187Y136D02*
X198Y136D01*
X225Y136D02*
X280Y136D01*
X143Y135D02*
X154Y135D01*
X187Y135D02*
X198Y135D01*
X225Y135D02*
X279Y135D01*
X143Y134D02*
X154Y134D01*
X187Y134D02*
X198Y134D01*
X226Y134D02*
X279Y134D01*
X142Y133D02*
X153Y133D01*
X188Y133D02*
X198Y133D01*
X226Y133D02*
X278Y133D01*
X143Y132D02*
X153Y132D01*
X188Y132D02*
X198Y132D01*
X227Y132D02*
X278Y132D01*
X143Y131D02*
X153Y131D01*
X188Y131D02*
X198Y131D01*
X228Y131D02*
X277Y131D01*
X144Y130D02*
X152Y130D01*
X189Y130D02*
X197Y130D01*
X229Y130D02*
X276Y130D01*
X145Y129D02*
X151Y129D01*
X190Y129D02*
X196Y129D01*
X231Y129D02*
X274Y129D01*
X146Y128D02*
X149Y128D01*
X191Y128D02*
X195Y128D01*
X233Y128D02*
X272Y128D01*
D02*
G04 End of Copper1*
M02*