G04 MADE WITH FRITZING*
G04 WWW.FRITZING.ORG*
G04 DOUBLE SIDED*
G04 HOLES PLATED*
G04 CONTOUR ON CENTER OF CONTOUR VECTOR*
%ASAXBY*%
%FSLAX23Y23*%
%MOIN*%
%OFA0B0*%
%SFA1.0B1.0*%
%ADD10C,0.086614*%
%ADD11C,0.052000*%
%ADD12C,0.082000*%
%ADD13C,0.075000*%
%ADD14C,0.078000*%
%ADD15R,0.082000X0.082000*%
%ADD16C,0.024000*%
%ADD17R,0.001000X0.001000*%
%LNCOPPER0*%
G90*
G70*
G54D10*
X537Y699D03*
X637Y699D03*
X787Y419D03*
X637Y599D03*
X537Y599D03*
X1015Y699D03*
X1115Y699D03*
X137Y699D03*
X237Y699D03*
X287Y199D03*
X287Y299D03*
X637Y149D03*
X537Y149D03*
X1165Y249D03*
X1165Y149D03*
X87Y199D03*
X87Y299D03*
G54D11*
X39Y599D03*
G54D12*
X337Y599D03*
G54D11*
X39Y599D03*
G54D12*
X337Y599D03*
X917Y599D03*
X1215Y599D03*
X917Y599D03*
X1215Y599D03*
X1065Y347D03*
X1065Y49D03*
X1065Y347D03*
X1065Y49D03*
X735Y249D03*
X437Y249D03*
X735Y249D03*
X437Y249D03*
G54D13*
X965Y449D03*
X1165Y449D03*
X965Y449D03*
X1165Y449D03*
X915Y299D03*
X915Y99D03*
X915Y299D03*
X915Y99D03*
X637Y399D03*
X437Y399D03*
X637Y399D03*
X437Y399D03*
X87Y449D03*
X287Y449D03*
X87Y449D03*
X287Y449D03*
G54D14*
X115Y49D03*
X215Y49D03*
X315Y49D03*
X415Y49D03*
X515Y49D03*
X615Y49D03*
G54D15*
X916Y599D03*
X916Y599D03*
X1065Y348D03*
X1065Y348D03*
X736Y249D03*
X736Y249D03*
G54D16*
X637Y498D02*
X537Y498D01*
D02*
X537Y498D02*
X537Y568D01*
D02*
X637Y428D02*
X637Y498D01*
D02*
X452Y278D02*
X482Y334D01*
D02*
X815Y36D02*
X982Y36D01*
D02*
X982Y36D02*
X1033Y44D01*
D02*
X822Y329D02*
X815Y36D01*
D02*
X702Y336D02*
X822Y329D01*
D02*
X482Y334D02*
X702Y336D01*
D02*
X88Y98D02*
X88Y168D01*
D02*
X101Y76D02*
X88Y98D01*
D02*
X337Y198D02*
X237Y200D01*
D02*
X409Y235D02*
X337Y198D01*
D02*
X237Y200D02*
X118Y200D01*
D02*
X337Y298D02*
X417Y379D01*
D02*
X286Y298D02*
X337Y298D01*
D02*
X118Y299D02*
X286Y298D01*
D02*
X286Y298D02*
X287Y421D01*
D02*
X419Y516D02*
X437Y700D01*
D02*
X437Y700D02*
X506Y700D01*
D02*
X162Y520D02*
X419Y516D01*
D02*
X108Y469D02*
X162Y520D01*
D02*
X704Y516D02*
X846Y516D01*
D02*
X1099Y600D02*
X1183Y600D01*
D02*
X1033Y516D02*
X1099Y600D01*
D02*
X846Y516D02*
X1033Y516D01*
D02*
X702Y336D02*
X704Y516D01*
D02*
X1051Y447D02*
X1136Y449D01*
D02*
X817Y410D02*
X968Y363D01*
D02*
X968Y363D02*
X1051Y447D01*
G54D17*
X0Y640D02*
X78Y640D01*
X0Y639D02*
X78Y639D01*
X0Y638D02*
X78Y638D01*
X0Y637D02*
X78Y637D01*
X0Y636D02*
X78Y636D01*
X0Y635D02*
X78Y635D01*
X0Y634D02*
X78Y634D01*
X0Y633D02*
X78Y633D01*
X0Y632D02*
X78Y632D01*
X0Y631D02*
X78Y631D01*
X0Y630D02*
X78Y630D01*
X0Y629D02*
X78Y629D01*
X0Y628D02*
X78Y628D01*
X0Y627D02*
X78Y627D01*
X0Y626D02*
X78Y626D01*
X0Y625D02*
X78Y625D01*
X0Y624D02*
X78Y624D01*
X0Y623D02*
X78Y623D01*
X0Y622D02*
X78Y622D01*
X0Y621D02*
X78Y621D01*
X0Y620D02*
X32Y620D01*
X45Y620D02*
X78Y620D01*
X0Y619D02*
X29Y619D01*
X48Y619D02*
X78Y619D01*
X0Y618D02*
X28Y618D01*
X50Y618D02*
X78Y618D01*
X0Y617D02*
X26Y617D01*
X51Y617D02*
X78Y617D01*
X0Y616D02*
X25Y616D01*
X52Y616D02*
X78Y616D01*
X0Y615D02*
X24Y615D01*
X54Y615D02*
X78Y615D01*
X0Y614D02*
X23Y614D01*
X55Y614D02*
X78Y614D01*
X0Y613D02*
X22Y613D01*
X55Y613D02*
X78Y613D01*
X0Y612D02*
X21Y612D01*
X56Y612D02*
X78Y612D01*
X0Y611D02*
X20Y611D01*
X57Y611D02*
X78Y611D01*
X0Y610D02*
X20Y610D01*
X58Y610D02*
X78Y610D01*
X0Y609D02*
X19Y609D01*
X58Y609D02*
X78Y609D01*
X0Y608D02*
X19Y608D01*
X59Y608D02*
X78Y608D01*
X0Y607D02*
X18Y607D01*
X59Y607D02*
X78Y607D01*
X0Y606D02*
X18Y606D01*
X59Y606D02*
X79Y606D01*
X0Y605D02*
X18Y605D01*
X59Y605D02*
X79Y605D01*
X0Y604D02*
X18Y604D01*
X59Y604D02*
X79Y604D01*
X0Y603D02*
X17Y603D01*
X59Y603D02*
X79Y603D01*
X0Y602D02*
X17Y602D01*
X59Y602D02*
X79Y602D01*
X0Y601D02*
X17Y601D01*
X59Y601D02*
X79Y601D01*
X0Y600D02*
X17Y600D01*
X59Y600D02*
X79Y600D01*
X0Y599D02*
X17Y599D01*
X59Y599D02*
X79Y599D01*
X0Y598D02*
X17Y598D01*
X59Y598D02*
X79Y598D01*
X0Y597D02*
X17Y597D01*
X59Y597D02*
X79Y597D01*
X0Y596D02*
X17Y596D01*
X59Y596D02*
X79Y596D01*
X0Y595D02*
X18Y595D01*
X59Y595D02*
X79Y595D01*
X0Y594D02*
X18Y594D01*
X59Y594D02*
X79Y594D01*
X0Y593D02*
X18Y593D01*
X59Y593D02*
X78Y593D01*
X0Y592D02*
X18Y592D01*
X59Y592D02*
X78Y592D01*
X0Y591D02*
X19Y591D01*
X58Y591D02*
X78Y591D01*
X0Y590D02*
X19Y590D01*
X58Y590D02*
X78Y590D01*
X0Y589D02*
X20Y589D01*
X57Y589D02*
X78Y589D01*
X0Y588D02*
X21Y588D01*
X57Y588D02*
X78Y588D01*
X0Y587D02*
X22Y587D01*
X56Y587D02*
X78Y587D01*
X0Y586D02*
X22Y586D01*
X55Y586D02*
X78Y586D01*
X0Y585D02*
X23Y585D01*
X54Y585D02*
X78Y585D01*
X0Y584D02*
X24Y584D01*
X53Y584D02*
X78Y584D01*
X0Y583D02*
X26Y583D01*
X52Y583D02*
X78Y583D01*
X0Y582D02*
X27Y582D01*
X51Y582D02*
X78Y582D01*
X0Y581D02*
X29Y581D01*
X49Y581D02*
X78Y581D01*
X0Y580D02*
X31Y580D01*
X47Y580D02*
X78Y580D01*
X0Y579D02*
X35Y579D01*
X42Y579D02*
X78Y579D01*
X0Y578D02*
X78Y578D01*
X0Y577D02*
X78Y577D01*
X0Y576D02*
X78Y576D01*
X0Y575D02*
X78Y575D01*
X0Y574D02*
X78Y574D01*
X0Y573D02*
X78Y573D01*
X0Y572D02*
X78Y572D01*
X0Y571D02*
X78Y571D01*
X0Y570D02*
X78Y570D01*
X0Y569D02*
X78Y569D01*
X0Y568D02*
X78Y568D01*
X0Y567D02*
X78Y567D01*
X0Y566D02*
X78Y566D01*
X0Y565D02*
X78Y565D01*
X0Y564D02*
X78Y564D01*
X0Y563D02*
X78Y563D01*
X0Y562D02*
X78Y562D01*
X0Y561D02*
X78Y561D01*
X0Y560D02*
X78Y560D01*
X0Y559D02*
X78Y559D01*
D02*
G04 End of Copper0*
M02*