G04 MADE WITH FRITZING*
G04 WWW.FRITZING.ORG*
G04 DOUBLE SIDED*
G04 HOLES PLATED*
G04 CONTOUR ON CENTER OF CONTOUR VECTOR*
%ASAXBY*%
%FSLAX23Y23*%
%MOIN*%
%OFA0B0*%
%SFA1.0B1.0*%
%ADD10C,0.086614*%
%ADD11C,0.082000*%
%ADD12C,0.075000*%
%ADD13C,0.078000*%
%ADD14C,0.052000*%
%ADD15R,0.031496X0.035433*%
%ADD16R,0.035433X0.031496*%
%ADD17R,0.082000X0.082000*%
%ADD18C,0.024000*%
%ADD19R,0.001000X0.001000*%
%LNCOPPER1*%
G90*
G70*
G54D10*
X87Y199D03*
X87Y299D03*
X637Y149D03*
X537Y149D03*
G54D11*
X735Y249D03*
X437Y249D03*
X735Y249D03*
X437Y249D03*
G54D12*
X637Y399D03*
X437Y399D03*
X637Y399D03*
X437Y399D03*
G54D10*
X537Y599D03*
X1165Y249D03*
X1165Y149D03*
G54D11*
X1065Y347D03*
X1065Y49D03*
X1065Y347D03*
X1065Y49D03*
G54D12*
X915Y299D03*
X915Y99D03*
X915Y299D03*
X915Y99D03*
G54D13*
X115Y49D03*
X215Y49D03*
X315Y49D03*
X415Y49D03*
X515Y49D03*
X615Y49D03*
G54D10*
X637Y599D03*
X1015Y699D03*
X1115Y699D03*
G54D11*
X917Y599D03*
X1215Y599D03*
X917Y599D03*
X1215Y599D03*
G54D12*
X965Y449D03*
X1165Y449D03*
X965Y449D03*
X1165Y449D03*
G54D10*
X637Y699D03*
X137Y699D03*
X237Y699D03*
G54D14*
X39Y599D03*
G54D11*
X337Y599D03*
G54D14*
X39Y599D03*
G54D11*
X337Y599D03*
G54D12*
X87Y449D03*
X287Y449D03*
X87Y449D03*
X287Y449D03*
G54D10*
X537Y699D03*
X287Y199D03*
X287Y299D03*
X787Y419D03*
G54D15*
X1028Y471D03*
X1102Y471D03*
X1065Y549D03*
X150Y471D03*
X225Y471D03*
X187Y549D03*
G54D16*
X936Y237D03*
X936Y162D03*
X1015Y199D03*
G54D15*
X575Y378D03*
X500Y378D03*
X537Y299D03*
G54D17*
X736Y249D03*
X736Y249D03*
X1065Y348D03*
X1065Y348D03*
X916Y599D03*
X916Y599D03*
G54D18*
X737Y149D02*
X668Y149D01*
D02*
X736Y217D02*
X737Y149D01*
D02*
X506Y149D02*
X437Y149D01*
D02*
X437Y149D02*
X437Y217D01*
D02*
X588Y249D02*
X547Y289D01*
D02*
X703Y249D02*
X588Y249D01*
D02*
X610Y390D02*
X585Y381D01*
D02*
X992Y458D02*
X1017Y467D01*
D02*
X1138Y458D02*
X1113Y467D01*
D02*
X924Y272D02*
X933Y247D01*
D02*
X924Y126D02*
X933Y152D01*
D02*
X768Y523D02*
X728Y591D01*
D02*
X862Y483D02*
X768Y523D01*
D02*
X908Y396D02*
X862Y483D01*
D02*
X728Y591D02*
X668Y597D01*
D02*
X913Y328D02*
X908Y396D01*
D02*
X837Y698D02*
X668Y699D01*
D02*
X837Y549D02*
X837Y698D01*
D02*
X937Y498D02*
X837Y549D01*
D02*
X951Y474D02*
X937Y498D01*
D02*
X464Y390D02*
X490Y381D01*
D02*
X37Y698D02*
X106Y699D01*
D02*
X39Y631D02*
X37Y698D01*
D02*
X337Y698D02*
X268Y699D01*
D02*
X337Y631D02*
X337Y698D01*
D02*
X71Y599D02*
X137Y598D01*
D02*
X137Y598D02*
X177Y559D01*
D02*
X260Y458D02*
X235Y467D01*
D02*
X188Y298D02*
X256Y299D01*
D02*
X188Y149D02*
X188Y298D01*
D02*
X207Y78D02*
X188Y149D01*
D02*
X362Y376D02*
X368Y280D01*
D02*
X368Y280D02*
X309Y221D01*
D02*
X362Y498D02*
X362Y376D01*
D02*
X345Y568D02*
X362Y498D01*
D02*
X791Y420D02*
X688Y498D01*
D02*
X822Y100D02*
X826Y320D01*
D02*
X826Y320D02*
X791Y420D01*
D02*
X537Y498D02*
X458Y419D01*
D02*
X886Y100D02*
X822Y100D01*
D02*
X688Y498D02*
X537Y498D01*
D02*
X114Y458D02*
X140Y467D01*
G54D19*
X909Y711D02*
X1017Y711D01*
X1110Y711D02*
X1216Y711D01*
X907Y710D02*
X1019Y710D01*
X1108Y710D02*
X1218Y710D01*
X906Y709D02*
X1021Y709D01*
X1107Y709D02*
X1220Y709D01*
X905Y708D02*
X1022Y708D01*
X1106Y708D02*
X1221Y708D01*
X904Y707D02*
X1023Y707D01*
X1105Y707D02*
X1222Y707D01*
X903Y706D02*
X1023Y706D01*
X1104Y706D02*
X1222Y706D01*
X902Y705D02*
X1024Y705D01*
X1103Y705D02*
X1223Y705D01*
X902Y704D02*
X1024Y704D01*
X1103Y704D02*
X1223Y704D01*
X902Y703D02*
X1025Y703D01*
X1103Y703D02*
X1224Y703D01*
X901Y702D02*
X1025Y702D01*
X1102Y702D02*
X1224Y702D01*
X901Y701D02*
X1025Y701D01*
X1102Y701D02*
X1224Y701D01*
X901Y700D02*
X1025Y700D01*
X1102Y700D02*
X1224Y700D01*
X901Y699D02*
X1025Y699D01*
X1102Y699D02*
X1224Y699D01*
X901Y698D02*
X1025Y698D01*
X1102Y698D02*
X1224Y698D01*
X901Y697D02*
X1025Y697D01*
X1103Y697D02*
X1224Y697D01*
X901Y696D02*
X1025Y696D01*
X1103Y696D02*
X1224Y696D01*
X901Y695D02*
X1024Y695D01*
X1103Y695D02*
X1224Y695D01*
X901Y694D02*
X1024Y694D01*
X1104Y694D02*
X1224Y694D01*
X901Y693D02*
X1023Y693D01*
X1104Y693D02*
X1224Y693D01*
X901Y692D02*
X1022Y692D01*
X1105Y692D02*
X1224Y692D01*
X902Y691D02*
X1021Y691D01*
X1106Y691D02*
X1224Y691D01*
X902Y690D02*
X1020Y690D01*
X1107Y690D02*
X1224Y690D01*
X902Y689D02*
X1019Y689D01*
X1109Y689D02*
X1224Y689D01*
X902Y688D02*
X1016Y688D01*
X1112Y688D02*
X1224Y688D01*
X902Y687D02*
X925Y687D01*
X1201Y687D02*
X1224Y687D01*
X902Y686D02*
X925Y686D01*
X1201Y686D02*
X1224Y686D01*
X902Y685D02*
X925Y685D01*
X1201Y685D02*
X1224Y685D01*
X902Y684D02*
X925Y684D01*
X1201Y684D02*
X1224Y684D01*
X902Y683D02*
X925Y683D01*
X1201Y683D02*
X1224Y683D01*
X902Y682D02*
X925Y682D01*
X1201Y682D02*
X1224Y682D01*
X902Y681D02*
X925Y681D01*
X1201Y681D02*
X1224Y681D01*
X902Y680D02*
X925Y680D01*
X1201Y680D02*
X1224Y680D01*
X902Y679D02*
X925Y679D01*
X1201Y679D02*
X1224Y679D01*
X902Y678D02*
X925Y678D01*
X1201Y678D02*
X1224Y678D01*
X902Y677D02*
X925Y677D01*
X1201Y677D02*
X1224Y677D01*
X902Y676D02*
X925Y676D01*
X1201Y676D02*
X1224Y676D01*
X902Y675D02*
X925Y675D01*
X1201Y675D02*
X1224Y675D01*
X902Y674D02*
X925Y674D01*
X1201Y674D02*
X1224Y674D01*
X902Y673D02*
X925Y673D01*
X1201Y673D02*
X1224Y673D01*
X902Y672D02*
X925Y672D01*
X1201Y672D02*
X1224Y672D01*
X902Y671D02*
X925Y671D01*
X1201Y671D02*
X1224Y671D01*
X902Y670D02*
X925Y670D01*
X1201Y670D02*
X1224Y670D01*
X902Y669D02*
X925Y669D01*
X1201Y669D02*
X1224Y669D01*
X902Y668D02*
X925Y668D01*
X1201Y668D02*
X1224Y668D01*
X902Y667D02*
X925Y667D01*
X1201Y667D02*
X1224Y667D01*
X902Y666D02*
X925Y666D01*
X1201Y666D02*
X1224Y666D01*
X902Y665D02*
X925Y665D01*
X1201Y665D02*
X1224Y665D01*
X902Y664D02*
X925Y664D01*
X1201Y664D02*
X1224Y664D01*
X902Y663D02*
X925Y663D01*
X1201Y663D02*
X1224Y663D01*
X902Y662D02*
X925Y662D01*
X1201Y662D02*
X1224Y662D01*
X902Y661D02*
X925Y661D01*
X1201Y661D02*
X1224Y661D01*
X902Y660D02*
X925Y660D01*
X1201Y660D02*
X1224Y660D01*
X903Y659D02*
X925Y659D01*
X1201Y659D02*
X1224Y659D01*
X903Y658D02*
X926Y658D01*
X1202Y658D02*
X1224Y658D01*
X903Y657D02*
X926Y657D01*
X1202Y657D02*
X1225Y657D01*
X903Y656D02*
X926Y656D01*
X1202Y656D02*
X1225Y656D01*
X903Y655D02*
X926Y655D01*
X1202Y655D02*
X1225Y655D01*
X903Y654D02*
X926Y654D01*
X1202Y654D02*
X1225Y654D01*
X903Y653D02*
X926Y653D01*
X1202Y653D02*
X1225Y653D01*
X903Y652D02*
X926Y652D01*
X1202Y652D02*
X1225Y652D01*
X903Y651D02*
X926Y651D01*
X1202Y651D02*
X1225Y651D01*
X903Y650D02*
X926Y650D01*
X1202Y650D02*
X1225Y650D01*
X903Y649D02*
X926Y649D01*
X1202Y649D02*
X1225Y649D01*
X903Y648D02*
X926Y648D01*
X1202Y648D02*
X1225Y648D01*
X903Y647D02*
X926Y647D01*
X1202Y647D02*
X1225Y647D01*
X903Y646D02*
X926Y646D01*
X1202Y646D02*
X1225Y646D01*
X903Y645D02*
X926Y645D01*
X1202Y645D02*
X1225Y645D01*
X903Y644D02*
X926Y644D01*
X1202Y644D02*
X1225Y644D01*
X903Y643D02*
X926Y643D01*
X1202Y643D02*
X1225Y643D01*
X903Y642D02*
X926Y642D01*
X1202Y642D02*
X1225Y642D01*
X903Y641D02*
X926Y641D01*
X1202Y641D02*
X1225Y641D01*
X0Y640D02*
X78Y640D01*
X903Y640D02*
X926Y640D01*
X1202Y640D02*
X1225Y640D01*
X0Y639D02*
X78Y639D01*
X903Y639D02*
X926Y639D01*
X1202Y639D02*
X1225Y639D01*
X0Y638D02*
X78Y638D01*
X903Y638D02*
X926Y638D01*
X1202Y638D02*
X1225Y638D01*
X0Y637D02*
X78Y637D01*
X903Y637D02*
X926Y637D01*
X1202Y637D02*
X1225Y637D01*
X0Y636D02*
X78Y636D01*
X903Y636D02*
X926Y636D01*
X1202Y636D02*
X1225Y636D01*
X0Y635D02*
X78Y635D01*
X903Y635D02*
X926Y635D01*
X1202Y635D02*
X1225Y635D01*
X0Y634D02*
X78Y634D01*
X903Y634D02*
X926Y634D01*
X1202Y634D02*
X1225Y634D01*
X0Y633D02*
X78Y633D01*
X903Y633D02*
X926Y633D01*
X1202Y633D02*
X1225Y633D01*
X0Y632D02*
X78Y632D01*
X903Y632D02*
X926Y632D01*
X1202Y632D02*
X1225Y632D01*
X0Y631D02*
X78Y631D01*
X903Y631D02*
X926Y631D01*
X1202Y631D02*
X1225Y631D01*
X0Y630D02*
X78Y630D01*
X903Y630D02*
X926Y630D01*
X1202Y630D02*
X1225Y630D01*
X0Y629D02*
X78Y629D01*
X903Y629D02*
X926Y629D01*
X1202Y629D02*
X1225Y629D01*
X0Y628D02*
X78Y628D01*
X903Y628D02*
X926Y628D01*
X1202Y628D02*
X1225Y628D01*
X0Y627D02*
X78Y627D01*
X903Y627D02*
X926Y627D01*
X1202Y627D02*
X1225Y627D01*
X0Y626D02*
X78Y626D01*
X904Y626D02*
X927Y626D01*
X1202Y626D02*
X1225Y626D01*
X0Y625D02*
X78Y625D01*
X904Y625D02*
X927Y625D01*
X1202Y625D02*
X1225Y625D01*
X0Y624D02*
X78Y624D01*
X904Y624D02*
X927Y624D01*
X1202Y624D02*
X1225Y624D01*
X0Y623D02*
X78Y623D01*
X904Y623D02*
X927Y623D01*
X1202Y623D02*
X1225Y623D01*
X0Y622D02*
X78Y622D01*
X904Y622D02*
X927Y622D01*
X1202Y622D02*
X1225Y622D01*
X0Y621D02*
X78Y621D01*
X904Y621D02*
X927Y621D01*
X1202Y621D02*
X1225Y621D01*
X0Y620D02*
X32Y620D01*
X45Y620D02*
X78Y620D01*
X904Y620D02*
X927Y620D01*
X1202Y620D02*
X1225Y620D01*
X0Y619D02*
X29Y619D01*
X48Y619D02*
X78Y619D01*
X904Y619D02*
X927Y619D01*
X1202Y619D02*
X1225Y619D01*
X0Y618D02*
X28Y618D01*
X50Y618D02*
X78Y618D01*
X904Y618D02*
X927Y618D01*
X1202Y618D02*
X1225Y618D01*
X0Y617D02*
X26Y617D01*
X51Y617D02*
X78Y617D01*
X904Y617D02*
X927Y617D01*
X1202Y617D02*
X1225Y617D01*
X0Y616D02*
X25Y616D01*
X52Y616D02*
X78Y616D01*
X904Y616D02*
X927Y616D01*
X1202Y616D02*
X1225Y616D01*
X0Y615D02*
X24Y615D01*
X54Y615D02*
X78Y615D01*
X904Y615D02*
X927Y615D01*
X1202Y615D02*
X1225Y615D01*
X0Y614D02*
X23Y614D01*
X55Y614D02*
X78Y614D01*
X904Y614D02*
X927Y614D01*
X1202Y614D02*
X1225Y614D01*
X0Y613D02*
X22Y613D01*
X55Y613D02*
X78Y613D01*
X904Y613D02*
X927Y613D01*
X1202Y613D02*
X1225Y613D01*
X0Y612D02*
X21Y612D01*
X56Y612D02*
X78Y612D01*
X904Y612D02*
X927Y612D01*
X1202Y612D02*
X1225Y612D01*
X0Y611D02*
X20Y611D01*
X57Y611D02*
X78Y611D01*
X904Y611D02*
X1067Y611D01*
X1202Y611D02*
X1225Y611D01*
X0Y610D02*
X20Y610D01*
X58Y610D02*
X78Y610D01*
X904Y610D02*
X1069Y610D01*
X1202Y610D02*
X1225Y610D01*
X0Y609D02*
X19Y609D01*
X58Y609D02*
X78Y609D01*
X904Y609D02*
X1071Y609D01*
X1202Y609D02*
X1225Y609D01*
X0Y608D02*
X19Y608D01*
X59Y608D02*
X78Y608D01*
X904Y608D02*
X1072Y608D01*
X1202Y608D02*
X1225Y608D01*
X0Y607D02*
X18Y607D01*
X59Y607D02*
X78Y607D01*
X904Y607D02*
X1073Y607D01*
X1202Y607D02*
X1225Y607D01*
X0Y606D02*
X18Y606D01*
X59Y606D02*
X79Y606D01*
X904Y606D02*
X1073Y606D01*
X1202Y606D02*
X1225Y606D01*
X0Y605D02*
X18Y605D01*
X59Y605D02*
X79Y605D01*
X904Y605D02*
X1074Y605D01*
X1202Y605D02*
X1225Y605D01*
X0Y604D02*
X18Y604D01*
X59Y604D02*
X79Y604D01*
X904Y604D02*
X1074Y604D01*
X1202Y604D02*
X1225Y604D01*
X0Y603D02*
X17Y603D01*
X59Y603D02*
X79Y603D01*
X904Y603D02*
X1075Y603D01*
X1202Y603D02*
X1225Y603D01*
X0Y602D02*
X17Y602D01*
X59Y602D02*
X79Y602D01*
X904Y602D02*
X1075Y602D01*
X1202Y602D02*
X1225Y602D01*
X0Y601D02*
X17Y601D01*
X59Y601D02*
X79Y601D01*
X904Y601D02*
X1075Y601D01*
X1202Y601D02*
X1225Y601D01*
X0Y600D02*
X17Y600D01*
X59Y600D02*
X79Y600D01*
X904Y600D02*
X1075Y600D01*
X1202Y600D02*
X1225Y600D01*
X0Y599D02*
X17Y599D01*
X59Y599D02*
X79Y599D01*
X904Y599D02*
X1075Y599D01*
X1202Y599D02*
X1225Y599D01*
X0Y598D02*
X17Y598D01*
X59Y598D02*
X79Y598D01*
X905Y598D02*
X1075Y598D01*
X1202Y598D02*
X1225Y598D01*
X0Y597D02*
X17Y597D01*
X59Y597D02*
X79Y597D01*
X905Y597D02*
X1075Y597D01*
X1202Y597D02*
X1225Y597D01*
X0Y596D02*
X17Y596D01*
X59Y596D02*
X79Y596D01*
X905Y596D02*
X1075Y596D01*
X1203Y596D02*
X1224Y596D01*
X0Y595D02*
X18Y595D01*
X59Y595D02*
X79Y595D01*
X905Y595D02*
X1075Y595D01*
X1203Y595D02*
X1224Y595D01*
X0Y594D02*
X18Y594D01*
X59Y594D02*
X79Y594D01*
X906Y594D02*
X1075Y594D01*
X1204Y594D02*
X1224Y594D01*
X0Y593D02*
X18Y593D01*
X59Y593D02*
X78Y593D01*
X906Y593D02*
X1075Y593D01*
X1204Y593D02*
X1223Y593D01*
X0Y592D02*
X18Y592D01*
X59Y592D02*
X78Y592D01*
X907Y592D02*
X1075Y592D01*
X1205Y592D02*
X1222Y592D01*
X0Y591D02*
X19Y591D01*
X58Y591D02*
X78Y591D01*
X908Y591D02*
X1075Y591D01*
X1206Y591D02*
X1221Y591D01*
X0Y590D02*
X19Y590D01*
X58Y590D02*
X78Y590D01*
X909Y590D02*
X1075Y590D01*
X1207Y590D02*
X1220Y590D01*
X0Y589D02*
X20Y589D01*
X57Y589D02*
X78Y589D01*
X911Y589D02*
X1075Y589D01*
X1209Y589D02*
X1218Y589D01*
X0Y588D02*
X21Y588D01*
X57Y588D02*
X78Y588D01*
X914Y588D02*
X1075Y588D01*
X1212Y588D02*
X1215Y588D01*
X0Y587D02*
X22Y587D01*
X56Y587D02*
X78Y587D01*
X1052Y587D02*
X1075Y587D01*
X0Y586D02*
X22Y586D01*
X55Y586D02*
X78Y586D01*
X1052Y586D02*
X1075Y586D01*
X0Y585D02*
X23Y585D01*
X54Y585D02*
X78Y585D01*
X1052Y585D02*
X1075Y585D01*
X0Y584D02*
X24Y584D01*
X53Y584D02*
X78Y584D01*
X1052Y584D02*
X1075Y584D01*
X0Y583D02*
X26Y583D01*
X52Y583D02*
X78Y583D01*
X1052Y583D02*
X1075Y583D01*
X0Y582D02*
X27Y582D01*
X51Y582D02*
X78Y582D01*
X1052Y582D02*
X1075Y582D01*
X0Y581D02*
X29Y581D01*
X49Y581D02*
X78Y581D01*
X1052Y581D02*
X1075Y581D01*
X0Y580D02*
X31Y580D01*
X47Y580D02*
X78Y580D01*
X1052Y580D02*
X1075Y580D01*
X0Y579D02*
X35Y579D01*
X42Y579D02*
X78Y579D01*
X1052Y579D02*
X1075Y579D01*
X0Y578D02*
X78Y578D01*
X1052Y578D02*
X1075Y578D01*
X0Y577D02*
X78Y577D01*
X1052Y577D02*
X1075Y577D01*
X0Y576D02*
X78Y576D01*
X1052Y576D02*
X1075Y576D01*
X0Y575D02*
X78Y575D01*
X1052Y575D02*
X1075Y575D01*
X0Y574D02*
X78Y574D01*
X1052Y574D02*
X1075Y574D01*
X0Y573D02*
X78Y573D01*
X1052Y573D02*
X1075Y573D01*
X0Y572D02*
X78Y572D01*
X1052Y572D02*
X1075Y572D01*
X0Y571D02*
X78Y571D01*
X1052Y571D02*
X1075Y571D01*
X0Y570D02*
X78Y570D01*
X1052Y570D02*
X1075Y570D01*
X0Y569D02*
X78Y569D01*
X1052Y569D02*
X1075Y569D01*
X0Y568D02*
X78Y568D01*
X1052Y568D02*
X1075Y568D01*
X0Y567D02*
X78Y567D01*
X1052Y567D02*
X1075Y567D01*
X0Y566D02*
X78Y566D01*
X1052Y566D02*
X1075Y566D01*
X0Y565D02*
X78Y565D01*
X1052Y565D02*
X1075Y565D01*
X0Y564D02*
X78Y564D01*
X1052Y564D02*
X1075Y564D01*
X0Y563D02*
X78Y563D01*
X1052Y563D02*
X1075Y563D01*
X0Y562D02*
X78Y562D01*
X1052Y562D02*
X1075Y562D01*
X0Y561D02*
X78Y561D01*
X1052Y561D02*
X1075Y561D01*
X0Y560D02*
X78Y560D01*
X1052Y560D02*
X1075Y560D01*
X0Y559D02*
X78Y559D01*
X1052Y559D02*
X1075Y559D01*
X1052Y558D02*
X1075Y558D01*
X1052Y557D02*
X1075Y557D01*
X1052Y556D02*
X1075Y556D01*
X1052Y555D02*
X1075Y555D01*
X1052Y554D02*
X1075Y554D01*
X1052Y553D02*
X1075Y553D01*
X1052Y552D02*
X1075Y552D01*
X1052Y551D02*
X1075Y551D01*
X1052Y550D02*
X1075Y550D01*
X1052Y549D02*
X1075Y549D01*
X1052Y548D02*
X1075Y548D01*
X1053Y547D02*
X1075Y547D01*
X1053Y546D02*
X1075Y546D01*
X1053Y545D02*
X1074Y545D01*
X1054Y544D02*
X1074Y544D01*
X1054Y543D02*
X1073Y543D01*
X1055Y542D02*
X1072Y542D01*
X1056Y541D02*
X1071Y541D01*
X1057Y540D02*
X1070Y540D01*
X1059Y539D02*
X1068Y539D01*
X1062Y538D02*
X1066Y538D01*
X162Y375D02*
X205Y375D01*
X160Y374D02*
X206Y374D01*
X160Y373D02*
X207Y373D01*
X159Y372D02*
X207Y372D01*
X159Y371D02*
X208Y371D01*
X159Y370D02*
X208Y370D01*
X159Y369D02*
X208Y369D01*
X159Y368D02*
X208Y368D01*
X159Y367D02*
X208Y367D01*
X159Y366D02*
X208Y366D01*
X159Y365D02*
X207Y365D01*
X159Y364D02*
X207Y364D01*
X160Y363D02*
X206Y363D01*
X161Y362D02*
X205Y362D01*
X1136Y362D02*
X1168Y362D01*
X1104Y361D02*
X1170Y361D01*
X1072Y360D02*
X1171Y360D01*
X1060Y359D02*
X1172Y359D01*
X1058Y358D02*
X1173Y358D01*
X1057Y357D02*
X1173Y357D01*
X1056Y356D02*
X1174Y356D01*
X1055Y355D02*
X1174Y355D01*
X1054Y354D02*
X1175Y354D01*
X1054Y353D02*
X1175Y353D01*
X1053Y352D02*
X1175Y352D01*
X1053Y351D02*
X1175Y351D01*
X1052Y350D02*
X1175Y350D01*
X1052Y349D02*
X1175Y349D01*
X1052Y348D02*
X1175Y348D01*
X1052Y347D02*
X1175Y347D01*
X1052Y346D02*
X1175Y346D01*
X1052Y345D02*
X1175Y345D01*
X1052Y344D02*
X1175Y344D01*
X1052Y343D02*
X1175Y343D01*
X1052Y342D02*
X1175Y342D01*
X1052Y341D02*
X1175Y341D01*
X1052Y340D02*
X1175Y340D01*
X1052Y339D02*
X1175Y339D01*
X1052Y338D02*
X1135Y338D01*
X1152Y338D02*
X1175Y338D01*
X1052Y337D02*
X1103Y337D01*
X1152Y337D02*
X1175Y337D01*
X1052Y336D02*
X1075Y336D01*
X1152Y336D02*
X1175Y336D01*
X1052Y335D02*
X1075Y335D01*
X1152Y335D02*
X1175Y335D01*
X1052Y334D02*
X1075Y334D01*
X1152Y334D02*
X1175Y334D01*
X1052Y333D02*
X1075Y333D01*
X1152Y333D02*
X1175Y333D01*
X1052Y332D02*
X1075Y332D01*
X1152Y332D02*
X1175Y332D01*
X1052Y331D02*
X1075Y331D01*
X1152Y331D02*
X1175Y331D01*
X1052Y330D02*
X1075Y330D01*
X1152Y330D02*
X1175Y330D01*
X1052Y329D02*
X1075Y329D01*
X1152Y329D02*
X1175Y329D01*
X1052Y328D02*
X1075Y328D01*
X1152Y328D02*
X1175Y328D01*
X1052Y327D02*
X1075Y327D01*
X1152Y327D02*
X1175Y327D01*
X1052Y326D02*
X1075Y326D01*
X1152Y326D02*
X1175Y326D01*
X1052Y325D02*
X1075Y325D01*
X1152Y325D02*
X1175Y325D01*
X1052Y324D02*
X1075Y324D01*
X1152Y324D02*
X1175Y324D01*
X1052Y323D02*
X1075Y323D01*
X1152Y323D02*
X1175Y323D01*
X1052Y322D02*
X1075Y322D01*
X1152Y322D02*
X1175Y322D01*
X1052Y321D02*
X1075Y321D01*
X1152Y321D02*
X1175Y321D01*
X1052Y320D02*
X1075Y320D01*
X1152Y320D02*
X1175Y320D01*
X1052Y319D02*
X1075Y319D01*
X1152Y319D02*
X1175Y319D01*
X1052Y318D02*
X1075Y318D01*
X1152Y318D02*
X1175Y318D01*
X1052Y317D02*
X1075Y317D01*
X1152Y317D02*
X1175Y317D01*
X1052Y316D02*
X1075Y316D01*
X1152Y316D02*
X1175Y316D01*
X1052Y315D02*
X1075Y315D01*
X1152Y315D02*
X1175Y315D01*
X1052Y314D02*
X1075Y314D01*
X1152Y314D02*
X1175Y314D01*
X1052Y313D02*
X1075Y313D01*
X1152Y313D02*
X1175Y313D01*
X1052Y312D02*
X1075Y312D01*
X1152Y312D02*
X1175Y312D01*
X1052Y311D02*
X1075Y311D01*
X1152Y311D02*
X1175Y311D01*
X1052Y310D02*
X1075Y310D01*
X1152Y310D02*
X1175Y310D01*
X1052Y309D02*
X1075Y309D01*
X1152Y309D02*
X1175Y309D01*
X1052Y308D02*
X1075Y308D01*
X1152Y308D02*
X1175Y308D01*
X1052Y307D02*
X1075Y307D01*
X1152Y307D02*
X1175Y307D01*
X1052Y306D02*
X1075Y306D01*
X1152Y306D02*
X1175Y306D01*
X1052Y305D02*
X1075Y305D01*
X1152Y305D02*
X1175Y305D01*
X1052Y304D02*
X1075Y304D01*
X1152Y304D02*
X1175Y304D01*
X1052Y303D02*
X1075Y303D01*
X1152Y303D02*
X1175Y303D01*
X1052Y302D02*
X1075Y302D01*
X1152Y302D02*
X1175Y302D01*
X1052Y301D02*
X1075Y301D01*
X1152Y301D02*
X1175Y301D01*
X1052Y300D02*
X1075Y300D01*
X1152Y300D02*
X1175Y300D01*
X1052Y299D02*
X1075Y299D01*
X1152Y299D02*
X1175Y299D01*
X1052Y298D02*
X1075Y298D01*
X1152Y298D02*
X1175Y298D01*
X1052Y297D02*
X1075Y297D01*
X1152Y297D02*
X1175Y297D01*
X1052Y296D02*
X1075Y296D01*
X1152Y296D02*
X1175Y296D01*
X1052Y295D02*
X1075Y295D01*
X1152Y295D02*
X1175Y295D01*
X1052Y294D02*
X1075Y294D01*
X1152Y294D02*
X1175Y294D01*
X1052Y293D02*
X1075Y293D01*
X1152Y293D02*
X1175Y293D01*
X1052Y292D02*
X1075Y292D01*
X1152Y292D02*
X1175Y292D01*
X1052Y291D02*
X1075Y291D01*
X1152Y291D02*
X1175Y291D01*
X1052Y290D02*
X1075Y290D01*
X1152Y290D02*
X1175Y290D01*
X1052Y289D02*
X1075Y289D01*
X1152Y289D02*
X1175Y289D01*
X1052Y288D02*
X1075Y288D01*
X1152Y288D02*
X1175Y288D01*
X1052Y287D02*
X1075Y287D01*
X1152Y287D02*
X1175Y287D01*
X1052Y286D02*
X1075Y286D01*
X1152Y286D02*
X1175Y286D01*
X1052Y285D02*
X1075Y285D01*
X1152Y285D02*
X1175Y285D01*
X1052Y284D02*
X1075Y284D01*
X1152Y284D02*
X1175Y284D01*
X1052Y283D02*
X1075Y283D01*
X1152Y283D02*
X1175Y283D01*
X1052Y282D02*
X1075Y282D01*
X1152Y282D02*
X1175Y282D01*
X1052Y281D02*
X1075Y281D01*
X1152Y281D02*
X1175Y281D01*
X1052Y280D02*
X1075Y280D01*
X1152Y280D02*
X1175Y280D01*
X1052Y279D02*
X1075Y279D01*
X1152Y279D02*
X1175Y279D01*
X1052Y278D02*
X1075Y278D01*
X1152Y278D02*
X1175Y278D01*
X1052Y277D02*
X1075Y277D01*
X1152Y277D02*
X1175Y277D01*
X1052Y276D02*
X1075Y276D01*
X1152Y276D02*
X1175Y276D01*
X1052Y275D02*
X1075Y275D01*
X1152Y275D02*
X1175Y275D01*
X1052Y274D02*
X1075Y274D01*
X1152Y274D02*
X1175Y274D01*
X1052Y273D02*
X1075Y273D01*
X1152Y273D02*
X1175Y273D01*
X1052Y272D02*
X1075Y272D01*
X1152Y272D02*
X1175Y272D01*
X1052Y271D02*
X1075Y271D01*
X1152Y271D02*
X1175Y271D01*
X1052Y270D02*
X1075Y270D01*
X1152Y270D02*
X1175Y270D01*
X1052Y269D02*
X1075Y269D01*
X1152Y269D02*
X1175Y269D01*
X1052Y268D02*
X1075Y268D01*
X1152Y268D02*
X1175Y268D01*
X1052Y267D02*
X1075Y267D01*
X1152Y267D02*
X1175Y267D01*
X1052Y266D02*
X1075Y266D01*
X1152Y266D02*
X1175Y266D01*
X1052Y265D02*
X1075Y265D01*
X1152Y265D02*
X1175Y265D01*
X1052Y264D02*
X1075Y264D01*
X1152Y264D02*
X1175Y264D01*
X1052Y263D02*
X1075Y263D01*
X1152Y263D02*
X1175Y263D01*
X1052Y262D02*
X1075Y262D01*
X1152Y262D02*
X1175Y262D01*
X1052Y261D02*
X1075Y261D01*
X1152Y261D02*
X1175Y261D01*
X1052Y260D02*
X1075Y260D01*
X1152Y260D02*
X1175Y260D01*
X1052Y259D02*
X1075Y259D01*
X1152Y259D02*
X1175Y259D01*
X1052Y258D02*
X1075Y258D01*
X1152Y258D02*
X1175Y258D01*
X1052Y257D02*
X1075Y257D01*
X1152Y257D02*
X1175Y257D01*
X1052Y256D02*
X1075Y256D01*
X1152Y256D02*
X1175Y256D01*
X1052Y255D02*
X1075Y255D01*
X1152Y255D02*
X1175Y255D01*
X1052Y254D02*
X1075Y254D01*
X1152Y254D02*
X1175Y254D01*
X1052Y253D02*
X1075Y253D01*
X1152Y253D02*
X1175Y253D01*
X1052Y252D02*
X1075Y252D01*
X1152Y252D02*
X1175Y252D01*
X1052Y251D02*
X1075Y251D01*
X1152Y251D02*
X1175Y251D01*
X1052Y250D02*
X1075Y250D01*
X1152Y250D02*
X1175Y250D01*
X1052Y249D02*
X1075Y249D01*
X1152Y249D02*
X1175Y249D01*
X1052Y248D02*
X1075Y248D01*
X1152Y248D02*
X1175Y248D01*
X1052Y247D02*
X1075Y247D01*
X1153Y247D02*
X1175Y247D01*
X1052Y246D02*
X1075Y246D01*
X1153Y246D02*
X1175Y246D01*
X1052Y245D02*
X1075Y245D01*
X1153Y245D02*
X1174Y245D01*
X1052Y244D02*
X1075Y244D01*
X1154Y244D02*
X1174Y244D01*
X1052Y243D02*
X1075Y243D01*
X1154Y243D02*
X1173Y243D01*
X1052Y242D02*
X1075Y242D01*
X1155Y242D02*
X1172Y242D01*
X1052Y241D02*
X1075Y241D01*
X1156Y241D02*
X1171Y241D01*
X1052Y240D02*
X1075Y240D01*
X1157Y240D02*
X1170Y240D01*
X1052Y239D02*
X1075Y239D01*
X1159Y239D02*
X1168Y239D01*
X1052Y238D02*
X1075Y238D01*
X1162Y238D02*
X1165Y238D01*
X1052Y237D02*
X1075Y237D01*
X1052Y236D02*
X1075Y236D01*
X1052Y235D02*
X1075Y235D01*
X1052Y234D02*
X1075Y234D01*
X1052Y233D02*
X1075Y233D01*
X1052Y232D02*
X1075Y232D01*
X1052Y231D02*
X1075Y231D01*
X1052Y230D02*
X1075Y230D01*
X1052Y229D02*
X1075Y229D01*
X1052Y228D02*
X1075Y228D01*
X1052Y227D02*
X1075Y227D01*
X1052Y226D02*
X1075Y226D01*
X1052Y225D02*
X1075Y225D01*
X1052Y224D02*
X1075Y224D01*
X1052Y223D02*
X1075Y223D01*
X1052Y222D02*
X1075Y222D01*
X1052Y221D02*
X1075Y221D01*
X1052Y220D02*
X1075Y220D01*
X1052Y219D02*
X1075Y219D01*
X1052Y218D02*
X1075Y218D01*
X1052Y217D02*
X1075Y217D01*
X1052Y216D02*
X1075Y216D01*
X1052Y215D02*
X1075Y215D01*
X1052Y214D02*
X1075Y214D01*
X1052Y213D02*
X1075Y213D01*
X1052Y212D02*
X1075Y212D01*
X1010Y211D02*
X1075Y211D01*
X1008Y210D02*
X1075Y210D01*
X1007Y209D02*
X1075Y209D01*
X1006Y208D02*
X1075Y208D01*
X1005Y207D02*
X1075Y207D01*
X1004Y206D02*
X1075Y206D01*
X1004Y205D02*
X1075Y205D01*
X1003Y204D02*
X1075Y204D01*
X1003Y203D02*
X1075Y203D01*
X1003Y202D02*
X1075Y202D01*
X1002Y201D02*
X1075Y201D01*
X1002Y200D02*
X1075Y200D01*
X1002Y199D02*
X1075Y199D01*
X1002Y198D02*
X1075Y198D01*
X1003Y197D02*
X1075Y197D01*
X1003Y196D02*
X1075Y196D01*
X1003Y195D02*
X1074Y195D01*
X1004Y194D02*
X1074Y194D01*
X1004Y193D02*
X1073Y193D01*
X1005Y192D02*
X1072Y192D01*
X1006Y191D02*
X1071Y191D01*
X1007Y190D02*
X1070Y190D01*
X1009Y189D02*
X1068Y189D01*
X1012Y188D02*
X1065Y188D01*
X1160Y161D02*
X1167Y161D01*
X1158Y160D02*
X1169Y160D01*
X1157Y159D02*
X1171Y159D01*
X1156Y158D02*
X1172Y158D01*
X1155Y157D02*
X1173Y157D01*
X1154Y156D02*
X1173Y156D01*
X1153Y155D02*
X1174Y155D01*
X1153Y154D02*
X1174Y154D01*
X1153Y153D02*
X1175Y153D01*
X1152Y152D02*
X1175Y152D01*
X1152Y151D02*
X1175Y151D01*
X1152Y150D02*
X1175Y150D01*
X1152Y149D02*
X1175Y149D01*
X1152Y148D02*
X1175Y148D01*
X1152Y147D02*
X1175Y147D01*
X1152Y146D02*
X1175Y146D01*
X1152Y145D02*
X1175Y145D01*
X1152Y144D02*
X1175Y144D01*
X1152Y143D02*
X1175Y143D01*
X1152Y142D02*
X1175Y142D01*
X1152Y141D02*
X1175Y141D01*
X1152Y140D02*
X1175Y140D01*
X1152Y139D02*
X1175Y139D01*
X1152Y138D02*
X1175Y138D01*
X1152Y137D02*
X1175Y137D01*
X1152Y136D02*
X1175Y136D01*
X1152Y135D02*
X1175Y135D01*
X1152Y134D02*
X1175Y134D01*
X1152Y133D02*
X1175Y133D01*
X1152Y132D02*
X1175Y132D01*
X1152Y131D02*
X1175Y131D01*
X1152Y130D02*
X1175Y130D01*
X1152Y129D02*
X1175Y129D01*
X1152Y128D02*
X1175Y128D01*
X1152Y127D02*
X1175Y127D01*
X1152Y126D02*
X1175Y126D01*
X1152Y125D02*
X1175Y125D01*
X1152Y124D02*
X1175Y124D01*
X1152Y123D02*
X1175Y123D01*
X1152Y122D02*
X1175Y122D01*
X1152Y121D02*
X1175Y121D01*
X1152Y120D02*
X1175Y120D01*
X1152Y119D02*
X1175Y119D01*
X1152Y118D02*
X1175Y118D01*
X1152Y117D02*
X1175Y117D01*
X1152Y116D02*
X1175Y116D01*
X1152Y115D02*
X1175Y115D01*
X1152Y114D02*
X1175Y114D01*
X1152Y113D02*
X1175Y113D01*
X1152Y112D02*
X1175Y112D01*
X1152Y111D02*
X1175Y111D01*
X1152Y110D02*
X1175Y110D01*
X1152Y109D02*
X1175Y109D01*
X1152Y108D02*
X1175Y108D01*
X1152Y107D02*
X1175Y107D01*
X1152Y106D02*
X1175Y106D01*
X1152Y105D02*
X1175Y105D01*
X1152Y104D02*
X1175Y104D01*
X1152Y103D02*
X1175Y103D01*
X1152Y102D02*
X1175Y102D01*
X1152Y101D02*
X1175Y101D01*
X1152Y100D02*
X1175Y100D01*
X1152Y99D02*
X1175Y99D01*
X1152Y98D02*
X1175Y98D01*
X1152Y97D02*
X1175Y97D01*
X1152Y96D02*
X1175Y96D01*
X1152Y95D02*
X1175Y95D01*
X1152Y94D02*
X1175Y94D01*
X1152Y93D02*
X1175Y93D01*
X1152Y92D02*
X1175Y92D01*
X1152Y91D02*
X1175Y91D01*
X1152Y90D02*
X1175Y90D01*
X1152Y89D02*
X1175Y89D01*
X1152Y88D02*
X1175Y88D01*
X1152Y87D02*
X1175Y87D01*
X1152Y86D02*
X1175Y86D01*
X1152Y85D02*
X1175Y85D01*
X1152Y84D02*
X1175Y84D01*
X1152Y83D02*
X1175Y83D01*
X1152Y82D02*
X1175Y82D01*
X1152Y81D02*
X1175Y81D01*
X1152Y80D02*
X1175Y80D01*
X1152Y79D02*
X1175Y79D01*
X1152Y78D02*
X1175Y78D01*
X1152Y77D02*
X1175Y77D01*
X1152Y76D02*
X1175Y76D01*
X1152Y75D02*
X1175Y75D01*
X1152Y74D02*
X1175Y74D01*
X1152Y73D02*
X1175Y73D01*
X1152Y72D02*
X1175Y72D01*
X1152Y71D02*
X1175Y71D01*
X1152Y70D02*
X1175Y70D01*
X1152Y69D02*
X1175Y69D01*
X1152Y68D02*
X1175Y68D01*
X1152Y67D02*
X1175Y67D01*
X1152Y66D02*
X1175Y66D01*
X1152Y65D02*
X1175Y65D01*
X1152Y64D02*
X1175Y64D01*
X1152Y63D02*
X1175Y63D01*
X1085Y62D02*
X1175Y62D01*
X1060Y61D02*
X1175Y61D01*
X1058Y60D02*
X1175Y60D01*
X1057Y59D02*
X1175Y59D01*
X1056Y58D02*
X1175Y58D01*
X1055Y57D02*
X1175Y57D01*
X1054Y56D02*
X1175Y56D01*
X1054Y55D02*
X1175Y55D01*
X1053Y54D02*
X1175Y54D01*
X1053Y53D02*
X1175Y53D01*
X1052Y52D02*
X1175Y52D01*
X1052Y51D02*
X1175Y51D01*
X1052Y50D02*
X1175Y50D01*
X1052Y49D02*
X1175Y49D01*
X1052Y48D02*
X1175Y48D01*
X1053Y47D02*
X1174Y47D01*
X1053Y46D02*
X1174Y46D01*
X1053Y45D02*
X1174Y45D01*
X1054Y44D02*
X1173Y44D01*
X1054Y43D02*
X1172Y43D01*
X1055Y42D02*
X1171Y42D01*
X1056Y41D02*
X1170Y41D01*
X1057Y40D02*
X1168Y40D01*
X1059Y39D02*
X1164Y39D01*
X1062Y38D02*
X1084Y38D01*
D02*
G04 End of Copper1*
M02*