; NON-PLATED HOLES START AT T1
; THROUGH (PLATED) HOLES START AT T100
M48
INCH
T100C0.038000
T101C0.039370
T102C0.048000
T103C0.042000
T104C0.035000
%
T100
X002149Y000492
X005149Y000492
X004149Y000492
X003149Y000492
X001149Y000492
X006149Y000492
T101
X002871Y001992
X011649Y001492
X006371Y005992
X005371Y001492
X001371Y006992
X000871Y002992
X006371Y001492
X005371Y005992
X002371Y006992
X000871Y001992
X010149Y006992
X011149Y006992
X005371Y006992
X002871Y002992
X006371Y006992
X011649Y002492
X007871Y004192
T102
X000391Y005992
T103
X010649Y000492
X010649Y003472
X012149Y005992
X004371Y002492
X007351Y002492
X003371Y005992
X009169Y005992
T104
X006371Y003992
X011649Y004492
X009649Y004492
X000871Y004492
X002871Y004492
X009149Y002992
X004371Y003992
X009149Y000992
T00
M30
