G04 MADE WITH FRITZING*
G04 WWW.FRITZING.ORG*
G04 DOUBLE SIDED*
G04 HOLES PLATED*
G04 CONTOUR ON CENTER OF CONTOUR VECTOR*
%ASAXBY*%
%FSLAX23Y23*%
%MOIN*%
%OFA0B0*%
%SFA1.0B1.0*%
%ADD10C,0.096614*%
%ADD11C,0.042000*%
%ADD12C,0.092000*%
%ADD13C,0.085000*%
%ADD14C,0.088000*%
%ADD15R,0.092000X0.092000*%
%ADD16R,0.001000X0.001000*%
%LNMASK0*%
G90*
G70*
G54D10*
X537Y699D03*
X637Y699D03*
X787Y419D03*
X637Y599D03*
X537Y599D03*
X1165Y249D03*
X1165Y149D03*
X637Y149D03*
X537Y149D03*
X87Y199D03*
X87Y299D03*
X1015Y699D03*
X1115Y699D03*
X137Y699D03*
X237Y699D03*
X287Y199D03*
X287Y299D03*
G54D11*
X39Y599D03*
G54D12*
X337Y599D03*
G54D11*
X39Y599D03*
G54D12*
X337Y599D03*
X917Y599D03*
G54D11*
X1215Y599D03*
G54D12*
X917Y599D03*
G54D11*
X1215Y599D03*
G54D12*
X1065Y347D03*
X1065Y49D03*
X1065Y347D03*
X1065Y49D03*
X735Y249D03*
X437Y249D03*
X735Y249D03*
X437Y249D03*
G54D13*
X87Y449D03*
X287Y449D03*
X87Y449D03*
X287Y449D03*
X965Y449D03*
X1165Y449D03*
X965Y449D03*
X1165Y449D03*
X637Y399D03*
X437Y399D03*
X637Y399D03*
X437Y399D03*
X915Y299D03*
X915Y99D03*
X915Y299D03*
X915Y99D03*
G54D14*
X115Y49D03*
X215Y49D03*
X315Y49D03*
X415Y49D03*
X515Y49D03*
X615Y49D03*
G54D15*
X916Y599D03*
X916Y599D03*
X1065Y348D03*
X1065Y348D03*
X736Y249D03*
X736Y249D03*
G54D16*
X0Y645D02*
X83Y645D01*
X1207Y645D02*
X1221Y645D01*
X0Y644D02*
X83Y644D01*
X1202Y644D02*
X1225Y644D01*
X0Y643D02*
X83Y643D01*
X1199Y643D02*
X1229Y643D01*
X0Y642D02*
X83Y642D01*
X1196Y642D02*
X1231Y642D01*
X0Y641D02*
X83Y641D01*
X1194Y641D02*
X1233Y641D01*
X0Y640D02*
X83Y640D01*
X1192Y640D02*
X1235Y640D01*
X0Y639D02*
X83Y639D01*
X1190Y639D02*
X1237Y639D01*
X0Y638D02*
X83Y638D01*
X1189Y638D02*
X1239Y638D01*
X0Y637D02*
X83Y637D01*
X1187Y637D02*
X1240Y637D01*
X0Y636D02*
X83Y636D01*
X1186Y636D02*
X1241Y636D01*
X0Y635D02*
X83Y635D01*
X1185Y635D02*
X1243Y635D01*
X0Y634D02*
X83Y634D01*
X1184Y634D02*
X1244Y634D01*
X0Y633D02*
X83Y633D01*
X1182Y633D02*
X1245Y633D01*
X0Y632D02*
X83Y632D01*
X1181Y632D02*
X1246Y632D01*
X0Y631D02*
X83Y631D01*
X1180Y631D02*
X1247Y631D01*
X0Y630D02*
X83Y630D01*
X1180Y630D02*
X1248Y630D01*
X0Y629D02*
X83Y629D01*
X1179Y629D02*
X1249Y629D01*
X0Y628D02*
X83Y628D01*
X1178Y628D02*
X1249Y628D01*
X0Y627D02*
X83Y627D01*
X1177Y627D02*
X1250Y627D01*
X0Y626D02*
X83Y626D01*
X1177Y626D02*
X1251Y626D01*
X0Y625D02*
X83Y625D01*
X1176Y625D02*
X1251Y625D01*
X0Y624D02*
X83Y624D01*
X1175Y624D02*
X1252Y624D01*
X0Y623D02*
X83Y623D01*
X1175Y623D02*
X1253Y623D01*
X0Y622D02*
X83Y622D01*
X1174Y622D02*
X1253Y622D01*
X0Y621D02*
X83Y621D01*
X1173Y621D02*
X1254Y621D01*
X0Y620D02*
X83Y620D01*
X1173Y620D02*
X1254Y620D01*
X0Y619D02*
X83Y619D01*
X1172Y619D02*
X1255Y619D01*
X0Y618D02*
X83Y618D01*
X1172Y618D02*
X1255Y618D01*
X0Y617D02*
X83Y617D01*
X1172Y617D02*
X1256Y617D01*
X0Y616D02*
X83Y616D01*
X1171Y616D02*
X1256Y616D01*
X0Y615D02*
X83Y615D01*
X1171Y615D02*
X1256Y615D01*
X0Y614D02*
X83Y614D01*
X1170Y614D02*
X1257Y614D01*
X0Y613D02*
X83Y613D01*
X1170Y613D02*
X1257Y613D01*
X0Y612D02*
X83Y612D01*
X1170Y612D02*
X1257Y612D01*
X0Y611D02*
X83Y611D01*
X1170Y611D02*
X1258Y611D01*
X0Y610D02*
X83Y610D01*
X1169Y610D02*
X1258Y610D01*
X0Y609D02*
X83Y609D01*
X1169Y609D02*
X1258Y609D01*
X0Y608D02*
X83Y608D01*
X1169Y608D02*
X1258Y608D01*
X0Y607D02*
X83Y607D01*
X1169Y607D02*
X1258Y607D01*
X0Y606D02*
X84Y606D01*
X1169Y606D02*
X1259Y606D01*
X0Y605D02*
X84Y605D01*
X1169Y605D02*
X1259Y605D01*
X0Y604D02*
X84Y604D01*
X1168Y604D02*
X1259Y604D01*
X0Y603D02*
X84Y603D01*
X1168Y603D02*
X1259Y603D01*
X0Y602D02*
X84Y602D01*
X1168Y602D02*
X1259Y602D01*
X0Y601D02*
X84Y601D01*
X1168Y601D02*
X1259Y601D01*
X0Y600D02*
X84Y600D01*
X1168Y600D02*
X1259Y600D01*
X0Y599D02*
X84Y599D01*
X1168Y599D02*
X1259Y599D01*
X0Y598D02*
X84Y598D01*
X1168Y598D02*
X1259Y598D01*
X0Y597D02*
X84Y597D01*
X1168Y597D02*
X1259Y597D01*
X0Y596D02*
X84Y596D01*
X1168Y596D02*
X1259Y596D01*
X0Y595D02*
X84Y595D01*
X1168Y595D02*
X1259Y595D01*
X0Y594D02*
X84Y594D01*
X1169Y594D02*
X1259Y594D01*
X0Y593D02*
X84Y593D01*
X1169Y593D02*
X1259Y593D01*
X0Y592D02*
X83Y592D01*
X1169Y592D02*
X1258Y592D01*
X0Y591D02*
X83Y591D01*
X1169Y591D02*
X1258Y591D01*
X0Y590D02*
X83Y590D01*
X1169Y590D02*
X1258Y590D01*
X0Y589D02*
X83Y589D01*
X1170Y589D02*
X1258Y589D01*
X0Y588D02*
X83Y588D01*
X1170Y588D02*
X1257Y588D01*
X0Y587D02*
X83Y587D01*
X1170Y587D02*
X1257Y587D01*
X0Y586D02*
X83Y586D01*
X1170Y586D02*
X1257Y586D01*
X0Y585D02*
X83Y585D01*
X1171Y585D02*
X1257Y585D01*
X0Y584D02*
X83Y584D01*
X1171Y584D02*
X1256Y584D01*
X0Y583D02*
X83Y583D01*
X1171Y583D02*
X1256Y583D01*
X0Y582D02*
X83Y582D01*
X1172Y582D02*
X1256Y582D01*
X0Y581D02*
X83Y581D01*
X1172Y581D02*
X1255Y581D01*
X0Y580D02*
X83Y580D01*
X1173Y580D02*
X1255Y580D01*
X0Y579D02*
X83Y579D01*
X1173Y579D02*
X1254Y579D01*
X0Y578D02*
X83Y578D01*
X1174Y578D02*
X1254Y578D01*
X0Y577D02*
X83Y577D01*
X1174Y577D02*
X1253Y577D01*
X0Y576D02*
X83Y576D01*
X1175Y576D02*
X1252Y576D01*
X0Y575D02*
X83Y575D01*
X1176Y575D02*
X1252Y575D01*
X0Y574D02*
X83Y574D01*
X1176Y574D02*
X1251Y574D01*
X0Y573D02*
X83Y573D01*
X1177Y573D02*
X1250Y573D01*
X0Y572D02*
X83Y572D01*
X1178Y572D02*
X1250Y572D01*
X0Y571D02*
X83Y571D01*
X1178Y571D02*
X1249Y571D01*
X0Y570D02*
X83Y570D01*
X1179Y570D02*
X1248Y570D01*
X0Y569D02*
X83Y569D01*
X1180Y569D02*
X1247Y569D01*
X0Y568D02*
X83Y568D01*
X1181Y568D02*
X1246Y568D01*
X0Y567D02*
X83Y567D01*
X1182Y567D02*
X1245Y567D01*
X0Y566D02*
X83Y566D01*
X1183Y566D02*
X1244Y566D01*
X0Y565D02*
X83Y565D01*
X1184Y565D02*
X1243Y565D01*
X0Y564D02*
X83Y564D01*
X1185Y564D02*
X1242Y564D01*
X0Y563D02*
X83Y563D01*
X1187Y563D02*
X1241Y563D01*
X0Y562D02*
X83Y562D01*
X1188Y562D02*
X1239Y562D01*
X0Y561D02*
X83Y561D01*
X1190Y561D02*
X1238Y561D01*
X0Y560D02*
X83Y560D01*
X1191Y560D02*
X1236Y560D01*
X0Y559D02*
X83Y559D01*
X1193Y559D02*
X1234Y559D01*
X0Y558D02*
X83Y558D01*
X1195Y558D02*
X1232Y558D01*
X0Y557D02*
X83Y557D01*
X1197Y557D02*
X1230Y557D01*
X0Y556D02*
X83Y556D01*
X1200Y556D02*
X1227Y556D01*
X0Y555D02*
X83Y555D01*
X1204Y555D02*
X1223Y555D01*
X0Y554D02*
X83Y554D01*
X1210Y554D02*
X1217Y554D01*
D02*
G04 End of Mask0*
M02*